# Blender v2.74 (sub 0) OBJ File: 'explode.blend'
# www.blender.org
mtllib explode_000181.mtl
o Cube_Cube.001
v 0.550108 -2.175332 -1.060752
v -0.970531 -2.071939 -0.545564
v 2.627033 -0.497336 -0.695991
v 0.460534 1.745345 -1.314013
v 0.490590 -2.232419 -1.022501
v 0.052370 1.882874 -1.459268
v 0.271714 1.583250 3.067663
v -1.025260 1.067763 -2.592161
v -0.565644 0.422577 -1.448997
v -3.715107 -0.272483 0.042744
v 0.383798 -0.733410 3.055038
v 2.842440 -0.626423 -0.247216
v 0.291681 -2.339901 -0.628173
v -2.312229 4.549738 -1.841666
v -0.151583 1.995958 -1.291161
v -0.377020 0.345301 -1.630186
v -3.567527 0.070283 0.498637
v 0.357583 -0.494694 3.258757
v 2.686638 -0.462243 -0.125207
v 2.381306 -0.226155 -0.426379
v 2.459207 -0.308246 -0.487383
v -0.355436 -0.313181 -0.424133
v -3.565255 -0.279164 0.398075
v 0.146681 1.892046 -1.203531
v -0.961773 1.132813 -2.593711
v 0.384541 -0.741368 3.145595
v 2.429404 -0.325792 -0.772775
v -0.940125 0.969824 -3.215152
v -0.707825 1.393012 -2.599913
v -1.103585 0.881698 -2.945055
v 0.083807 1.885931 -1.374022
v 0.462937 -2.064573 -0.382908
v -2.197164 4.247333 -1.789232
v -0.732149 1.420995 -2.421915
v -1.127909 0.909681 -2.767057
v 0.397660 1.739230 -1.484504
v -0.628519 0.448335 -1.388600
v 2.615009 -0.472427 -0.609392
v 2.734737 -0.561880 -0.471604
v -2.264437 4.561050 -2.038922
v -0.700823 2.639917 0.866726
v -0.876638 1.034874 -3.216703
v 0.497759 -0.592204 3.066512
v -0.876053 -2.039998 0.930816
v -2.230801 4.404192 -1.914077
v 0.255099 1.678410 3.152501
v 0.252517 -2.460768 -0.869498
v -0.439895 0.371060 -1.569790
v 0.390364 -2.161948 -0.425099
v 0.426184 -0.527533 2.981520
v -0.783823 1.964382 -3.750034
v 0.124899 1.788588 3.295663
v -0.427088 0.652939 -1.403002
v 2.578935 -0.397699 -0.349595
v 0.050050 1.427913 3.101074
v -0.623065 2.188310 -3.572690
v -0.536148 0.601910 -1.357937
v -0.761826 1.178965 -3.130805
v 0.210763 1.778515 3.323777
v -0.900236 2.078617 -3.229536
v -0.814972 2.599172 0.967241
v 0.601872 1.714784 -1.171142
v -0.807799 1.369936 -2.331366
v 0.354609 -0.462861 2.896528
v -0.088709 2.002073 -1.120669
v 0.477535 -2.272708 -1.102942
v -0.958441 -2.175051 1.020429
v 0.221778 1.407768 3.157301
v -0.861950 -1.848140 -0.480448
v -0.751678 -1.879737 0.917794
v 0.166335 1.417660 3.330177
v -0.593014 1.537103 -2.514015
v -0.895252 -1.883478 -0.557303
v 0.272810 -0.906447 3.405793
v -0.941958 2.598795 0.987319
v -0.822627 2.002460 -3.576535
v -3.627751 0.081705 0.128855
v -0.628096 -1.677156 0.783374
v 0.423772 -2.185439 -0.624233
v -0.861432 2.040539 -3.403035
v 0.397663 -2.266016 -0.785116
v 0.158105 -1.039695 3.303762
v -1.003833 -2.107276 -0.622419
v -2.220184 4.530320 -2.155653
v -0.005393 1.437806 3.273949
v 0.240993 1.901219 -0.947794
v -1.154910 0.802657 -3.032503
v 0.386771 -0.765242 3.417266
v 0.209296 1.809523 -1.514509
v -0.952287 0.983815 -3.126153
v 0.284521 -0.414106 2.992651
v -1.231706 -1.865381 -0.312304
v -0.973935 1.146804 -2.504713
v -1.374607 -1.720877 -0.316825
v -0.661869 2.226388 -3.399191
v 0.157361 -1.031736 3.213205
v 0.386028 -0.757284 3.326709
v -0.878433 -1.913038 0.566624
v -2.308690 4.591781 -1.922191
v 0.209556 1.898161 -1.033039
v -0.517365 1.588162 -2.604565
v 0.429158 -0.559365 3.343748
v 0.449882 -2.104861 -0.463350
v -2.400512 4.430998 -1.702277
v -3.626615 -0.093019 0.078574
v 0.576217 -2.094755 -0.899869
v -0.104557 1.956225 -1.404027
v -1.060994 1.854689 -3.406879
v -0.903927 -2.001264 -0.391854
v 0.243992 1.588196 3.154101
v -3.628318 0.169067 0.153996
v -0.207542 1.458132 3.016732
v -0.400320 -0.391798 -0.432457
v 0.364254 -2.242526 -0.585982
v -2.183008 4.415504 -2.111334
v -0.432010 -0.272327 -0.397081
v -0.874467 -2.124637 1.173611
v -3.566391 -0.104440 0.448356
v 2.680885 -0.529608 -0.583797
v -0.834066 -2.014791 1.007407
v -0.698340 1.244015 -3.132356
v -3.610281 -0.292438 0.114454
v -0.630044 -0.269235 -0.351304
v -1.076584 0.988722 -2.679609
v 0.356840 -0.486735 3.168199
v -0.877639 -1.955358 0.688021
v 0.602327 -2.014178 -0.738985
v -0.066235 1.438167 2.871970
v -1.027756 -2.119651 1.040195
v 0.355353 -0.470820 2.987086
v 0.538998 1.708669 -1.341633
v 0.498503 -0.600162 3.157068
v -3.595651 -0.229772 0.225754
v -0.937448 1.104831 -2.771708
v -0.124377 1.443294 2.757419
v -0.469391 0.191726 -1.660849
v -0.668663 1.486044 -2.423466
v -0.795636 1.355945 -2.420365
v 0.100381 -1.102339 3.207469
v -0.949542 -1.995377 -0.589862
v 2.698663 -0.487152 -0.211806
v -0.913124 1.076848 -2.949707
v 0.238484 1.773570 3.237339
v -0.658015 0.269002 -1.479660
v -0.966757 2.016667 -3.230817
v -0.669290 -1.744683 0.828181
v 0.213599 -0.953175 3.128385
v -0.674928 -0.347852 -0.359629
v 0.192999 -2.517855 -0.831247
v -0.706618 -0.228381 -0.324253
v -0.659177 1.337047 -2.955909
v -0.152099 1.448240 2.843857
v 2.788588 -0.594151 -0.359410
v -0.073120 1.959282 -1.318781
v -0.983386 1.778532 -3.753879
v -2.237879 4.320107 -1.753026
v -0.683501 1.365030 -2.777911
v -0.473273 0.576151 -1.418334
v 0.303608 1.818696 -1.258772
v -3.566959 -0.017078 0.473496
v -0.627303 -1.719476 0.904771
v -0.985769 -2.094444 1.116786
v -1.210718 -1.788819 -0.356601
v -1.027936 0.932757 -3.035604
v -0.284649 0.498876 -1.599523
v 2.495281 -0.382973 -0.747181
v -0.755769 2.541764 0.928981
v -0.768607 2.582132 0.848544
v -0.578452 0.140697 -1.615784
v 2.884267 -0.633786 -0.048423
v -0.924916 -2.077826 -0.347557
v -3.551761 -0.041774 0.559657
v 0.491972 1.748402 -1.228767
v -0.711277 -1.769890 0.751590
v 0.270580 -0.882573 3.134121
v 2.590959 -0.422608 -0.436194
v 0.269836 -0.874615 3.043564
v -0.010245 1.965397 -1.148290
v 0.188549 1.598088 3.326977
v -0.897463 1.821443 -3.839347
v -0.834799 1.262913 -2.596812
v 0.286008 -0.430022 3.173765
v -3.641813 -0.068323 -0.007586
v 2.483256 -0.358064 -0.660582
v -0.823554 2.483978 0.910799
v 2.896291 -0.658695 -0.135022
v -2.223723 4.488277 -2.075128
v -0.585159 -0.190619 -0.342979
v 0.366223 1.736173 -1.569750
v 0.240733 1.812581 -1.429263
v 0.371554 -2.346593 -0.946000
v 0.397919 1.827868 -1.003035
v -1.252695 -1.941943 -0.268007
v -0.991520 -2.148501 -0.501267
v -3.640677 -0.243046 -0.057867
v 2.447182 -0.283337 -0.400784
v 2.830415 -0.601514 -0.160617
v -2.190086 4.331419 -1.950283
v -0.650782 2.088281 -3.747472
v -0.580852 1.523112 -2.603014
v -3.581021 -0.167106 0.337055
v -0.347524 0.524634 -1.539127
v -2.441227 4.503771 -1.666070
v -3.642948 0.106401 0.042695
v -0.943782 -2.069237 1.193377
v 0.288328 1.488090 2.982825
v -0.767194 2.202517 -3.226973
v 0.221870 1.868729 3.322178
v 0.239463 -2.501056 -0.949940
v -0.121678 1.448059 3.044846
v 0.500733 -0.624036 3.428740
v -0.876846 -1.997677 0.809419
v 0.674900 -1.916802 -0.696794
v -0.916454 -2.149844 1.097020
v -2.360021 4.538425 -1.644408
v -1.030505 1.697543 -3.841910
v -0.994473 1.916639 -3.405598
v 0.304943 1.392930 2.897987
v -0.749664 1.164974 -3.219804
v 0.277221 1.397876 2.984425
v -0.532266 0.217485 -1.600453
v -0.835652 -1.930151 0.764612
v 0.509400 -2.047774 -0.501600
v 0.555863 -2.030976 -0.620293
v -0.689586 2.126360 -3.573972
v -0.744312 1.434986 -2.332917
v -3.597355 0.032313 0.301176
v -1.395595 -1.797439 -0.272529
v -0.728390 2.164438 -3.400472
v -0.521779 -0.429560 -0.413731
v -0.262985 1.468024 3.189608
v -0.166014 1.548165 3.216122
v 0.005714 1.528020 3.272350
v -0.704201 0.192214 -1.494992
v -1.022190 1.816611 -3.580379
v 0.358499 -2.386882 -1.026441
v 2.417380 -0.300883 -0.686176
v -0.177120 1.457951 3.217722
v -1.456551 -1.686907 -0.296938
v -0.301338 0.601422 -1.523795
v -0.916865 1.840482 -3.752597
v -0.955669 1.878560 -3.579097
v -0.568690 1.509120 -2.692013
v -0.687985 2.599549 0.947162
v 0.278627 -2.380191 -0.708615
v -1.477540 -1.763468 -0.252641
v -0.764421 1.945343 -3.836784
v -3.625479 -0.267742 0.028293
v -0.786596 2.221556 -3.140223
v -0.631379 2.069242 -3.834221
v 0.542809 -2.071265 -0.700734
v -0.564858 2.131192 -3.832940
v -0.571366 1.374114 -3.135457
v -0.720890 0.294760 -1.419263
v 0.516699 -2.151842 -0.861618
v -1.067817 -1.933322 -0.352079
v 0.272066 -0.898489 3.315235
v -0.888800 1.048865 -3.127705
v 0.283778 -0.406148 2.902094
v -3.596219 -0.142410 0.250895
v -0.943895 -1.814169 -0.460561
v 0.101124 -1.110297 3.298026
v -0.919638 2.097656 -3.142786
v 0.366482 1.824811 -1.088281
v 0.131092 1.934837 -1.005419
v -0.038513 1.433221 2.785532
v 2.818391 -0.576605 -0.074018
v -2.138755 4.384773 -2.228065
v -2.257359 4.645135 -2.199973
v 0.444945 1.788135 -1.115901
v -0.792079 -1.989583 1.083998
v 0.133215 1.413076 2.841760
v -1.013875 1.935678 -3.318848
v -1.088805 -2.009884 -0.307782
v 0.219109 -2.437277 -0.670364
v -0.057271 2.005130 -1.035424
v -2.352943 4.622511 -1.805459
v 0.021192 1.968455 -1.063044
v -1.416584 -1.874001 -0.228231
v -0.794458 -1.862624 0.719806
v -0.846961 1.276904 -2.507813
v 0.105493 1.418022 2.928198
v -0.476895 -0.350943 -0.405406
v -0.647015 1.323056 -3.044908
v 0.158848 -1.047653 3.394319
v -0.904176 2.466561 0.812181
v -0.709691 -1.854530 0.994385
v -1.064422 0.974731 -2.768608
v 0.499990 -0.616078 3.338182
v -0.620014 1.430079 -2.779461
v -3.552897 0.132949 0.609938
v -3.597923 0.119675 0.326316
v 0.476123 1.702554 -1.512125
v -0.595690 1.402097 -2.957459
v 2.632786 -0.429971 -0.237401
v 2.722712 -0.536970 -0.385004
v -2.319083 4.285453 -1.774689
v -1.040098 0.946748 -2.946606
v -2.319307 4.465653 -1.680615
v -1.046828 -1.856761 -0.396376
v 0.102685 1.608161 3.298863
v -0.786151 1.206947 -2.952807
v -0.700673 2.264467 -3.225691
v -0.584260 2.150231 -3.746190
v 2.393330 -0.251065 -0.512978
v -0.810475 1.234930 -2.774810
vt 0.612400 0.500000
vt 0.550800 0.500000
vt 0.581600 0.500000
vt 0.735600 0.500000
vt 0.858800 0.500000
vt 0.982000 0.500000
vt 0.951200 0.500000
vt 0.766400 0.500000
vt 0.704800 0.500000
vt 0.674000 0.500000
vt 0.643200 0.500000
vt 0.920400 0.500000
vt 0.828000 0.500000
vt 0.797200 0.500000
vn -0.304900 0.054400 0.950800
vn 0.366300 0.388700 0.845400
vn 0.513400 -0.454200 0.728100
vn 0.703100 -0.681400 0.203200
vn -0.038900 -0.462500 0.885800
vn 0.647300 -0.701300 0.298700
vn 0.216200 -0.224000 0.950300
vn 0.216200 -0.224100 0.950300
vn 0.651200 -0.631500 -0.420900
vn 0.944500 -0.110800 0.309300
vn 0.944500 -0.110800 0.309200
vn 0.626800 0.776600 0.063100
vn 0.141200 -0.444000 0.884800
vn 0.985900 0.052200 -0.159000
vn 0.985900 0.052100 -0.159000
vn 0.230900 0.842200 -0.487300
vn 0.368100 0.914400 -0.168500
vn 0.893300 0.381200 0.238300
vn -0.453100 -0.742800 0.492900
vn 0.676300 0.727500 -0.115400
vn 0.676300 0.727500 -0.115300
vn -0.122200 -0.992400 0.017600
vn 0.779100 -0.623800 -0.061200
vn 0.901400 -0.373700 -0.218800
vn 0.006200 -0.961000 -0.276500
vn 0.742100 -0.639700 0.200000
vn 0.762500 -0.609400 -0.217400
vn 0.141200 -0.444100 0.884800
usemtl Explode_Fade
s off
f 179/1/1 301/1/1 233/1/1
f 85/1/1 71/1/1 179/1/1
f 69/2/2 261/2/2 300/2/2
f 69/2/2 256/2/2 109/2/2
f 171/2/2 109/2/2 256/2/2
f 136/3/3 221/3/3 169/3/3
f 144/3/3 234/3/3 169/3/3
f 234/3/3 144/3/3 254/3/3
f 121/4/4 58/4/4 219/4/4
f 258/4/4 42/4/4 219/4/4
f 258/4/4 90/4/4 28/4/4
f 239/2/2 246/2/2 228/2/2
f 228/2/2 92/2/2 163/2/2
f 92/2/2 256/2/2 300/2/2
f 33/5/5 156/5/5 297/5/5
f 284/4/4 253/4/4 294/4/4
f 121/4/4 284/4/4 151/4/4
f 58/4/4 151/4/4 302/4/4
f 58/4/4 302/4/4 142/4/4
f 298/4/4 164/4/4 90/4/4
f 279/2/2 228/2/2 246/2/2
f 298/4/4 258/4/4 142/4/4
f 30/4/4 87/4/4 164/4/4
f 279/2/2 193/2/2 92/2/2
f 193/2/2 274/2/2 256/2/2
f 299/5/5 104/5/5 297/5/5
f 294/4/4 290/4/4 157/4/4
f 157/4/4 306/4/4 302/4/4
f 302/4/4 306/4/4 134/4/4
f 142/4/4 134/4/4 288/4/4
f 30/4/4 298/4/4 288/4/4
f 215/5/5 203/5/5 104/5/5
f 304/6/6 199/6/6 250/6/6
f 199/6/6 51/6/6 247/6/6
f 241/6/6 180/6/6 247/6/6
f 155/6/6 216/6/6 180/6/6
f 101/4/4 200/4/4 243/4/4
f 290/4/4 243/4/4 200/4/4
f 157/4/4 200/4/4 29/4/4
f 29/4/4 181/4/4 306/4/4
f 181/4/4 25/4/4 134/4/4
f 25/4/4 8/4/4 124/4/4
f 25/4/4 288/4/4 134/4/4
f 35/4/4 288/4/4 124/4/4
f 56/6/6 225/6/6 199/6/6
f 199/6/6 225/6/6 76/6/6
f 51/6/6 76/6/6 242/6/6
f 72/4/4 200/4/4 101/4/4
f 155/6/6 241/6/6 242/6/6
f 72/4/4 137/4/4 34/4/4
f 200/4/4 34/4/4 29/4/4
f 138/4/4 281/4/4 181/4/4
f 34/4/4 181/4/4 29/4/4
f 93/4/4 25/4/4 181/4/4
f 8/4/4 25/4/4 93/4/4
f 95/6/6 229/6/6 225/6/6
f 229/6/6 80/6/6 76/6/6
f 80/6/6 217/6/6 242/6/6
f 217/6/6 108/6/6 235/6/6
f 226/4/4 34/4/4 137/4/4
f 34/4/4 226/4/4 63/4/4
f 150/7/7 123/7/7 188/7/7
f 283/7/8 116/7/8 188/7/8
f 283/7/7 113/7/7 22/7/7
f 303/6/6 207/6/6 229/6/6
f 207/6/6 60/6/6 80/6/6
f 145/6/6 273/6/6 217/6/6
f 60/6/6 217/6/6 80/6/6
f 108/6/6 217/6/6 273/6/6
f 148/7/7 123/7/7 150/7/7
f 240/3/3 202/3/3 165/3/3
f 148/7/7 230/7/7 283/7/7
f 113/7/7 283/7/7 230/7/7
f 165/3/3 202/3/3 48/3/3
f 221/3/3 136/3/3 16/3/3
f 249/6/6 207/6/6 303/6/6
f 263/6/6 60/6/6 207/6/6
f 145/6/6 60/6/6 263/6/6
f 240/3/3 53/3/3 158/3/3
f 158/3/3 9/3/3 48/3/3
f 48/3/3 9/3/3 144/3/3
f 57/3/3 158/3/3 53/3/3
f 37/3/3 9/3/3 158/3/3
f 254/3/3 144/3/3 9/3/3
f 168/8/9 41/8/9 244/8/9
f 68/1/10 110/1/10 179/1/10
f 46/1/11 143/1/11 59/1/11
f 110/1/10 59/1/10 179/1/10
f 208/1/10 59/1/10 143/1/10
f 185/8/9 286/8/9 168/8/9
f 206/1/11 7/1/11 110/1/11
f 220/1/10 110/1/10 68/1/10
f 46/1/11 110/1/11 7/1/11
f 206/1/10 220/1/10 218/1/10
f 211/9/12 289/9/12 102/9/12
f 18/9/12 102/9/12 289/9/12
f 125/9/12 289/9/12 132/9/12
f 18/9/12 125/9/12 182/9/12
f 43/9/12 50/9/12 130/9/12
f 132/9/12 130/9/12 125/9/12
f 182/9/12 125/9/12 130/9/12
f 64/9/12 130/9/12 50/9/12
f 64/9/12 259/9/12 91/9/12
f 61/8/13 167/8/13 244/8/13
f 61/8/13 75/8/13 185/8/13
f 52/1/1 59/1/1 208/1/1
f 301/1/1 179/1/1 59/1/1
f 17/10/14 291/10/14 172/10/14
f 227/10/14 292/10/14 17/10/14
f 227/10/14 77/10/14 111/10/14
f 111/10/14 77/10/14 204/10/14
f 118/10/14 160/10/14 172/10/14
f 118/10/15 201/10/15 260/10/15
f 160/10/14 260/10/14 227/10/14
f 260/10/14 105/10/14 77/10/14
f 204/10/14 77/10/14 105/10/14
f 261/2/16 69/2/16 73/2/16
f 201/10/14 23/10/14 133/10/14
f 133/10/14 122/10/14 248/10/14
f 260/10/14 248/10/14 105/10/14
f 105/10/14 248/10/14 195/10/14
f 231/1/1 238/1/1 232/1/1
f 85/1/1 233/1/1 232/1/1
f 270/11/17 264/11/17 192/11/17
f 192/11/17 264/11/17 100/11/17
f 86/11/17 100/11/17 265/11/17
f 173/11/17 62/11/17 131/11/17
f 264/11/17 270/11/17 173/11/17
f 264/11/17 4/11/17 159/11/17
f 264/11/17 159/11/17 24/11/17
f 178/11/17 278/11/17 265/11/17
f 178/11/17 100/11/17 24/11/17
f 278/11/17 178/11/17 65/11/17
f 293/11/17 36/11/17 4/11/17
f 4/11/17 36/11/17 190/11/17
f 159/11/17 190/11/17 31/11/17
f 31/11/17 154/11/17 178/11/17
f 65/11/17 178/11/17 154/11/17
f 189/11/17 36/11/17 293/11/17
f 189/11/17 89/11/17 190/11/17
f 89/11/17 6/11/17 31/11/17
f 107/11/17 154/11/17 31/11/17
f 15/11/17 154/11/17 107/11/17
f 277/5/18 215/5/18 299/5/18
f 277/5/18 14/5/18 99/5/18
f 156/5/18 45/5/18 14/5/18
f 40/5/18 99/5/18 14/5/18
f 187/5/18 14/5/18 45/5/18
f 84/5/18 269/5/18 40/5/18
f 198/5/18 45/5/18 156/5/18
f 198/5/18 115/5/18 187/5/18
f 115/5/18 268/5/18 84/5/18
f 117/12/19 205/12/19 162/12/19
f 162/12/19 129/12/19 67/12/19
f 12/13/20 197/13/20 186/13/20
f 186/13/20 197/13/20 267/13/20
f 39/13/20 296/13/20 153/13/20
f 197/13/20 12/13/20 153/13/20
f 197/13/20 296/13/20 141/13/20
f 19/13/20 267/13/20 197/13/20
f 3/13/20 38/13/20 119/13/20
f 39/13/20 119/13/20 38/13/20
f 296/13/20 38/13/20 176/13/20
f 176/13/20 54/13/20 295/13/20
f 176/13/20 141/13/20 296/13/20
f 19/13/20 141/13/20 295/13/20
f 166/13/21 184/13/21 38/13/21
f 38/13/20 184/13/20 21/13/20
f 176/13/20 21/13/20 196/13/20
f 27/13/20 237/13/20 184/13/20
f 305/13/20 21/13/20 184/13/20
f 21/13/20 305/13/20 20/13/20
f 71/1/22 85/1/22 55/1/22
f 55/1/22 282/1/22 220/1/22
f 272/1/22 218/1/22 220/1/22
f 97/9/23 289/9/23 211/9/23
f 26/9/23 132/9/23 289/9/23
f 11/9/23 43/9/23 132/9/23
f 140/2/24 73/2/24 69/2/24
f 2/2/24 69/2/24 109/2/24
f 140/2/24 2/2/24 83/2/24
f 10/10/25 248/10/25 122/10/25
f 195/10/25 248/10/25 10/10/25
f 112/1/22 210/1/22 238/1/22
f 238/1/22 210/1/22 55/1/22
f 194/2/24 2/2/24 109/2/24
f 83/2/24 2/2/24 194/2/24
f 152/1/22 128/1/22 210/1/22
f 210/1/22 128/1/22 282/1/22
f 135/1/22 266/1/22 128/1/22
f 272/1/22 282/1/22 128/1/22
f 1/14/26 5/14/26 66/14/26
f 66/14/26 5/14/26 191/14/26
f 236/14/26 191/14/26 47/14/26
f 209/14/26 47/14/26 149/14/26
f 262/9/23 82/9/23 285/9/23
f 285/9/23 82/9/23 257/9/23
f 257/9/23 97/9/23 88/9/23
f 1/14/26 106/14/26 255/14/26
f 255/14/26 81/14/26 191/14/26
f 81/14/26 245/14/26 47/14/26
f 149/14/26 47/14/26 245/14/26
f 262/9/23 139/9/23 96/9/23
f 96/9/23 147/9/23 175/9/23
f 82/9/23 175/9/23 257/9/23
f 257/9/23 175/9/23 26/9/23
f 106/14/26 127/14/26 251/14/26
f 255/14/26 251/14/26 79/14/26
f 79/14/26 114/14/26 13/14/26
f 79/14/26 245/14/26 81/14/26
f 275/14/26 245/14/26 13/14/26
f 177/9/23 175/9/23 147/9/23
f 11/9/23 26/9/23 175/9/23
f 127/14/26 213/14/26 224/14/26
f 224/14/26 223/14/26 103/14/26
f 251/14/26 103/14/26 79/14/26
f 103/14/26 49/14/26 114/14/26
f 161/12/27 146/12/27 78/12/27
f 78/12/27 146/12/27 174/12/27
f 32/14/26 103/14/26 223/14/26
f 49/14/26 103/14/26 32/14/26
f 161/12/27 287/12/27 70/12/27
f 280/12/27 174/12/27 146/12/27
f 222/12/27 146/12/27 70/12/27
f 126/12/27 98/12/27 280/12/27
f 271/12/27 120/12/27 70/12/27
f 120/12/27 44/12/27 212/12/27
f 120/12/27 222/12/27 70/12/27
f 126/12/27 222/12/27 212/12/27
f 117/12/27 214/12/27 120/12/27
f 120/12/27 214/12/27 67/12/27
f 85/1/1 179/1/1 233/1/1
f 256/2/2 69/2/2 300/2/2
f 274/2/2 171/2/2 256/2/2
f 221/3/3 144/3/3 169/3/3
f 58/4/4 258/4/4 219/4/4
f 42/4/4 258/4/4 28/4/4
f 94/2/2 239/2/2 228/2/2
f 94/2/2 228/2/2 163/2/2
f 163/2/2 92/2/2 300/2/2
f 151/4/4 284/4/4 294/4/4
f 58/4/4 121/4/4 151/4/4
f 258/4/4 58/4/4 142/4/4
f 258/4/4 298/4/4 90/4/4
f 298/4/4 30/4/4 164/4/4
f 228/2/2 279/2/2 92/2/2
f 92/2/2 193/2/2 256/2/2
f 156/5/5 299/5/5 297/5/5
f 151/4/4 294/4/4 157/4/4
f 151/4/4 157/4/4 302/4/4
f 142/4/4 302/4/4 134/4/4
f 298/4/4 142/4/4 288/4/4
f 35/4/4 30/4/4 288/4/4
f 299/5/5 215/5/5 104/5/5
f 252/6/6 304/6/6 250/6/6
f 250/6/6 199/6/6 247/6/6
f 51/6/6 241/6/6 247/6/6
f 241/6/6 155/6/6 180/6/6
f 157/4/4 290/4/4 200/4/4
f 157/4/4 29/4/4 306/4/4
f 306/4/4 181/4/4 134/4/4
f 288/4/4 25/4/4 124/4/4
f 304/6/6 56/6/6 199/6/6
f 51/6/6 199/6/6 76/6/6
f 241/6/6 51/6/6 242/6/6
f 235/6/6 155/6/6 242/6/6
f 200/4/4 72/4/4 34/4/4
f 34/4/4 138/4/4 181/4/4
f 281/4/4 93/4/4 181/4/4
f 56/6/6 95/6/6 225/6/6
f 225/6/6 229/6/6 76/6/6
f 76/6/6 80/6/6 242/6/6
f 242/6/6 217/6/6 235/6/6
f 138/4/4 34/4/4 63/4/4
f 123/7/7 283/7/7 188/7/7
f 116/7/8 283/7/8 22/7/8
f 95/6/6 303/6/6 229/6/6
f 229/6/6 207/6/6 80/6/6
f 60/6/6 145/6/6 217/6/6
f 123/7/7 148/7/7 283/7/7
f 16/3/3 165/3/3 48/3/3
f 48/3/3 221/3/3 16/3/3
f 249/6/6 263/6/6 207/6/6
f 202/3/3 240/3/3 158/3/3
f 202/3/3 158/3/3 48/3/3
f 221/3/3 48/3/3 144/3/3
f 57/3/3 37/3/3 158/3/3
f 37/3/3 254/3/3 9/3/3
f 167/8/9 168/8/9 244/8/9
f 71/1/11 68/1/11 179/1/11
f 110/1/10 46/1/10 59/1/10
f 167/8/9 185/8/9 168/8/9
f 220/1/10 206/1/10 110/1/10
f 125/9/12 18/9/12 289/9/12
f 132/9/12 43/9/12 130/9/12
f 91/9/12 182/9/12 130/9/12
f 130/9/12 64/9/12 91/9/12
f 167/8/28 61/8/28 185/8/28
f 52/1/1 301/1/1 59/1/1
f 160/10/14 17/10/14 172/10/14
f 160/10/14 227/10/14 17/10/14
f 292/10/14 227/10/14 111/10/14
f 160/10/14 118/10/14 260/10/14
f 227/10/14 260/10/14 77/10/14
f 183/10/14 204/10/14 105/10/14
f 260/10/14 201/10/14 133/10/14
f 260/10/15 133/10/15 248/10/15
f 183/10/14 105/10/14 195/10/14
f 238/1/1 85/1/1 232/1/1
f 86/11/17 192/11/17 100/11/17
f 4/11/17 173/11/17 131/11/17
f 4/11/17 264/11/17 173/11/17
f 100/11/17 264/11/17 24/11/17
f 100/11/17 178/11/17 265/11/17
f 276/11/17 278/11/17 65/11/17
f 131/11/17 293/11/17 4/11/17
f 159/11/17 4/11/17 190/11/17
f 24/11/17 159/11/17 31/11/17
f 24/11/17 31/11/17 178/11/17
f 15/11/17 65/11/17 154/11/17
f 36/11/17 189/11/17 190/11/17
f 190/11/17 89/11/17 31/11/17
f 6/11/17 107/11/17 31/11/17
f 14/5/18 277/5/18 299/5/18
f 299/5/18 156/5/18 14/5/18
f 187/5/18 40/5/18 14/5/18
f 187/5/18 84/5/18 40/5/18
f 33/5/18 198/5/18 156/5/18
f 45/5/18 198/5/18 187/5/18
f 187/5/18 115/5/18 84/5/18
f 214/12/19 117/12/19 162/12/19
f 214/12/19 162/12/19 67/12/19
f 170/13/20 186/13/20 267/13/20
f 296/13/20 197/13/20 153/13/20
f 141/13/20 19/13/20 197/13/20
f 296/13/20 39/13/20 38/13/20
f 141/13/20 176/13/20 295/13/20
f 3/13/20 166/13/20 38/13/20
f 176/13/20 38/13/20 21/13/20
f 54/13/20 176/13/20 196/13/20
f 166/13/21 27/13/21 184/13/21
f 237/13/20 305/13/20 184/13/20
f 196/13/20 21/13/20 20/13/20
f 68/1/22 71/1/22 55/1/22
f 68/1/22 55/1/22 220/1/22
f 282/1/22 272/1/22 220/1/22
f 88/9/23 97/9/23 211/9/23
f 97/9/23 26/9/23 289/9/23
f 26/9/23 11/9/23 132/9/23
f 2/2/24 140/2/24 69/2/24
f 231/1/22 112/1/22 238/1/22
f 85/1/22 238/1/22 55/1/22
f 171/2/24 194/2/24 109/2/24
f 112/1/22 152/1/22 210/1/22
f 55/1/22 210/1/22 282/1/22
f 152/1/22 135/1/22 128/1/22
f 266/1/22 272/1/22 128/1/22
f 236/14/26 66/14/26 191/14/26
f 209/14/26 236/14/26 47/14/26
f 74/9/23 285/9/23 257/9/23
f 74/9/23 257/9/23 88/9/23
f 5/14/26 1/14/26 255/14/26
f 5/14/26 255/14/26 191/14/26
f 191/14/26 81/14/26 47/14/26
f 275/14/26 149/14/26 245/14/26
f 82/9/23 262/9/23 96/9/23
f 82/9/23 96/9/23 175/9/23
f 97/9/23 257/9/23 26/9/23
f 255/14/26 106/14/26 251/14/26
f 81/14/26 255/14/26 79/14/26
f 245/14/26 79/14/26 13/14/26
f 177/9/23 11/9/23 175/9/23
f 251/14/26 127/14/26 224/14/26
f 251/14/26 224/14/26 103/14/26
f 79/14/26 103/14/26 114/14/26
f 146/12/27 161/12/27 70/12/27
f 222/12/27 280/12/27 146/12/27
f 222/12/27 126/12/27 280/12/27
f 287/12/27 271/12/27 70/12/27
f 222/12/27 120/12/27 212/12/27
f 271/12/27 117/12/27 120/12/27
f 44/12/27 120/12/27 67/12/27
