# Blender v2.74 (sub 0) OBJ File: 'explode.blend'
# www.blender.org
mtllib explode_000187.mtl
o Cube_Cube.001
v 0.565135 -2.515342 -1.165917
v -1.049544 -2.497097 -0.559689
v 0.499859 1.753592 -1.486061
v 2.833452 -0.746062 -0.665796
v 0.505617 -2.572429 -1.127666
v 0.091694 1.891122 -1.631316
v 0.448373 1.787782 3.431661
v -1.111853 1.192411 -2.893615
v -0.757328 0.490219 -1.588298
v -4.186667 -0.310893 0.032367
v 0.425462 -0.914134 3.379801
v 3.048859 -0.875150 -0.217021
v 0.306709 -2.679911 -0.733338
v -2.486212 4.920315 -1.969108
v -0.112259 2.004205 -1.463209
v -0.568703 0.412943 -1.769487
v -4.039087 0.031874 0.488260
v 0.399248 -0.675418 3.583520
v 2.893056 -0.710969 -0.095012
v 2.665625 -0.556972 -0.457189
v 2.587724 -0.474882 -0.396184
v -4.036816 -0.317574 0.387698
v 0.186005 1.900294 -1.375579
v -1.048366 1.257461 -2.895166
v 0.426206 -0.922091 3.470359
v 2.635823 -0.574519 -0.742581
v -1.026718 1.094472 -3.516607
v -0.794418 1.517660 -2.901368
v -1.190178 1.006347 -3.246510
v 0.123131 1.894179 -1.546070
v 0.477964 -2.404582 -0.488073
v -2.371148 4.617910 -1.916675
v -0.818743 1.545643 -2.723370
v -1.214502 1.034329 -3.068512
v 0.436984 1.747478 -1.656553
v -0.820202 0.515977 -1.527901
v 2.821427 -0.721153 -0.579197
v 2.941155 -0.810606 -0.441409
v -0.704978 2.704311 0.887483
v -2.438420 4.931627 -2.166365
v -0.963231 1.159522 -3.518158
v 0.539424 -0.772928 3.391275
v -2.404783 4.774769 -2.041520
v 0.431759 1.882941 3.516499
v 0.267545 -2.800778 -0.974663
v -0.631578 0.438702 -1.709091
v 0.405391 -2.501958 -0.530264
v 0.467849 -0.708256 3.306283
v 0.301559 1.993120 3.659662
v -0.618771 0.720581 -1.542303
v 2.785353 -0.646425 -0.319400
v 0.226710 1.632445 3.465072
v -0.727831 0.669552 -1.497238
v -0.848420 1.303613 -3.432260
v 0.387423 1.983047 3.687775
v -0.819127 2.663566 0.987998
v 0.641196 1.723032 -1.343190
v 0.396274 -0.643586 3.221292
v -0.894392 1.494584 -2.632821
v -0.049384 2.010320 -1.292718
v 0.492563 -2.612718 -1.208108
v 0.398438 1.612300 3.521299
v -0.940964 -2.273299 -0.494573
v 0.342995 1.622191 3.694175
v -0.679607 1.661751 -2.815470
v -0.974266 -2.308636 -0.571428
v 0.314474 -1.087172 3.730556
v -0.946114 2.663190 1.008076
v -4.099310 0.043295 0.118478
v 0.438800 -2.525449 -0.729398
v 0.412690 -2.606026 -0.890281
v 0.199769 -1.220419 3.628525
v -1.082846 -2.532434 -0.636544
v -2.394167 4.900897 -2.283096
v 0.171267 1.642337 3.637948
v 0.280317 1.909466 -1.119842
v -1.241503 0.927306 -3.333958
v 0.428436 -0.945966 3.742029
v 0.248620 1.817771 -1.686557
v -1.038880 1.108464 -3.427608
v 0.326186 -0.594830 3.317414
v -1.310720 -2.290539 -0.326428
v -1.060528 1.271452 -2.806167
v -1.453620 -2.146036 -0.330950
v 0.199026 -1.212461 3.537969
v 0.427692 -0.938008 3.651472
v -2.482673 4.962358 -2.049634
v 0.248880 1.906409 -1.205088
v -0.603958 1.712810 -2.906020
v 0.470822 -0.740089 3.668511
v 0.464909 -2.444871 -0.568515
v -2.574495 4.801575 -1.829719
v -4.098175 -0.131428 0.068197
v 0.591245 -2.434764 -1.005034
v -0.065233 1.964472 -1.576075
v -0.982941 -2.426422 -0.405979
v 0.420652 1.792727 3.518099
v -4.099878 0.130657 0.143619
v -0.030882 1.662663 3.380730
v 0.379282 -2.582535 -0.691147
v -2.356992 4.786081 -2.238777
v -4.037951 -0.142850 0.437979
v 2.887304 -0.778334 -0.553603
v -0.784933 1.368663 -3.433810
v -4.081841 -0.330848 0.104077
v -1.163177 1.113370 -2.981064
v 0.398504 -0.667460 3.492963
v 0.617354 -2.354187 -0.844150
v 0.110425 1.642699 3.235968
v 0.397017 -0.651543 3.311849
v 0.578322 1.716917 -1.513682
v 0.540167 -0.780886 3.481832
v -4.067211 -0.268182 0.215377
v -1.024042 1.229479 -3.073163
v 0.052283 1.647825 3.121416
v -0.661074 0.259369 -1.800150
v -0.755256 1.610693 -2.724921
v -0.882230 1.480593 -2.721820
v 0.142045 -1.283063 3.532232
v -1.028556 -2.420535 -0.603986
v -0.999717 1.201496 -3.251161
v 2.905081 -0.735878 -0.181612
v 0.415144 1.978101 3.601337
v -0.849699 0.336644 -1.618961
v 0.255263 -1.133900 3.453148
v 0.208027 -2.857865 -0.936412
v -0.745770 1.461695 -3.257363
v 0.024561 1.652771 3.207854
v -0.033795 1.967530 -1.490829
v 2.995007 -0.842878 -0.329215
v -2.411862 4.690683 -1.880469
v -0.770094 1.489678 -3.079365
v -0.664957 0.643793 -1.557635
v 0.342932 1.826943 -1.430820
v -4.038519 -0.055488 0.463119
v -1.289731 -2.213977 -0.370725
v -1.114529 1.057405 -3.337059
v -0.476332 0.566518 -1.738824
v 2.701699 -0.631700 -0.716986
v -0.759925 2.606158 0.949738
v -0.772763 2.646526 0.869301
v -0.770135 0.208340 -1.755085
v -1.003929 -2.502984 -0.361681
v 3.090685 -0.882512 -0.018228
v -4.023321 -0.080184 0.549280
v 0.531296 1.756650 -1.400816
v 0.312244 -1.063297 3.458885
v 2.797378 -0.671334 -0.405999
v 0.311500 -1.055339 3.368327
v 0.029079 1.973645 -1.320338
v 0.365209 1.802619 3.690975
v -0.921392 1.387561 -2.898267
v 0.327673 -0.610746 3.498528
v -4.113372 -0.106733 -0.017963
v 2.689674 -0.606791 -0.630387
v -0.827710 2.548373 0.931556
v 3.102710 -0.907421 -0.104827
v -2.397706 4.858854 -2.202571
v 0.405547 1.744420 -1.741798
v 0.280058 1.820828 -1.601312
v 0.386581 -2.686603 -1.051165
v 0.437243 1.836115 -1.175083
v -1.331708 -2.367100 -0.282131
v -1.070533 -2.573659 -0.515392
v -4.112237 -0.281456 -0.068244
v -0.667445 1.647760 -2.904469
v 3.036834 -0.850241 -0.130422
v -2.364069 4.701995 -2.077726
v -4.052581 -0.205516 0.326678
v 2.653601 -0.532063 -0.370590
v -0.539207 0.592276 -1.678428
v -2.615209 4.874348 -1.793513
v -4.114508 0.067991 0.032318
v 0.464988 1.692622 3.346823
v 0.398530 2.073261 3.686175
v 0.254490 -2.841066 -1.055104
v 0.054982 1.652591 3.408844
v 0.542397 -0.804760 3.753503
v 0.689927 -2.256811 -0.801960
v -2.534004 4.909002 -1.771851
v 0.481602 1.597462 3.261985
v -0.836257 1.289622 -3.521259
v 0.453881 1.602408 3.348423
v -0.723949 0.285127 -1.739754
v 0.524427 -2.387784 -0.606765
v 0.570891 -2.370986 -0.725458
v -0.830905 1.559634 -2.634372
v -4.068915 -0.006096 0.290799
v -1.474609 -2.222597 -0.286653
v -0.086325 1.672555 3.553606
v 0.010646 1.752697 3.580120
v 0.182374 1.732551 3.636348
v -0.895884 0.259857 -1.634293
v 0.373526 -2.726892 -1.131606
v -0.000461 1.662483 3.581720
v 2.623798 -0.549610 -0.655982
v -1.535565 -2.112065 -0.311062
v -0.493022 0.669064 -1.663096
v -0.655283 1.633769 -2.993468
v -0.692140 2.663944 0.967919
v 0.293654 -2.720200 -0.813780
v -1.556554 -2.188626 -0.266765
v -4.097038 -0.306152 0.017916
v 0.557836 -2.411274 -0.805900
v -0.657959 1.498763 -3.436912
v -0.912573 0.362402 -1.558565
v 0.531727 -2.491852 -0.966783
v -1.146830 -2.358480 -0.366203
v 0.313731 -1.079213 3.639999
v -0.975393 1.173514 -3.429159
v 0.325442 -0.586873 3.226856
v -4.067779 -0.180820 0.240518
v -1.022909 -2.239327 -0.474685
v 0.142788 -1.291021 3.622789
v 0.405806 1.833058 -1.260329
v 0.170416 1.943084 -1.177467
v 0.138147 1.637753 3.149530
v 0.484269 1.796383 -1.287949
v 3.024809 -0.825331 -0.043823
v -2.431343 5.015712 -2.327416
v -2.312738 4.755351 -2.355508
v 0.309874 1.617607 3.205757
v -1.167819 -2.435042 -0.321906
v 0.234136 -2.777287 -0.775529
v -0.017947 2.013377 -1.207472
v -2.526927 4.993088 -1.932902
v 0.060516 1.976702 -1.235092
v -1.495597 -2.299159 -0.242356
v -0.933554 1.401552 -2.809268
v 0.282153 1.622553 3.292195
v -0.733608 1.447704 -3.346362
v 0.200513 -1.228377 3.719083
v -0.908332 2.530955 0.832938
v -1.151015 1.099379 -3.070062
v 0.541654 -0.796803 3.662946
v -0.706607 1.554728 -3.080916
v -4.024457 0.094539 0.599561
v -4.069482 0.081265 0.315939
v 0.515447 1.710802 -1.684173
v -0.682283 1.526745 -3.258914
v -2.493067 4.656028 -1.902131
v -1.126691 1.071397 -3.248060
v 2.929131 -0.785697 -0.354810
v 2.839205 -0.678697 -0.207206
v -2.493290 4.836229 -1.808057
v -1.125842 -2.281919 -0.410500
v 0.279345 1.812692 3.662861
v -0.872744 1.331596 -3.254262
v 2.599749 -0.499791 -0.482783
v -0.897068 1.359578 -3.076264
vt 0.732400 0.500000
vt 0.670800 0.500000
vt 0.701600 0.500000
vt 0.855600 0.500000
vt 0.978800 0.500000
vt 0.886400 0.500000
vt 0.824800 0.500000
vt 0.794000 0.500000
vt 0.763200 0.500000
vt 0.948000 0.500000
vt 0.917200 0.500000
vn -0.304900 0.054400 0.950800
vn 0.366300 0.388700 0.845400
vn 0.513400 -0.454200 0.728100
vn 0.703100 -0.681400 0.203200
vn -0.038900 -0.462500 0.885800
vn 0.651200 -0.631500 -0.420900
vn 0.944500 -0.110800 0.309300
vn 0.944500 -0.110800 0.309200
vn 0.626800 0.776600 0.063100
vn 0.141200 -0.444000 0.884800
vn 0.985900 0.052100 -0.159000
vn 0.985900 0.052200 -0.159000
vn 0.230900 0.842200 -0.487300
vn 0.985900 0.052100 -0.158900
vn 0.368100 0.914400 -0.168500
vn 0.893300 0.381200 0.238300
vn 0.676300 0.727500 -0.115400
vn 0.676300 0.727500 -0.115300
vn -0.122200 -0.992400 0.017600
vn 0.779100 -0.623800 -0.061200
vn 0.901400 -0.373700 -0.218800
vn 0.006200 -0.961000 -0.276500
vn 0.742100 -0.639700 0.200000
usemtl Explode_Fade
s off
f 247/1/1 192/1/1 75/1/1
f 75/1/1 64/1/1 151/1/1
f 63/2/2 213/2/2 246/2/2
f 63/2/2 208/2/2 96/2/2
f 223/2/2 143/2/2 96/2/2
f 116/3/3 184/3/3 142/3/3
f 184/3/3 124/3/3 193/3/3
f 193/3/3 124/3/3 206/3/3
f 104/4/4 54/4/4 182/4/4
f 210/4/4 41/4/4 182/4/4
f 210/4/4 80/4/4 27/4/4
f 202/2/2 189/2/2 84/2/2
f 82/2/2 136/2/2 84/2/2
f 208/2/2 246/2/2 136/2/2
f 32/5/5 131/5/5 241/5/5
f 231/4/4 205/4/4 240/4/4
f 54/4/4 104/4/4 231/4/4
f 54/4/4 127/4/4 248/4/4
f 54/4/4 248/4/4 121/4/4
f 242/4/4 137/4/4 80/4/4
f 228/2/2 189/2/2 202/2/2
f 242/4/4 210/4/4 121/4/4
f 29/4/4 77/4/4 137/4/4
f 228/2/2 163/2/2 82/2/2
f 223/2/2 208/2/2 82/2/2
f 131/5/5 245/5/5 92/5/5
f 240/4/4 236/4/4 132/4/4
f 132/4/4 250/4/4 248/4/4
f 250/4/4 114/4/4 121/4/4
f 114/4/4 234/4/4 242/4/4
f 29/4/4 242/4/4 234/4/4
f 180/5/5 172/5/5 92/5/5
f 89/4/4 166/4/4 199/4/4
f 236/4/4 199/4/4 166/4/4
f 132/4/4 166/4/4 28/4/4
f 132/4/4 28/4/4 152/4/4
f 152/4/4 24/4/4 114/4/4
f 8/4/4 106/4/4 234/4/4
f 24/4/4 234/4/4 114/4/4
f 34/4/4 234/4/4 106/4/4
f 65/4/4 166/4/4 89/4/4
f 166/4/4 65/4/4 117/4/4
f 166/4/4 33/4/4 28/4/4
f 33/4/4 118/4/4 229/4/4
f 33/4/4 152/4/4 28/4/4
f 83/4/4 24/4/4 152/4/4
f 8/4/4 24/4/4 83/4/4
f 187/4/4 33/4/4 117/4/4
f 187/4/4 59/4/4 118/4/4
f 198/3/3 171/3/3 138/3/3
f 16/3/3 138/3/3 171/3/3
f 46/3/3 184/3/3 116/3/3
f 198/3/3 50/3/3 133/3/3
f 171/3/3 133/3/3 9/3/3
f 46/3/3 9/3/3 124/3/3
f 53/3/3 133/3/3 50/3/3
f 53/3/3 36/3/3 9/3/3
f 206/3/3 124/3/3 9/3/3
f 140/6/6 141/6/6 39/6/6
f 62/1/7 97/1/7 151/1/7
f 44/1/7 123/1/7 55/1/7
f 97/1/7 55/1/7 151/1/7
f 175/1/7 55/1/7 123/1/7
f 156/6/6 233/6/6 141/6/6
f 174/1/8 7/1/8 97/1/8
f 183/1/7 97/1/7 62/1/7
f 44/1/8 97/1/8 7/1/8
f 174/1/7 183/1/7 181/1/7
f 178/7/9 235/7/9 90/7/9
f 107/7/9 18/7/9 90/7/9
f 107/7/9 235/7/9 112/7/9
f 18/7/9 107/7/9 153/7/9
f 42/7/9 48/7/9 110/7/9
f 112/7/9 110/7/9 107/7/9
f 153/7/9 107/7/9 110/7/9
f 58/7/9 110/7/9 48/7/9
f 58/7/9 211/7/9 81/7/9
f 56/6/10 140/6/10 200/6/10
f 56/6/10 68/6/10 156/6/10
f 49/1/1 55/1/1 175/1/1
f 49/1/1 247/1/1 151/1/1
f 17/8/11 237/8/11 145/8/11
f 135/8/12 188/8/12 238/8/12
f 188/8/11 69/8/11 98/8/11
f 98/8/12 69/8/12 173/8/12
f 102/8/12 135/8/12 145/8/12
f 102/8/12 169/8/12 212/8/12
f 135/8/11 212/8/11 188/8/11
f 188/8/11 212/8/11 93/8/11
f 173/8/12 69/8/12 93/8/12
f 213/2/13 63/2/13 66/2/13
f 169/8/11 22/8/11 113/8/11
f 113/8/14 105/8/14 203/8/14
f 212/8/12 203/8/12 93/8/12
f 93/8/12 203/8/12 165/8/12
f 190/1/1 195/1/1 191/1/1
f 195/1/1 75/1/1 192/1/1
f 218/9/15 215/9/15 162/9/15
f 162/9/15 215/9/15 88/9/15
f 76/9/15 88/9/15 216/9/15
f 146/9/15 57/9/15 111/9/15
f 215/9/15 218/9/15 146/9/15
f 215/9/15 3/9/15 134/9/15
f 134/9/15 23/9/15 88/9/15
f 150/9/15 227/9/15 216/9/15
f 150/9/15 88/9/15 23/9/15
f 150/9/15 60/9/15 225/9/15
f 111/9/15 239/9/15 35/9/15
f 35/9/15 160/9/15 134/9/15
f 134/9/15 160/9/15 30/9/15
f 30/9/15 129/9/15 150/9/15
f 15/9/15 60/9/15 150/9/15
f 159/9/15 35/9/15 239/9/15
f 79/9/15 160/9/15 35/9/15
f 79/9/15 6/9/15 30/9/15
f 95/9/15 129/9/15 30/9/15
f 15/9/15 129/9/15 95/9/15
f 180/5/16 245/5/16 14/5/16
f 226/5/16 14/5/16 87/5/16
f 131/5/16 43/5/16 14/5/16
f 40/5/16 87/5/16 14/5/16
f 158/5/16 14/5/16 43/5/16
f 74/5/16 220/5/16 40/5/16
f 168/5/16 43/5/16 131/5/16
f 101/5/16 158/5/16 43/5/16
f 101/5/16 221/5/16 74/5/16
f 12/10/17 167/10/17 157/10/17
f 167/10/17 219/10/17 144/10/17
f 38/10/17 243/10/17 130/10/17
f 12/10/17 130/10/17 243/10/17
f 167/10/17 243/10/17 122/10/17
f 219/10/17 167/10/17 122/10/17
f 4/10/17 37/10/17 103/10/17
f 38/10/17 103/10/17 37/10/17
f 243/10/17 37/10/17 148/10/17
f 51/10/18 244/10/18 122/10/18
f 148/10/17 122/10/17 243/10/17
f 19/10/17 122/10/17 244/10/17
f 139/10/17 155/10/17 37/10/17
f 37/10/17 155/10/17 20/10/17
f 20/10/17 170/10/17 51/10/17
f 139/10/17 26/10/17 196/10/17
f 249/10/17 20/10/17 155/10/17
f 20/10/17 249/10/17 21/10/17
f 64/1/19 75/1/19 52/1/19
f 52/1/19 230/1/19 183/1/19
f 181/1/19 183/1/19 230/1/19
f 235/7/20 178/7/20 78/7/20
f 25/7/20 112/7/20 235/7/20
f 11/7/20 42/7/20 112/7/20
f 120/2/21 66/2/21 63/2/21
f 2/2/21 63/2/21 96/2/21
f 120/2/21 2/2/21 73/2/21
f 10/8/22 203/8/22 105/8/22
f 165/8/22 203/8/22 10/8/22
f 190/1/19 99/1/19 177/1/19
f 177/1/19 52/1/19 75/1/19
f 164/2/21 2/2/21 96/2/21
f 73/2/21 2/2/21 164/2/21
f 99/1/19 128/1/19 109/1/19
f 177/1/19 109/1/19 230/1/19
f 115/1/19 217/1/19 109/1/19
f 217/1/19 222/1/19 230/1/19
f 1/11/23 5/11/23 61/11/23
f 194/11/23 61/11/23 5/11/23
f 176/11/23 194/11/23 161/11/23
f 176/11/23 45/11/23 126/11/23
f 214/7/20 72/7/20 232/7/20
f 67/7/20 232/7/20 72/7/20
f 86/7/20 78/7/20 67/7/20
f 94/11/23 207/11/23 5/11/23
f 5/11/23 207/11/23 71/11/23
f 71/11/23 201/11/23 45/11/23
f 224/11/23 126/11/23 45/11/23
f 119/7/20 85/7/20 72/7/20
f 85/7/20 125/7/20 147/7/20
f 72/7/20 147/7/20 209/7/20
f 147/7/20 25/7/20 86/7/20
f 94/11/23 108/11/23 204/11/23
f 207/11/23 204/11/23 70/11/23
f 70/11/23 100/11/23 13/11/23
f 70/11/23 201/11/23 71/11/23
f 224/11/23 201/11/23 13/11/23
f 149/7/20 147/7/20 125/7/20
f 11/7/20 25/7/20 147/7/20
f 108/11/23 179/11/23 186/11/23
f 186/11/23 185/11/23 91/11/23
f 204/11/23 91/11/23 70/11/23
f 91/11/23 47/11/23 100/11/23
f 31/11/23 91/11/23 185/11/23
f 47/11/23 91/11/23 31/11/23
f 151/1/1 247/1/1 75/1/1
f 208/2/2 63/2/2 246/2/2
f 208/2/2 223/2/2 96/2/2
f 142/3/3 184/3/3 193/3/3
f 54/4/4 210/4/4 182/4/4
f 41/4/4 210/4/4 27/4/4
f 197/2/2 202/2/2 84/2/2
f 189/2/2 82/2/2 84/2/2
f 82/2/2 208/2/2 136/2/2
f 127/4/4 231/4/4 240/4/4
f 127/4/4 54/4/4 231/4/4
f 210/4/4 54/4/4 121/4/4
f 210/4/4 242/4/4 80/4/4
f 242/4/4 29/4/4 137/4/4
f 189/2/2 228/2/2 82/2/2
f 163/2/2 223/2/2 82/2/2
f 241/5/5 131/5/5 92/5/5
f 127/4/4 240/4/4 132/4/4
f 127/4/4 132/4/4 248/4/4
f 248/4/4 250/4/4 121/4/4
f 121/4/4 114/4/4 242/4/4
f 34/4/4 29/4/4 234/4/4
f 245/5/5 180/5/5 92/5/5
f 132/4/4 236/4/4 166/4/4
f 250/4/4 132/4/4 152/4/4
f 250/4/4 152/4/4 114/4/4
f 24/4/4 8/4/4 234/4/4
f 33/4/4 166/4/4 117/4/4
f 152/4/4 33/4/4 229/4/4
f 229/4/4 83/4/4 152/4/4
f 33/4/4 187/4/4 118/4/4
f 46/3/3 16/3/3 171/3/3
f 16/3/3 46/3/3 116/3/3
f 171/3/3 198/3/3 133/3/3
f 46/3/3 171/3/3 9/3/3
f 184/3/3 46/3/3 124/3/3
f 133/3/3 53/3/3 9/3/3
f 36/3/3 206/3/3 9/3/3
f 200/6/6 140/6/6 39/6/6
f 64/1/7 62/1/7 151/1/7
f 97/1/7 44/1/7 55/1/7
f 140/6/6 156/6/6 141/6/6
f 183/1/7 174/1/7 97/1/7
f 235/7/9 107/7/9 90/7/9
f 112/7/9 42/7/9 110/7/9
f 81/7/9 153/7/9 110/7/9
f 110/7/9 58/7/9 81/7/9
f 140/6/10 56/6/10 156/6/10
f 55/1/1 49/1/1 151/1/1
f 135/8/12 17/8/12 145/8/12
f 17/8/11 135/8/11 238/8/11
f 238/8/12 188/8/12 98/8/12
f 135/8/12 102/8/12 212/8/12
f 69/8/12 188/8/12 93/8/12
f 154/8/11 173/8/11 93/8/11
f 212/8/11 169/8/11 113/8/11
f 212/8/12 113/8/12 203/8/12
f 154/8/11 93/8/11 165/8/11
f 191/1/1 195/1/1 192/1/1
f 76/9/15 162/9/15 88/9/15
f 3/9/15 146/9/15 111/9/15
f 3/9/15 215/9/15 146/9/15
f 215/9/15 134/9/15 88/9/15
f 88/9/15 150/9/15 216/9/15
f 227/9/15 150/9/15 225/9/15
f 3/9/15 111/9/15 35/9/15
f 3/9/15 35/9/15 134/9/15
f 23/9/15 134/9/15 30/9/15
f 23/9/15 30/9/15 150/9/15
f 129/9/15 15/9/15 150/9/15
f 159/9/15 79/9/15 35/9/15
f 160/9/15 79/9/15 30/9/15
f 6/9/15 95/9/15 30/9/15
f 226/5/16 180/5/16 14/5/16
f 245/5/16 131/5/16 14/5/16
f 158/5/16 40/5/16 14/5/16
f 158/5/16 74/5/16 40/5/16
f 32/5/16 168/5/16 131/5/16
f 168/5/16 101/5/16 43/5/16
f 158/5/16 101/5/16 74/5/16
f 157/10/17 167/10/17 144/10/17
f 167/10/17 12/10/17 243/10/17
f 19/10/17 219/10/17 122/10/17
f 243/10/17 38/10/17 37/10/17
f 148/10/17 51/10/17 122/10/17
f 4/10/17 139/10/17 37/10/17
f 148/10/17 37/10/17 20/10/17
f 148/10/17 20/10/17 51/10/17
f 155/10/17 139/10/17 196/10/17
f 196/10/17 249/10/17 155/10/17
f 170/10/17 20/10/17 21/10/17
f 62/1/19 64/1/19 52/1/19
f 62/1/19 52/1/19 183/1/19
f 222/1/19 181/1/19 230/1/19
f 86/7/20 235/7/20 78/7/20
f 86/7/20 25/7/20 235/7/20
f 25/7/20 11/7/20 112/7/20
f 2/2/21 120/2/21 63/2/21
f 195/1/19 190/1/19 177/1/19
f 195/1/19 177/1/19 75/1/19
f 143/2/21 164/2/21 96/2/21
f 177/1/19 99/1/19 109/1/19
f 52/1/19 177/1/19 230/1/19
f 128/1/19 115/1/19 109/1/19
f 109/1/19 217/1/19 230/1/19
f 161/11/23 194/11/23 5/11/23
f 45/11/23 176/11/23 161/11/23
f 209/7/20 67/7/20 72/7/20
f 209/7/20 86/7/20 67/7/20
f 1/11/23 94/11/23 5/11/23
f 161/11/23 5/11/23 71/11/23
f 161/11/23 71/11/23 45/11/23
f 201/11/23 224/11/23 45/11/23
f 214/7/20 119/7/20 72/7/20
f 72/7/20 85/7/20 147/7/20
f 209/7/20 147/7/20 86/7/20
f 207/11/23 94/11/23 204/11/23
f 71/11/23 207/11/23 70/11/23
f 201/11/23 70/11/23 13/11/23
f 149/7/20 11/7/20 147/7/20
f 204/11/23 108/11/23 186/11/23
f 204/11/23 186/11/23 91/11/23
f 70/11/23 91/11/23 100/11/23
