# Blender v2.74 (sub 0) OBJ File: 'explode.blend'
# www.blender.org
mtllib explode_000182.mtl
o Cube_Cube.001
v 0.552613 -2.232001 -1.078279
v -0.983700 -2.142798 -0.547919
v 0.467088 1.746719 -1.342688
v 2.661436 -0.538790 -0.690959
v 0.493094 -2.289088 -1.040029
v 0.058924 1.884249 -1.487943
v 0.301157 1.617339 3.128330
v -1.039692 1.088538 -2.642403
v -0.597592 0.433850 -1.472214
v -3.793700 -0.278885 0.041014
v 0.390742 -0.763530 3.109165
v 2.876843 -0.667878 -0.242184
v 0.294186 -2.396570 -0.645700
v -2.341227 4.611502 -1.862906
v -0.145029 1.997332 -1.319835
v -0.408967 0.356575 -1.653403
v -3.646120 0.063882 0.496907
v 0.364527 -0.524815 3.312883
v 2.721041 -0.503697 -0.120175
v 2.415709 -0.267610 -0.421347
v 2.493610 -0.349700 -0.482351
v -0.366123 -0.325620 -0.418642
v -3.643849 -0.285566 0.396345
v 0.153235 1.893421 -1.232206
v -0.976205 1.153587 -2.643954
v 0.391485 -0.771488 3.199722
v 2.463808 -0.367247 -0.767743
v -0.954557 0.990599 -3.265394
v -0.722257 1.413787 -2.650156
v -1.118017 0.902473 -2.995297
v 0.090361 1.887306 -1.402697
v 0.465441 -2.121241 -0.400435
v -2.226161 4.309096 -1.810473
v -0.746582 1.441769 -2.472158
v -1.142341 0.930455 -2.817300
v 0.404214 1.740605 -1.513179
v -0.660466 0.459609 -1.411817
v 2.649412 -0.513881 -0.604360
v 2.769140 -0.603334 -0.466571
v -0.701515 2.650649 0.870185
v -2.293434 4.622813 -2.060163
v -0.891070 1.055649 -3.266946
v 0.504703 -0.622325 3.120638
v -0.912996 -2.088454 0.933629
v -2.259798 4.465955 -1.935318
v 0.284542 1.712498 3.213167
v 0.255022 -2.517436 -0.887025
v -0.471842 0.382333 -1.593006
v 0.392868 -2.218616 -0.442626
v 0.433128 -0.557653 3.035647
v 0.154342 1.822677 3.356330
v -0.459035 0.664212 -1.426219
v 2.613338 -0.439153 -0.344562
v 0.079494 1.462002 3.161740
v -0.568095 0.613183 -1.381154
v -0.776259 1.199740 -3.181047
v 0.240206 1.812604 3.384443
v -0.815664 2.609904 0.970700
v 0.608426 1.716159 -1.199817
v -0.822231 1.390711 -2.381608
v 0.361554 -0.492982 2.950656
v -0.082154 2.003447 -1.149344
v 0.480040 -2.329376 -1.120470
v 0.251222 1.441857 3.217967
v -0.995384 -2.223508 1.023242
v -0.875119 -1.919000 -0.482802
v -0.788620 -1.928193 0.920607
v 0.195779 1.451749 3.390843
v -0.607446 1.557878 -2.564258
v -0.908421 -1.954337 -0.559658
v 0.279754 -0.936568 3.459920
v -0.942651 2.609528 0.990778
v -3.706344 0.075303 0.127126
v -0.665038 -1.725612 0.786187
v 0.426277 -2.242107 -0.641760
v 0.400168 -2.322684 -0.802644
v 0.165049 -1.069815 3.357889
v -1.017002 -2.178136 -0.624774
v -2.249181 4.592083 -2.176894
v 0.024051 1.471894 3.334616
v 0.247547 1.902593 -0.976469
v -1.169342 0.823432 -3.082746
v 0.393716 -0.795363 3.471393
v 0.215850 1.810898 -1.543184
v -0.966719 1.004590 -3.176396
v 0.291466 -0.444227 3.046778
v -1.244875 -1.936240 -0.314658
v -0.988367 1.167579 -2.554955
v -1.387776 -1.791737 -0.319180
v 0.164305 -1.061857 3.267332
v 0.392972 -0.787404 3.380836
v -0.915375 -1.961494 0.569437
v -2.337687 4.653543 -1.943431
v 0.216110 1.899536 -1.061714
v -0.531797 1.608936 -2.654808
v 0.436102 -0.589485 3.397876
v 0.452386 -2.161530 -0.480877
v -2.429509 4.492761 -1.723517
v -3.705208 -0.099420 0.076845
v 0.578722 -2.151423 -0.917396
v -0.098003 1.957599 -1.432702
v -0.917096 -2.072124 -0.394208
v 0.273435 1.622284 3.214767
v -3.706911 0.162665 0.152266
v -0.178098 1.492220 3.077399
v -0.411007 -0.404236 -0.426967
v 0.366759 -2.299194 -0.603510
v -2.212006 4.477267 -2.132575
v -0.442697 -0.284766 -0.391591
v -3.644984 -0.110842 0.446626
v -0.911409 -2.173094 1.176424
v 2.715288 -0.571062 -0.578765
v -0.871008 -2.063247 1.010220
v -0.712772 1.264789 -3.182598
v -3.688874 -0.298840 0.112724
v -0.640731 -0.281674 -0.345814
v -1.091017 1.009497 -2.729851
v 0.363784 -0.516856 3.222327
v -0.914582 -2.003814 0.690834
v 0.604831 -2.070846 -0.756513
v -0.036791 1.472256 2.932636
v 0.362297 -0.500940 3.041213
v 0.545552 1.710044 -1.370308
v -1.064699 -2.168107 1.043008
v 0.505447 -0.630283 3.211196
v -3.674245 -0.236174 0.224025
v -0.951881 1.125605 -2.821951
v -0.094934 1.477383 2.818085
v -0.501338 0.203000 -1.684066
v -0.683095 1.506819 -2.473709
v -0.810069 1.376719 -2.470608
v 0.107325 -1.132460 3.261596
v -0.962711 -2.066236 -0.592216
v -0.927557 1.097622 -2.999949
v 2.733066 -0.528606 -0.206774
v 0.267928 1.807658 3.298006
v -0.689963 0.280275 -1.502877
v -0.706232 -1.793139 0.830994
v 0.220543 -0.983296 3.182512
v -0.685615 -0.360290 -0.354139
v 0.195504 -2.574523 -0.848775
v -0.717305 -0.240820 -0.318763
v -0.673609 1.357822 -3.006151
v -0.122655 1.482328 2.904522
v -0.066566 1.960657 -1.347456
v 2.822992 -0.635606 -0.354377
v -2.266876 4.381869 -1.774267
v -0.697933 1.385804 -2.828153
v -0.505221 0.587425 -1.441550
v 0.310162 1.820070 -1.287447
v -3.645552 -0.023480 0.471767
v -0.664245 -1.767932 0.907584
v -1.223886 -1.859679 -0.358955
v -1.022712 -2.142900 1.119599
v -1.042368 0.953532 -3.085847
v -0.316597 0.510150 -1.622740
v 2.529684 -0.424428 -0.742148
v -0.756462 2.552496 0.932440
v -0.769300 2.592864 0.852003
v -0.610399 0.151971 -1.639001
v -0.938085 -2.148685 -0.349911
v 2.918670 -0.675241 -0.043391
v -3.630354 -0.048176 0.557927
v 0.498526 1.749777 -1.257442
v -0.748219 -1.818347 0.754403
v 0.277524 -0.912694 3.188249
v 2.625362 -0.464062 -0.431161
v 0.276780 -0.904736 3.097692
v -0.003691 1.966772 -1.176965
v 0.217993 1.632176 3.387643
v -0.849231 1.283687 -2.647055
v 0.292952 -0.460143 3.227892
v -3.720406 -0.074724 -0.009316
v 2.517659 -0.399519 -0.655549
v -0.824246 2.494710 0.914258
v 2.930695 -0.700150 -0.129990
v -2.252720 4.550040 -2.096368
v -0.595846 -0.203058 -0.337489
v 0.372777 1.737547 -1.598425
v 0.247287 1.813955 -1.457938
v 0.374058 -2.403262 -0.963527
v 0.404473 1.829242 -1.031710
v -1.265864 -2.012802 -0.270361
v -1.004689 -2.219360 -0.503621
v -3.719270 -0.249448 -0.059597
v 2.481585 -0.324791 -0.395752
v -0.595284 1.543886 -2.653256
v 2.864818 -0.642969 -0.155584
v -2.219084 4.393182 -1.971524
v -3.659615 -0.173508 0.335326
v -0.379471 0.535908 -1.562343
v -2.470224 4.565534 -1.687311
v -3.721542 0.099999 0.040965
v 0.317771 1.522179 3.043491
v -0.980724 -2.117693 1.196190
v 0.251313 1.902818 3.382843
v 0.241967 -2.557725 -0.967467
v -0.092234 1.482148 3.105513
v 0.507677 -0.654157 3.482867
v -0.913789 -2.046134 0.812232
v 0.677404 -1.973470 -0.714322
v -2.389018 4.600189 -1.665649
v -0.953397 -2.198301 1.099833
v 0.334386 1.427019 2.958654
v -0.764096 1.185748 -3.270046
v 0.306664 1.431965 3.045091
v -0.564213 0.228759 -1.623670
v -0.872595 -1.978607 0.767425
v 0.511904 -2.104443 -0.519128
v 0.558368 -2.087644 -0.637820
v -0.758744 1.455760 -2.383159
v -3.675948 0.025912 0.299446
v -1.408764 -1.868299 -0.274882
v -0.532466 -0.441999 -0.408241
v -0.233541 1.502113 3.250275
v -0.136570 1.582254 3.276788
v 0.035158 1.562108 3.333016
v -0.736148 0.203488 -1.518208
v 0.361004 -2.443551 -1.043969
v 2.451783 -0.342337 -0.681144
v -0.147677 1.492040 3.278389
v -1.469720 -1.757766 -0.299292
v -0.333286 0.612695 -1.547012
v -0.583122 1.529895 -2.742255
v -0.688677 2.610281 0.950622
v 0.281131 -2.436858 -0.726142
v -1.490709 -1.834328 -0.254995
v -3.704072 -0.274144 0.026564
v 0.545313 -2.127933 -0.718262
v -0.585798 1.394889 -3.185699
v -0.752837 0.306034 -1.442480
v 0.519204 -2.208511 -0.879145
v -1.080986 -2.004182 -0.354433
v 0.279011 -0.928610 3.369363
v -0.903232 1.069640 -3.177947
v 0.290722 -0.436269 2.956221
v -3.674812 -0.148812 0.249165
v -0.957064 -1.885029 -0.462915
v 0.108068 -1.140418 3.352153
v 0.373036 1.826185 -1.116955
v 0.137646 1.936211 -1.034094
v -0.009070 1.467310 2.846198
v 0.451499 1.789510 -1.144576
v 2.852794 -0.618059 -0.068985
v -2.286357 4.706899 -2.221213
v -2.167752 4.446536 -2.249306
v -0.829021 -2.038040 1.086811
v 0.162658 1.447164 2.902426
v -1.101974 -2.080744 -0.310136
v 0.221613 -2.493946 -0.687891
v -0.050717 2.006505 -1.064098
v -2.381941 4.684275 -1.826700
v 0.027746 1.969829 -1.091719
v -1.429753 -1.944861 -0.230585
v -0.831401 -1.911080 0.722619
v -0.861393 1.297678 -2.558056
v 0.134936 1.452110 2.988863
v -0.487582 -0.363382 -0.399916
v -0.661447 1.343830 -3.095150
v 0.165792 -1.077774 3.448447
v -0.904869 2.477293 0.815640
v -0.746633 -1.902986 0.997198
v -1.078855 0.995505 -2.818851
v 0.506934 -0.646199 3.392310
v -0.634447 1.450854 -2.829704
v -3.631490 0.126548 0.608208
v -3.676516 0.113274 0.324587
v 0.482677 1.703929 -1.540799
v -0.610122 1.422871 -3.007702
v 2.667189 -0.471425 -0.232369
v -2.348081 4.347215 -1.795929
v -1.054530 0.967523 -2.996848
v 2.757115 -0.578425 -0.379972
v -2.348304 4.527416 -1.701855
v -1.059997 -1.927620 -0.398730
v 0.132128 1.642249 3.359529
v -0.800583 1.227722 -3.003050
v 2.427733 -0.292519 -0.507946
v -0.824907 1.255705 -2.825052
vt 0.632400 0.500000
vt 0.570800 0.500000
vt 0.601600 0.500000
vt 0.755600 0.500000
vt 0.878800 0.500000
vt 0.971200 0.500000
vt 0.786400 0.500000
vt 0.724800 0.500000
vt 0.694000 0.500000
vt 0.663200 0.500000
vt 0.940400 0.500000
vt 0.848000 0.500000
vt 0.817200 0.500000
vn -0.304900 0.054400 0.950800
vn 0.366300 0.388700 0.845400
vn 0.513400 -0.454200 0.728100
vn 0.703100 -0.681400 0.203200
vn -0.038900 -0.462500 0.885800
vn 0.216200 -0.224100 0.950300
vn 0.216200 -0.224000 0.950300
vn 0.651200 -0.631500 -0.420900
vn 0.944500 -0.110800 0.309300
vn 0.944500 -0.110800 0.309200
vn 0.626800 0.776600 0.063100
vn 0.141200 -0.444000 0.884800
vn 0.985900 0.052200 -0.159000
vn 0.985900 0.052100 -0.159000
vn 0.230900 0.842200 -0.487300
vn 0.368100 0.914400 -0.168500
vn 0.893300 0.381200 0.238300
vn -0.453100 -0.742800 0.492900
vn 0.676300 0.727500 -0.115400
vn -0.122200 -0.992400 0.017600
vn 0.779100 -0.623800 -0.061200
vn 0.901400 -0.373700 -0.218800
vn 0.006200 -0.961000 -0.276500
vn 0.742100 -0.639700 0.200000
vn 0.762500 -0.609400 -0.217400
usemtl Explode_Fade
s off
f 276/1/1 217/1/1 80/1/1
f 80/1/1 68/1/1 170/1/1
f 238/2/2 275/2/2 233/2/2
f 66/2/2 233/2/2 102/2/2
f 161/2/2 102/2/2 233/2/2
f 129/3/3 207/3/3 160/3/3
f 207/3/3 137/3/3 218/3/3
f 218/3/3 137/3/3 231/3/3
f 114/4/4 56/4/4 205/4/4
f 235/4/4 42/4/4 205/4/4
f 235/4/4 85/4/4 28/4/4
f 227/2/2 213/2/2 89/2/2
f 213/2/2 87/2/2 153/2/2
f 87/2/2 233/2/2 275/2/2
f 33/5/5 147/5/5 271/5/5
f 259/4/4 230/4/4 269/4/4
f 114/4/4 259/4/4 143/4/4
f 56/4/4 143/4/4 277/4/4
f 277/4/4 134/4/4 235/4/4
f 272/4/4 155/4/4 85/4/4
f 254/2/2 213/2/2 227/2/2
f 272/4/4 235/4/4 134/4/4
f 30/4/4 82/4/4 155/4/4
f 183/2/2 87/2/2 213/2/2
f 249/2/2 233/2/2 87/2/2
f 147/5/5 274/5/5 98/5/5
f 269/4/4 265/4/4 148/4/4
f 148/4/4 279/4/4 277/4/4
f 277/4/4 279/4/4 127/4/4
f 134/4/4 127/4/4 263/4/4
f 30/4/4 272/4/4 263/4/4
f 274/5/5 202/5/5 192/5/5
f 95/4/4 187/4/4 224/4/4
f 148/4/4 265/4/4 224/4/4
f 148/4/4 187/4/4 29/4/4
f 148/4/4 29/4/4 171/4/4
f 279/4/4 171/4/4 25/4/4
f 25/4/4 8/4/4 117/4/4
f 25/4/4 263/4/4 127/4/4
f 35/4/4 263/4/4 117/4/4
f 69/4/4 187/4/4 95/4/4
f 187/4/4 69/4/4 130/4/4
f 187/4/4 34/4/4 29/4/4
f 131/4/4 256/4/4 171/4/4
f 34/4/4 171/4/4 29/4/4
f 88/4/4 25/4/4 171/4/4
f 8/4/4 25/4/4 88/4/4
f 211/4/4 34/4/4 130/4/4
f 34/4/4 211/4/4 60/4/4
f 142/6/6 116/6/6 178/6/6
f 258/6/7 109/6/7 178/6/7
f 109/6/7 258/6/7 106/6/7
f 140/6/7 116/6/7 142/6/7
f 223/3/3 191/3/3 156/3/3
f 214/6/7 258/6/7 116/6/7
f 106/6/7 258/6/7 214/6/7
f 156/3/3 191/3/3 48/3/3
f 48/3/3 207/3/3 129/3/3
f 223/3/3 52/3/3 149/3/3
f 191/3/3 149/3/3 9/3/3
f 9/3/3 137/3/3 207/3/3
f 55/3/3 149/3/3 52/3/3
f 55/3/3 37/3/3 9/3/3
f 231/3/3 137/3/3 9/3/3
f 159/7/8 40/7/8 225/7/8
f 68/1/9 64/1/9 103/1/9
f 46/1/9 136/1/9 57/1/9
f 103/1/9 57/1/9 170/1/9
f 196/1/9 57/1/9 136/1/9
f 175/7/8 261/7/8 159/7/8
f 194/1/10 7/1/10 103/1/10
f 206/1/9 103/1/9 64/1/9
f 46/1/9 103/1/9 7/1/9
f 194/1/9 206/1/9 204/1/9
f 199/8/11 264/8/11 96/8/11
f 18/8/11 96/8/11 264/8/11
f 118/8/11 264/8/11 125/8/11
f 18/8/11 118/8/11 172/8/11
f 125/8/11 43/8/11 50/8/11
f 125/8/11 122/8/11 118/8/11
f 172/8/11 118/8/11 122/8/11
f 61/8/11 122/8/11 50/8/11
f 122/8/11 61/8/11 236/8/11
f 58/7/12 158/7/12 225/7/12
f 58/7/12 72/7/12 175/7/12
f 51/1/1 57/1/1 196/1/1
f 276/1/1 170/1/1 57/1/1
f 17/9/13 266/9/13 163/9/13
f 212/9/13 267/9/13 17/9/13
f 212/9/14 73/9/14 104/9/14
f 104/9/13 73/9/13 193/9/13
f 110/9/13 151/9/13 163/9/13
f 110/9/14 190/9/14 237/9/14
f 151/9/13 237/9/13 212/9/13
f 212/9/13 237/9/13 99/9/13
f 173/9/13 193/9/13 73/9/13
f 238/2/15 66/2/15 70/2/15
f 190/9/13 23/9/13 126/9/13
f 126/9/13 115/9/13 228/9/13
f 237/9/13 228/9/13 99/9/13
f 99/9/13 228/9/13 185/9/13
f 215/1/1 221/1/1 216/1/1
f 221/1/1 80/1/1 217/1/1
f 243/10/16 240/10/16 182/10/16
f 182/10/16 240/10/16 94/10/16
f 81/10/16 94/10/16 241/10/16
f 164/10/16 59/10/16 123/10/16
f 243/10/16 164/10/16 3/10/16
f 240/10/16 3/10/16 150/10/16
f 150/10/16 24/10/16 94/10/16
f 253/10/16 241/10/16 94/10/16
f 169/10/16 94/10/16 24/10/16
f 253/10/16 169/10/16 62/10/16
f 268/10/16 36/10/16 3/10/16
f 36/10/16 180/10/16 150/10/16
f 180/10/16 31/10/16 24/10/16
f 24/10/16 31/10/16 145/10/16
f 15/10/16 62/10/16 169/10/16
f 179/10/16 36/10/16 268/10/16
f 84/10/16 180/10/16 36/10/16
f 84/10/16 6/10/16 31/10/16
f 101/10/16 145/10/16 31/10/16
f 15/10/16 145/10/16 101/10/16
f 202/5/17 274/5/17 14/5/17
f 252/5/17 14/5/17 93/5/17
f 274/5/17 147/5/17 45/5/17
f 177/5/17 41/5/17 93/5/17
f 177/5/17 14/5/17 45/5/17
f 79/5/17 245/5/17 41/5/17
f 189/5/17 45/5/17 147/5/17
f 189/5/17 108/5/17 177/5/17
f 108/5/17 246/5/17 79/5/17
f 111/11/18 195/11/18 154/11/18
f 154/11/18 124/11/18 65/11/18
f 12/12/19 188/12/19 176/12/19
f 176/12/19 188/12/19 244/12/19
f 39/12/19 273/12/19 146/12/19
f 12/12/19 146/12/19 273/12/19
f 188/12/19 273/12/19 135/12/19
f 19/12/19 244/12/19 188/12/19
f 4/12/19 38/12/19 112/12/19
f 273/12/19 39/12/19 112/12/19
f 273/12/19 38/12/19 167/12/19
f 53/12/19 270/12/19 135/12/19
f 167/12/19 135/12/19 273/12/19
f 19/12/19 135/12/19 270/12/19
f 4/12/19 157/12/19 174/12/19
f 174/12/19 21/12/19 167/12/19
f 167/12/19 21/12/19 186/12/19
f 157/12/19 27/12/19 220/12/19
f 278/12/19 21/12/19 174/12/19
f 21/12/19 278/12/19 20/12/19
f 68/1/20 80/1/20 54/1/20
f 257/1/20 206/1/20 64/1/20
f 248/1/20 204/1/20 206/1/20
f 91/8/21 264/8/21 199/8/21
f 91/8/21 26/8/21 125/8/21
f 11/8/21 43/8/21 125/8/21
f 133/2/22 70/2/22 66/2/22
f 2/2/22 66/2/22 102/2/22
f 133/2/22 2/2/22 78/2/22
f 10/9/23 228/9/23 115/9/23
f 185/9/23 228/9/23 10/9/23
f 215/1/20 105/1/20 198/1/20
f 198/1/20 54/1/20 80/1/20
f 184/2/22 2/2/22 102/2/22
f 78/2/22 2/2/22 184/2/22
f 105/1/20 144/1/20 121/1/20
f 198/1/20 121/1/20 257/1/20
f 128/1/20 242/1/20 121/1/20
f 242/1/20 248/1/20 257/1/20
f 1/13/24 5/13/24 63/13/24
f 219/13/24 63/13/24 5/13/24
f 219/13/24 181/13/24 47/13/24
f 197/13/24 47/13/24 141/13/24
f 239/8/21 77/8/21 260/8/21
f 260/8/21 77/8/21 234/8/21
f 234/8/21 91/8/21 83/8/21
f 1/13/24 100/13/24 232/13/24
f 232/13/24 76/13/24 181/13/24
f 181/13/24 76/13/24 226/13/24
f 250/13/24 141/13/24 47/13/24
f 132/8/21 90/8/21 77/8/21
f 90/8/21 139/8/21 166/8/21
f 77/8/21 166/8/21 234/8/21
f 166/8/21 26/8/21 91/8/21
f 100/13/24 120/13/24 229/13/24
f 232/13/24 229/13/24 75/13/24
f 107/13/24 13/13/24 226/13/24
f 75/13/24 226/13/24 76/13/24
f 250/13/24 226/13/24 13/13/24
f 168/8/21 166/8/21 139/8/21
f 11/8/21 26/8/21 166/8/21
f 120/13/24 201/13/24 210/13/24
f 229/13/24 210/13/24 209/13/24
f 229/13/24 97/13/24 75/13/24
f 97/13/24 49/13/24 107/13/24
f 152/11/25 138/11/25 74/11/25
f 74/11/25 138/11/25 165/11/25
f 32/13/24 97/13/24 209/13/24
f 49/13/24 97/13/24 32/13/24
f 262/11/25 67/11/25 138/11/25
f 208/11/25 255/11/25 165/11/25
f 208/11/25 138/11/25 67/11/25
f 119/11/25 92/11/25 255/11/25
f 247/11/25 113/11/25 67/11/25
f 44/11/25 200/11/25 208/11/25
f 113/11/25 208/11/25 67/11/25
f 119/11/25 208/11/25 200/11/25
f 111/11/25 203/11/25 113/11/25
f 203/11/25 65/11/25 44/11/25
f 170/1/1 276/1/1 80/1/1
f 66/2/2 238/2/2 233/2/2
f 249/2/2 161/2/2 233/2/2
f 160/3/3 207/3/3 218/3/3
f 56/4/4 235/4/4 205/4/4
f 42/4/4 235/4/4 28/4/4
f 222/2/2 227/2/2 89/2/2
f 89/2/2 213/2/2 153/2/2
f 153/2/2 87/2/2 275/2/2
f 143/4/4 259/4/4 269/4/4
f 56/4/4 114/4/4 143/4/4
f 56/4/4 277/4/4 235/4/4
f 235/4/4 272/4/4 85/4/4
f 272/4/4 30/4/4 155/4/4
f 254/2/2 183/2/2 213/2/2
f 183/2/2 249/2/2 87/2/2
f 271/5/5 147/5/5 98/5/5
f 143/4/4 269/4/4 148/4/4
f 143/4/4 148/4/4 277/4/4
f 134/4/4 277/4/4 127/4/4
f 272/4/4 134/4/4 263/4/4
f 35/4/4 30/4/4 263/4/4
f 98/5/5 274/5/5 192/5/5
f 187/4/4 148/4/4 224/4/4
f 279/4/4 148/4/4 171/4/4
f 127/4/4 279/4/4 25/4/4
f 263/4/4 25/4/4 117/4/4
f 34/4/4 187/4/4 130/4/4
f 34/4/4 131/4/4 171/4/4
f 256/4/4 88/4/4 171/4/4
f 131/4/4 34/4/4 60/4/4
f 116/6/7 258/6/7 178/6/7
f 22/6/7 109/6/7 106/6/7
f 140/6/7 214/6/7 116/6/7
f 16/3/3 156/3/3 48/3/3
f 16/3/3 48/3/3 129/3/3
f 191/3/3 223/3/3 149/3/3
f 48/3/3 191/3/3 9/3/3
f 48/3/3 9/3/3 207/3/3
f 149/3/3 55/3/3 9/3/3
f 37/3/3 231/3/3 9/3/3
f 158/7/8 159/7/8 225/7/8
f 170/1/9 68/1/9 103/1/9
f 103/1/9 46/1/9 57/1/9
f 158/7/8 175/7/8 159/7/8
f 206/1/10 194/1/10 103/1/10
f 118/8/11 18/8/11 264/8/11
f 122/8/11 125/8/11 50/8/11
f 86/8/11 172/8/11 122/8/11
f 86/8/11 122/8/11 236/8/11
f 158/7/12 58/7/12 175/7/12
f 51/1/1 276/1/1 57/1/1
f 151/9/13 17/9/13 163/9/13
f 151/9/13 212/9/13 17/9/13
f 267/9/13 212/9/13 104/9/13
f 151/9/13 110/9/13 237/9/13
f 73/9/13 212/9/13 99/9/13
f 99/9/13 173/9/13 73/9/13
f 237/9/14 190/9/14 126/9/14
f 237/9/14 126/9/14 228/9/14
f 173/9/13 99/9/13 185/9/13
f 216/1/1 221/1/1 217/1/1
f 81/10/16 182/10/16 94/10/16
f 3/10/16 164/10/16 123/10/16
f 240/10/16 243/10/16 3/10/16
f 240/10/16 150/10/16 94/10/16
f 169/10/16 253/10/16 94/10/16
f 251/10/16 253/10/16 62/10/16
f 123/10/16 268/10/16 3/10/16
f 3/10/16 36/10/16 150/10/16
f 150/10/16 180/10/16 24/10/16
f 169/10/16 24/10/16 145/10/16
f 145/10/16 15/10/16 169/10/16
f 179/10/16 84/10/16 36/10/16
f 180/10/16 84/10/16 31/10/16
f 6/10/16 101/10/16 31/10/16
f 252/5/17 202/5/17 14/5/17
f 14/5/17 274/5/17 45/5/17
f 14/5/17 177/5/17 93/5/17
f 177/5/17 79/5/17 41/5/17
f 33/5/17 189/5/17 147/5/17
f 45/5/17 189/5/17 177/5/17
f 177/5/17 108/5/17 79/5/17
f 203/11/18 111/11/18 154/11/18
f 203/11/18 154/11/18 65/11/18
f 162/12/19 176/12/19 244/12/19
f 188/12/19 12/12/19 273/12/19
f 135/12/19 19/12/19 188/12/19
f 38/12/19 273/12/19 112/12/19
f 167/12/19 53/12/19 135/12/19
f 38/12/19 4/12/19 174/12/19
f 38/12/19 174/12/19 167/12/19
f 53/12/19 167/12/19 186/12/19
f 174/12/19 157/12/19 220/12/19
f 220/12/19 278/12/19 174/12/19
f 186/12/19 21/12/19 20/12/19
f 64/1/20 68/1/20 54/1/20
f 54/1/20 257/1/20 64/1/20
f 257/1/20 248/1/20 206/1/20
f 83/8/21 91/8/21 199/8/21
f 264/8/21 91/8/21 125/8/21
f 26/8/21 11/8/21 125/8/21
f 2/2/22 133/2/22 66/2/22
f 221/1/20 215/1/20 198/1/20
f 221/1/20 198/1/20 80/1/20
f 161/2/22 184/2/22 102/2/22
f 198/1/20 105/1/20 121/1/20
f 54/1/20 198/1/20 257/1/20
f 144/1/20 128/1/20 121/1/20
f 121/1/20 242/1/20 257/1/20
f 181/13/24 219/13/24 5/13/24
f 197/13/24 219/13/24 47/13/24
f 71/8/21 260/8/21 234/8/21
f 71/8/21 234/8/21 83/8/21
f 5/13/24 1/13/24 232/13/24
f 5/13/24 232/13/24 181/13/24
f 47/13/24 181/13/24 226/13/24
f 226/13/24 250/13/24 47/13/24
f 239/8/21 132/8/21 77/8/21
f 77/8/21 90/8/21 166/8/21
f 234/8/21 166/8/21 91/8/21
f 232/13/24 100/13/24 229/13/24
f 76/13/24 232/13/24 75/13/24
f 75/13/24 107/13/24 226/13/24
f 168/8/21 11/8/21 166/8/21
f 229/13/24 120/13/24 210/13/24
f 97/13/24 229/13/24 209/13/24
f 75/13/24 97/13/24 107/13/24
f 152/11/25 262/11/25 138/11/25
f 138/11/25 208/11/25 165/11/25
f 208/11/25 119/11/25 255/11/25
f 262/11/25 247/11/25 67/11/25
f 113/11/25 44/11/25 208/11/25
f 247/11/25 111/11/25 113/11/25
f 113/11/25 203/11/25 44/11/25
