# Blender v2.74 (sub 0) OBJ File: 'explode.blend'
# www.blender.org
mtllib explode_000198.mtl
o Cube_Cube.001
v 0.713290 1.738152 -1.658612
v 0.666871 1.997167 4.361506
v 0.163788 1.906242 -1.946738
v -0.970190 0.844591 -1.797688
v -1.121554 0.332350 -2.010471
v 0.603390 1.771770 -1.716237
v -1.598479 -2.925492 -0.356845
v -1.455578 -3.069995 -0.352323
v -0.844441 0.793074 -1.918481
v 0.550586 2.007420 4.132402
v 0.777757 1.977382 4.015753
v 0.805478 1.972436 3.929316
v -1.148788 -3.282440 -0.387576
v 0.376159 2.022800 3.788747
v -0.040164 2.019326 -1.778630
v 0.722406 2.448236 4.353505
v -1.227705 -3.311891 -0.662439
v 0.625435 2.368095 4.326992
v 0.603221 2.187667 4.330192
v 0.755635 2.257916 4.183829
v -0.890626 0.716287 -1.933813
v 0.292994 2.037638 4.048061
v -1.171621 0.639988 -1.783287
v 0.348437 2.027746 3.875185
v 0.352152 1.835949 -1.916733
v -1.476567 -3.146557 -0.308026
v -1.247303 0.383867 -1.889678
v 0.101173 1.988766 -1.635760
v -1.263992 0.486413 -1.813950
v 0.038299 1.982651 -1.806251
v -1.127799 -3.205878 -0.431874
v -1.173414 -3.199992 -0.629881
v 0.650416 1.732038 -1.829104
v 0.378858 2.027565 4.076174
v 0.477641 1.759541 -2.057220
v 0.711299 2.358022 4.355105
v -1.291688 -3.137937 -0.392098
v 0.788864 2.067596 4.014153
v -1.119124 -3.088092 -0.597323
v 0.509078 1.762598 -1.971974
v -0.982997 0.562712 -1.964476
v 0.689085 2.177594 4.358305
v -1.194403 -3.276554 -0.585584
v 0.258100 1.915414 -1.691001
v -1.016376 0.767804 -1.813020
v 0.320974 1.921530 -1.520509
v 0.633750 1.992582 3.873088
v -1.012493 0.383379 -2.055535
v 0.606029 1.997528 3.959526
v 0.006862 1.979593 -1.891497
v -1.619467 -3.002053 -0.312548
v 0.022710 2.025441 -1.608139
v 0.320715 1.832891 -2.001979
v 0.415026 1.842064 -1.746242
v 0.739020 2.353076 4.268667
v -1.270700 -3.061375 -0.436395
v 0.132610 1.991823 -1.550514
v -0.920122 0.536954 -2.024872
v 0.323415 2.037457 4.249050
v 0.242511 1.958205 -1.492889
v -1.108747 0.614229 -1.843683
v -1.075368 0.409138 -1.995139
v 0.744528 2.167702 4.185430
v 0.587542 1.725923 -1.999595
v -1.701412 -2.968083 -0.292660
v 0.434301 2.017673 3.903298
v 0.571953 1.768713 -1.801483
v 0.477900 1.848178 -1.575751
v -1.167767 -3.018784 -0.500580
v -1.680423 -2.891521 -0.336957
v 0.462023 2.012727 3.816860
v 0.237551 2.047530 4.220937
v -1.079250 0.793562 -1.752624
v -1.640456 -3.078615 -0.268251
v 0.334522 2.127671 4.247450
v -1.201118 0.460654 -1.874346
v 0.556364 1.811503 -1.603371
v 0.722314 1.987274 4.188629
v -1.215391 -3.353115 -0.541287
v 0.352411 1.924587 -1.435264
v -1.312677 -3.214499 -0.347801
v -1.434589 -2.993433 -0.396620
v 0.195225 1.909299 -1.861492
v 0.054147 2.028498 -1.522894
v 0.495143 2.017312 4.305277
v 0.506250 2.107526 4.303678
v 0.509338 1.851236 -1.490505
v -1.085822 -3.052754 -0.520468
v 0.772249 2.162756 4.098991
v -0.827752 0.690528 -1.994209
vt 0.952400 0.500000
vt 0.890800 0.500000
vt 0.921600 0.500000
vt 0.983200 0.500000
vn -0.304900 0.054400 0.950800
vn 0.366300 0.388700 0.845400
vn 0.513400 -0.454200 0.728100
vn 0.944500 -0.110800 0.309300
vn 0.944500 -0.110800 0.309200
vn 0.230900 0.842200 -0.487300
vn 0.368100 0.914400 -0.168500
vn -0.122200 -0.992400 0.017600
vn 0.901400 -0.373700 -0.218800
usemtl Explode_Fade
s off
f 42/1/1 19/1/1 86/1/1
f 85/1/1 2/1/1 42/1/1
f 88/2/2 69/2/2 56/2/2
f 88/2/2 37/2/2 31/2/2
f 13/2/2 31/2/2 37/2/2
f 48/3/3 62/3/3 5/3/3
f 76/3/3 27/3/3 5/3/3
f 27/3/3 76/3/3 29/3/3
f 65/2/2 51/2/2 7/2/2
f 8/2/2 82/2/2 7/2/2
f 8/2/2 37/2/2 56/2/2
f 74/2/2 51/2/2 65/2/2
f 74/2/2 26/2/2 8/2/2
f 81/2/2 37/2/2 8/2/2
f 9/3/3 21/3/3 90/3/3
f 58/3/3 90/3/3 21/3/3
f 41/3/3 62/3/3 48/3/3
f 9/3/3 4/3/3 45/3/3
f 21/3/3 45/3/3 61/3/3
f 41/3/3 61/3/3 76/3/3
f 73/3/3 45/3/3 4/3/3
f 73/3/3 23/3/3 61/3/3
f 29/3/3 76/3/3 61/3/3
f 2/1/4 78/1/4 63/1/4
f 63/1/5 20/1/5 55/1/5
f 63/1/4 36/1/4 42/1/4
f 16/1/4 36/1/4 55/1/4
f 11/1/4 38/1/4 89/1/4
f 11/1/4 63/1/4 78/1/4
f 20/1/5 63/1/5 89/1/5
f 38/1/4 11/1/4 12/1/4
f 18/1/1 36/1/1 16/1/1
f 19/1/1 42/1/1 36/1/1
f 69/2/6 88/2/6 39/2/6
f 72/1/1 59/1/1 75/1/1
f 85/1/1 86/1/1 75/1/1
f 77/4/7 68/4/7 87/4/7
f 87/4/7 68/4/7 46/4/7
f 80/4/7 46/4/7 60/4/7
f 33/4/7 67/4/7 6/4/7
f 68/4/7 77/4/7 6/4/7
f 68/4/7 67/4/7 54/4/7
f 68/4/7 54/4/7 44/4/7
f 28/4/7 57/4/7 60/4/7
f 28/4/7 46/4/7 44/4/7
f 57/4/7 28/4/7 52/4/7
f 64/4/7 40/4/7 67/4/7
f 40/4/7 25/4/7 54/4/7
f 54/4/7 25/4/7 83/4/7
f 44/4/7 83/4/7 30/4/7
f 15/4/7 52/4/7 28/4/7
f 35/4/7 40/4/7 64/4/7
f 53/4/7 25/4/7 40/4/7
f 53/4/7 3/4/7 83/4/7
f 3/4/7 50/4/7 30/4/7
f 15/4/7 30/4/7 50/4/7
f 2/1/8 85/1/8 10/1/8
f 10/1/8 49/1/8 11/1/8
f 47/1/8 12/1/8 11/1/8
f 32/2/9 39/2/9 88/2/9
f 43/2/9 88/2/9 31/2/9
f 32/2/9 43/2/9 17/2/9
f 22/1/8 34/1/8 59/1/8
f 34/1/8 10/1/8 85/1/8
f 79/2/9 43/2/9 31/2/9
f 17/2/9 43/2/9 79/2/9
f 24/1/8 66/1/8 34/1/8
f 34/1/8 66/1/8 49/1/8
f 14/1/8 71/1/8 66/1/8
f 71/1/8 47/1/8 49/1/8
f 85/1/1 42/1/1 86/1/1
f 37/2/2 88/2/2 56/2/2
f 81/2/2 13/2/2 37/2/2
f 62/3/3 76/3/3 5/3/3
f 70/2/2 65/2/2 7/2/2
f 51/2/2 8/2/2 7/2/2
f 82/2/2 8/2/2 56/2/2
f 51/2/2 74/2/2 8/2/2
f 26/2/2 81/2/2 8/2/2
f 41/3/3 58/3/3 21/3/3
f 58/3/3 41/3/3 48/3/3
f 21/3/3 9/3/3 45/3/3
f 41/3/3 21/3/3 61/3/3
f 62/3/3 41/3/3 76/3/3
f 45/3/3 73/3/3 61/3/3
f 23/3/3 29/3/3 61/3/3
f 42/1/4 2/1/4 63/1/4
f 36/1/5 63/1/5 55/1/5
f 63/1/5 11/1/5 89/1/5
f 18/1/1 19/1/1 36/1/1
f 59/1/1 85/1/1 75/1/1
f 80/4/7 87/4/7 46/4/7
f 1/4/7 33/4/7 6/4/7
f 67/4/7 68/4/7 6/4/7
f 46/4/7 68/4/7 44/4/7
f 46/4/7 28/4/7 60/4/7
f 84/4/7 57/4/7 52/4/7
f 33/4/7 64/4/7 67/4/7
f 67/4/7 40/4/7 54/4/7
f 44/4/7 54/4/7 83/4/7
f 28/4/7 44/4/7 30/4/7
f 30/4/7 15/4/7 28/4/7
f 35/4/7 53/4/7 40/4/7
f 25/4/7 53/4/7 83/4/7
f 83/4/7 3/4/7 30/4/7
f 78/1/8 2/1/8 10/1/8
f 78/1/8 10/1/8 11/1/8
f 49/1/8 47/1/8 11/1/8
f 43/2/9 32/2/9 88/2/9
f 72/1/8 22/1/8 59/1/8
f 59/1/8 34/1/8 85/1/8
f 13/2/9 79/2/9 31/2/9
f 22/1/8 24/1/8 34/1/8
f 10/1/8 34/1/8 49/1/8
f 24/1/8 14/1/8 66/1/8
f 66/1/8 71/1/8 49/1/8
