# Blender v2.74 (sub 0) OBJ File: 'explode.blend'
# www.blender.org
mtllib explode_000183.mtl
o Cube_Cube.001
v 0.555117 -2.288669 -1.095807
v -0.996869 -2.213659 -0.550273
v 0.473643 1.748094 -1.371362
v 2.695840 -0.580245 -0.685926
v 0.495599 -2.345756 -1.057556
v 0.065478 1.885623 -1.516617
v 0.330600 1.651427 3.188996
v -1.054124 1.109312 -2.692646
v -0.629539 0.445124 -1.495430
v -3.872293 -0.285287 0.039285
v 0.397686 -0.793651 3.163292
v 2.911246 -0.709332 -0.237151
v 0.296691 -2.453238 -0.663228
v -2.370224 4.673264 -1.884146
v -0.138475 1.998707 -1.348510
v -0.440915 0.367849 -1.676620
v -3.724713 0.057480 0.495178
v 0.371471 -0.554935 3.367011
v 2.755444 -0.545151 -0.115142
v 2.450112 -0.309064 -0.416314
v 2.528013 -0.391155 -0.477318
v -0.376810 -0.338059 -0.413152
v -3.722442 -0.291967 0.394616
v 0.159789 1.894795 -1.260880
v -0.990637 1.174362 -2.694196
v 0.398429 -0.801609 3.253849
v 2.498211 -0.408701 -0.762710
v -0.968989 1.011374 -3.315637
v -0.736690 1.434561 -2.700398
v -1.132449 0.923248 -3.045540
v 0.096915 1.888681 -1.431371
v 0.467946 -2.177909 -0.417963
v -2.255159 4.370859 -1.831713
v -0.761014 1.462544 -2.522400
v -1.156774 0.951230 -2.867542
v 0.410768 1.741979 -1.541854
v -0.692413 0.470882 -1.435034
v 2.683815 -0.555335 -0.599327
v 2.803543 -0.644789 -0.461539
v -0.702208 2.661382 0.873645
v -2.322432 4.684576 -2.081403
v -0.905502 1.076423 -3.317188
v 0.511647 -0.652445 3.174766
v -0.949938 -2.136910 0.936442
v -2.288795 4.527718 -1.956558
v 0.313986 1.746587 3.273834
v 0.257527 -2.574104 -0.904553
v -0.503789 0.393607 -1.616223
v 0.395373 -2.275285 -0.460154
v 0.440073 -0.587774 3.089774
v 0.183786 1.856766 3.416996
v -0.490982 0.675486 -1.449436
v 2.647741 -0.480608 -0.339530
v 0.108937 1.496091 3.222406
v -0.600042 0.624457 -1.404371
v -0.790691 1.220514 -3.231290
v 0.269650 1.846693 3.445109
v -0.816357 2.620637 0.974160
v 0.614980 1.717533 -1.228492
v -0.836663 1.411485 -2.431851
v 0.368498 -0.523103 3.004783
v -0.075600 2.004822 -1.178019
v 0.482544 -2.386045 -1.137998
v 0.280665 1.475945 3.278634
v -1.032326 -2.271964 1.026055
v -0.888288 -1.989860 -0.485156
v -0.825563 -1.976649 0.923420
v 0.225222 1.485837 3.451510
v -0.621878 1.578653 -2.614500
v -0.921590 -2.025197 -0.562012
v 0.286698 -0.966689 3.514047
v -0.943344 2.620260 0.994238
v -3.784937 0.068902 0.125396
v -0.701980 -1.774069 0.789000
v 0.428782 -2.298775 -0.659288
v 0.402672 -2.379353 -0.820171
v 0.171993 -1.099936 3.412016
v -1.030171 -2.248996 -0.627128
v -2.278178 4.653846 -2.198134
v 0.053494 1.505983 3.395282
v 0.254101 1.903968 -1.005143
v -1.183774 0.844206 -3.132988
v 0.400660 -0.825483 3.525521
v 0.222404 1.812272 -1.571858
v -0.981151 1.025365 -3.226639
v 0.298410 -0.474348 3.100905
v -1.258044 -2.007100 -0.317012
v -1.002799 1.188354 -2.605197
v -1.400945 -1.862597 -0.321534
v 0.171250 -1.091978 3.321459
v 0.399916 -0.817525 3.434964
v -0.952317 -2.009951 0.572250
v -2.366684 4.715307 -1.964671
v 0.222664 1.900910 -1.090389
v -0.546229 1.629711 -2.705050
v 0.443046 -0.619606 3.452003
v 0.454891 -2.218198 -0.498405
v -2.458507 4.554523 -1.744757
v -3.783801 -0.105822 0.075115
v 0.581227 -2.208091 -0.934924
v -0.091449 1.958974 -1.461376
v -0.930265 -2.142983 -0.396562
v 0.302879 1.656373 3.275434
v -3.785505 0.156264 0.150537
v -0.148655 1.526309 3.138065
v -0.421695 -0.416675 -0.421477
v 0.369263 -2.355862 -0.621037
v -2.241003 4.539030 -2.153815
v -0.453385 -0.297204 -0.386101
v -3.723578 -0.117244 0.444897
v -0.948352 -2.221550 1.179237
v 2.749691 -0.612517 -0.573732
v -0.907951 -2.111704 1.013033
v -0.727204 1.285564 -3.232841
v -3.767467 -0.305241 0.110995
v -0.651418 -0.294113 -0.340324
v -1.105449 1.030271 -2.780094
v 0.370728 -0.546977 3.276454
v -0.951524 -2.052270 0.693647
v 0.607336 -2.127514 -0.774040
v -0.007348 1.506344 2.993303
v 0.369241 -0.531061 3.095340
v 0.552106 1.711419 -1.398983
v -1.101641 -2.216563 1.045821
v 0.512391 -0.660403 3.265323
v -3.752838 -0.242575 0.222295
v -0.966313 1.146380 -2.872193
v -0.065491 1.511471 2.878751
v -0.533286 0.214274 -1.707283
v -0.697527 1.527594 -2.523951
v -0.824501 1.397494 -2.520850
v 0.114269 -1.162581 3.315722
v -0.975880 -2.137097 -0.594570
v -0.941989 1.118397 -3.050192
v 2.767469 -0.570061 -0.201741
v 0.297371 1.841747 3.358671
v -0.721910 0.291549 -1.526094
v -0.743174 -1.841596 0.833807
v 0.227487 -1.013417 3.236639
v -0.696302 -0.372729 -0.348649
v 0.198008 -2.631191 -0.866302
v -0.727992 -0.253258 -0.313272
v -0.688041 1.378596 -3.056393
v -0.093212 1.516417 2.965189
v -0.060012 1.962031 -1.376131
v 2.857394 -0.677060 -0.349345
v -2.295873 4.443632 -1.795507
v -0.712365 1.406579 -2.878396
v -0.537168 0.598699 -1.464767
v 0.316716 1.821445 -1.316121
v -3.724145 -0.029882 0.470037
v -0.701187 -1.816389 0.910397
v -1.237055 -1.930538 -0.361309
v -1.059654 -2.191357 1.122412
v -1.056800 0.974306 -3.136089
v -0.348544 0.521423 -1.645957
v 2.564087 -0.465882 -0.737116
v -0.757155 2.563229 0.935900
v -0.769993 2.603597 0.855463
v -0.642346 0.163245 -1.662218
v -0.951254 -2.219545 -0.352265
v 2.953073 -0.716695 -0.038358
v -3.708947 -0.054578 0.556198
v 0.505080 1.751151 -1.286117
v -0.785162 -1.866803 0.757216
v 0.284468 -0.942814 3.242376
v 2.659765 -0.505517 -0.426129
v 0.283724 -0.934856 3.151819
v 0.002863 1.968146 -1.205639
v 0.247436 1.666265 3.448310
v -0.863663 1.304462 -2.697297
v 0.299896 -0.490264 3.282019
v -3.798999 -0.081126 -0.011045
v 2.552062 -0.440973 -0.650517
v -0.824939 2.505443 0.917718
v 2.965098 -0.741604 -0.124957
v -2.281717 4.611803 -2.117609
v -0.606533 -0.215496 -0.331999
v 0.379331 1.738922 -1.627099
v 0.253841 1.815330 -1.486613
v 0.376563 -2.459930 -0.981054
v 0.411027 1.830617 -1.060384
v -1.279033 -2.083662 -0.272715
v -1.017857 -2.290220 -0.505975
v -3.797863 -0.255850 -0.061326
v 2.515989 -0.366245 -0.390719
v -0.609716 1.564661 -2.703499
v 2.899222 -0.684423 -0.150552
v -2.248081 4.454945 -1.992764
v -3.738208 -0.179910 0.333596
v -0.411418 0.547182 -1.585560
v -2.499221 4.627297 -1.708551
v -3.800135 0.093598 0.039236
v 0.347215 1.556267 3.104158
v -1.017667 -2.166150 1.199003
v 0.280757 1.936907 3.443510
v 0.244472 -2.614393 -0.984995
v -0.062791 1.516236 3.166179
v 0.514621 -0.684278 3.536994
v -0.950731 -2.094590 0.815045
v 0.679909 -2.030138 -0.731849
v -2.418016 4.661951 -1.686889
v -0.990339 -2.246757 1.102646
v 0.363829 1.461107 3.019320
v -0.778529 1.206523 -3.320289
v 0.336108 1.466053 3.105757
v -0.596160 0.240032 -1.646886
v -0.909537 -2.027064 0.770238
v 0.514409 -2.161111 -0.536655
v 0.560872 -2.144313 -0.655348
v -0.773176 1.476535 -2.433402
v -3.754541 0.019510 0.297717
v -1.421933 -1.939158 -0.277236
v -0.543154 -0.454437 -0.402751
v -0.204098 1.536201 3.310941
v -0.107127 1.616342 3.337454
v 0.064601 1.596197 3.393682
v -0.768095 0.214762 -1.541425
v 0.363508 -2.500219 -1.061496
v 2.486186 -0.383792 -0.676111
v -0.118234 1.526128 3.339055
v -1.482889 -1.828626 -0.301646
v -0.365233 0.623969 -1.570228
v -0.597554 1.550670 -2.792498
v -0.689370 2.621014 0.954081
v 0.283636 -2.493527 -0.743670
v -1.503878 -1.905188 -0.257349
v -3.782665 -0.280546 0.024834
v 0.547818 -2.184601 -0.735789
v -0.600230 1.415664 -3.235942
v -0.784784 0.317308 -1.465697
v 0.521708 -2.265179 -0.896673
v -1.094155 -2.075042 -0.356787
v 0.285955 -0.958730 3.423490
v -0.917665 1.090415 -3.228189
v 0.297666 -0.466390 3.010348
v -3.753405 -0.155214 0.247436
v -0.970233 -1.955889 -0.465269
v 0.115012 -1.170538 3.406280
v 0.379590 1.827559 -1.145630
v 0.144200 1.937586 -1.062768
v 0.020373 1.501398 2.906865
v 0.458053 1.790884 -1.173250
v 2.887197 -0.659514 -0.063953
v -2.315354 4.768661 -2.242454
v -2.196750 4.508299 -2.270546
v -0.865964 -2.086496 1.089624
v 0.192101 1.481253 2.963092
v -1.115143 -2.151603 -0.312490
v 0.224118 -2.550614 -0.705419
v -0.044163 2.007879 -1.092773
v -2.410938 4.746037 -1.847940
v 0.034300 1.971204 -1.120394
v -1.442922 -2.015720 -0.232939
v -0.868343 -1.959537 0.725432
v -0.875826 1.318453 -2.608299
v 0.164380 1.486199 3.049530
v -0.498269 -0.375821 -0.394426
v -0.675879 1.364605 -3.145392
v 0.172736 -1.107894 3.502573
v -0.905562 2.488026 0.819100
v -0.783575 -1.951442 1.000011
v -1.093287 1.016280 -2.869093
v 0.513878 -0.676320 3.446437
v -0.648879 1.471629 -2.879946
v -3.710083 0.120146 0.606479
v -3.755109 0.106872 0.322857
v 0.489231 1.705304 -1.569474
v -0.624555 1.443646 -3.057944
v 2.701592 -0.512880 -0.227336
v -2.377078 4.408978 -1.817169
v -1.068962 0.988297 -3.047091
v 2.791518 -0.619879 -0.374940
v -2.377301 4.589178 -1.723095
v -1.073166 -1.998480 -0.401084
v 0.161572 1.676338 3.420196
v -0.815015 1.248497 -3.053292
v 2.462137 -0.333974 -0.502913
v -0.839339 1.276479 -2.875294
vt 0.652400 0.500000
vt 0.590800 0.500000
vt 0.621600 0.500000
vt 0.775600 0.500000
vt 0.898800 0.500000
vt 0.991200 0.500000
vt 0.806400 0.500000
vt 0.744800 0.500000
vt 0.714000 0.500000
vt 0.683200 0.500000
vt 0.960400 0.500000
vt 0.868001 0.500000
vt 0.837200 0.500000
vn -0.304900 0.054400 0.950800
vn 0.366300 0.388700 0.845400
vn 0.513400 -0.454200 0.728100
vn 0.703100 -0.681400 0.203200
vn -0.038900 -0.462500 0.885800
vn 0.216200 -0.224000 0.950300
vn 0.651200 -0.631500 -0.420900
vn 0.944500 -0.110800 0.309200
vn 0.944500 -0.110800 0.309300
vn 0.626800 0.776600 0.063100
vn 0.141200 -0.444000 0.884800
vn 0.985900 0.052100 -0.159000
vn 0.985900 0.052200 -0.159000
vn 0.230900 0.842200 -0.487300
vn 0.368100 0.914400 -0.168500
vn 0.893300 0.381200 0.238300
vn -0.453100 -0.742800 0.492900
vn 0.676300 0.727500 -0.115400
vn -0.122200 -0.992400 0.017600
vn 0.779100 -0.623800 -0.061200
vn 0.901400 -0.373700 -0.218800
vn 0.006200 -0.961000 -0.276500
vn 0.742100 -0.639700 0.200000
vn 0.762500 -0.609400 -0.217400
vn 0.216200 -0.224100 0.950300
usemtl Explode_Fade
s off
f 276/1/1 217/1/1 80/1/1
f 80/1/1 68/1/1 170/1/1
f 66/2/2 238/2/2 275/2/2
f 66/2/2 233/2/2 102/2/2
f 249/2/2 161/2/2 102/2/2
f 129/3/3 207/3/3 160/3/3
f 137/3/3 218/3/3 160/3/3
f 218/3/3 137/3/3 231/3/3
f 114/4/4 56/4/4 205/4/4
f 235/4/4 42/4/4 205/4/4
f 235/4/4 85/4/4 28/4/4
f 227/2/2 213/2/2 89/2/2
f 213/2/2 87/2/2 153/2/2
f 87/2/2 233/2/2 275/2/2
f 33/5/5 147/5/5 271/5/5
f 259/4/4 230/4/4 269/4/4
f 56/4/4 114/4/4 259/4/4
f 56/4/4 143/4/4 277/4/4
f 56/4/4 277/4/4 134/4/4
f 272/4/4 155/4/4 85/4/4
f 254/2/2 213/2/2 227/2/2
f 272/4/4 235/4/4 134/4/4
f 30/4/4 82/4/4 155/4/4
f 254/2/2 183/2/2 87/2/2
f 183/2/2 249/2/2 233/2/2
f 274/5/5 98/5/5 271/5/5
f 269/4/4 265/4/4 148/4/4
f 148/4/4 279/4/4 277/4/4
f 277/4/4 279/4/4 127/4/4
f 134/4/4 127/4/4 263/4/4
f 30/4/4 272/4/4 263/4/4
f 202/5/5 192/5/5 98/5/5
f 95/4/4 187/4/4 224/4/4
f 148/4/4 265/4/4 224/4/4
f 148/4/4 187/4/4 29/4/4
f 29/4/4 171/4/4 279/4/4
f 171/4/4 25/4/4 127/4/4
f 8/4/4 117/4/4 263/4/4
f 25/4/4 263/4/4 127/4/4
f 35/4/4 263/4/4 117/4/4
f 69/4/4 187/4/4 95/4/4
f 187/4/4 69/4/4 130/4/4
f 187/4/4 34/4/4 29/4/4
f 131/4/4 256/4/4 171/4/4
f 34/4/4 171/4/4 29/4/4
f 256/4/4 88/4/4 25/4/4
f 8/4/4 25/4/4 88/4/4
f 211/4/4 34/4/4 130/4/4
f 34/4/4 211/4/4 60/4/4
f 142/6/6 116/6/6 178/6/6
f 258/6/6 109/6/6 178/6/6
f 109/6/6 258/6/6 106/6/6
f 140/6/6 116/6/6 142/6/6
f 223/3/3 191/3/3 156/3/3
f 214/6/6 258/6/6 116/6/6
f 106/6/6 258/6/6 214/6/6
f 156/3/3 191/3/3 48/3/3
f 48/3/3 207/3/3 129/3/3
f 52/3/3 149/3/3 191/3/3
f 149/3/3 9/3/3 48/3/3
f 48/3/3 9/3/3 137/3/3
f 55/3/3 149/3/3 52/3/3
f 37/3/3 9/3/3 149/3/3
f 231/3/3 137/3/3 9/3/3
f 158/7/7 159/7/7 40/7/7
f 68/1/8 64/1/8 103/1/8
f 46/1/8 136/1/8 57/1/8
f 103/1/9 57/1/9 170/1/9
f 196/1/9 57/1/9 136/1/9
f 175/7/7 261/7/7 159/7/7
f 194/1/8 7/1/8 103/1/8
f 206/1/9 103/1/9 64/1/9
f 46/1/8 103/1/8 7/1/8
f 194/1/9 206/1/9 204/1/9
f 199/8/10 264/8/10 96/8/10
f 118/8/10 18/8/10 96/8/10
f 118/8/10 264/8/10 125/8/10
f 18/8/10 118/8/10 172/8/10
f 125/8/10 43/8/10 50/8/10
f 125/8/10 122/8/10 118/8/10
f 86/8/10 172/8/10 118/8/10
f 61/8/10 122/8/10 50/8/10
f 122/8/10 61/8/10 236/8/10
f 58/7/11 158/7/11 225/7/11
f 58/7/11 72/7/11 175/7/11
f 51/1/1 57/1/1 196/1/1
f 51/1/1 276/1/1 170/1/1
f 17/9/12 266/9/12 163/9/12
f 212/9/13 267/9/13 17/9/13
f 212/9/13 73/9/13 104/9/13
f 104/9/13 73/9/13 193/9/13
f 110/9/13 151/9/13 163/9/13
f 110/9/12 190/9/12 237/9/12
f 151/9/13 237/9/13 212/9/13
f 237/9/13 99/9/13 73/9/13
f 173/9/12 193/9/12 73/9/12
f 238/2/14 66/2/14 70/2/14
f 190/9/13 23/9/13 126/9/13
f 126/9/13 115/9/13 228/9/13
f 237/9/13 228/9/13 99/9/13
f 99/9/12 228/9/12 185/9/12
f 215/1/1 221/1/1 216/1/1
f 221/1/1 80/1/1 217/1/1
f 243/10/15 240/10/15 182/10/15
f 81/10/15 182/10/15 240/10/15
f 81/10/15 94/10/15 241/10/15
f 164/10/15 59/10/15 123/10/15
f 240/10/15 243/10/15 164/10/15
f 240/10/15 3/10/15 150/10/15
f 150/10/15 24/10/15 94/10/15
f 253/10/15 241/10/15 94/10/15
f 169/10/15 94/10/15 24/10/15
f 253/10/15 169/10/15 62/10/15
f 268/10/15 36/10/15 3/10/15
f 3/10/15 36/10/15 180/10/15
f 150/10/15 180/10/15 31/10/15
f 24/10/15 31/10/15 145/10/15
f 15/10/15 62/10/15 169/10/15
f 179/10/15 36/10/15 268/10/15
f 84/10/15 180/10/15 36/10/15
f 6/10/15 31/10/15 180/10/15
f 6/10/15 101/10/15 145/10/15
f 15/10/15 145/10/15 101/10/15
f 252/5/16 202/5/16 274/5/16
f 252/5/16 14/5/16 93/5/16
f 147/5/16 45/5/16 14/5/16
f 41/5/16 93/5/16 14/5/16
f 177/5/16 14/5/16 45/5/16
f 79/5/16 245/5/16 41/5/16
f 189/5/16 45/5/16 147/5/16
f 189/5/16 108/5/16 177/5/16
f 108/5/16 246/5/16 79/5/16
f 111/11/17 195/11/17 154/11/17
f 154/11/17 124/11/17 65/11/17
f 12/12/18 188/12/18 176/12/18
f 188/12/18 244/12/18 162/12/18
f 39/12/18 273/12/18 146/12/18
f 12/12/18 146/12/18 273/12/18
f 188/12/18 273/12/18 135/12/18
f 244/12/18 188/12/18 135/12/18
f 4/12/18 38/12/18 112/12/18
f 273/12/18 39/12/18 112/12/18
f 273/12/18 38/12/18 167/12/18
f 167/12/18 53/12/18 270/12/18
f 167/12/18 135/12/18 273/12/18
f 19/12/18 135/12/18 270/12/18
f 4/12/18 157/12/18 174/12/18
f 38/12/18 174/12/18 21/12/18
f 21/12/18 186/12/18 53/12/18
f 157/12/18 27/12/18 220/12/18
f 278/12/18 21/12/18 174/12/18
f 278/12/18 20/12/18 186/12/18
f 68/1/19 80/1/19 54/1/19
f 54/1/19 257/1/19 206/1/19
f 248/1/19 204/1/19 206/1/19
f 264/8/20 199/8/20 83/8/20
f 91/8/20 26/8/20 125/8/20
f 43/8/20 125/8/20 26/8/20
f 133/2/21 70/2/21 66/2/21
f 2/2/21 66/2/21 102/2/21
f 133/2/21 2/2/21 78/2/21
f 10/9/22 228/9/22 115/9/22
f 185/9/22 228/9/22 10/9/22
f 215/1/19 105/1/19 198/1/19
f 221/1/19 198/1/19 54/1/19
f 184/2/21 2/2/21 102/2/21
f 78/2/21 2/2/21 184/2/21
f 105/1/19 144/1/19 121/1/19
f 121/1/19 257/1/19 54/1/19
f 128/1/19 242/1/19 121/1/19
f 242/1/19 248/1/19 257/1/19
f 1/13/23 5/13/23 63/13/23
f 219/13/23 63/13/23 5/13/23
f 197/13/23 219/13/23 181/13/23
f 197/13/23 47/13/23 141/13/23
f 239/8/20 77/8/20 260/8/20
f 260/8/20 77/8/20 234/8/20
f 234/8/20 91/8/20 83/8/20
f 1/13/23 100/13/23 232/13/23
f 232/13/23 76/13/23 181/13/23
f 181/13/23 76/13/23 226/13/23
f 141/13/23 47/13/23 226/13/23
f 239/8/20 132/8/20 90/8/20
f 77/8/20 90/8/20 139/8/20
f 77/8/20 166/8/20 234/8/20
f 166/8/20 26/8/20 91/8/20
f 120/13/23 229/13/23 232/13/23
f 229/13/23 75/13/23 76/13/23
f 75/13/23 107/13/23 13/13/23
f 75/13/23 226/13/23 76/13/23
f 250/13/23 226/13/23 13/13/23
f 168/8/20 166/8/20 139/8/20
f 11/8/20 26/8/20 166/8/20
f 120/13/23 201/13/23 210/13/23
f 210/13/23 209/13/23 97/13/23
f 229/13/23 97/13/23 75/13/23
f 97/13/23 49/13/23 107/13/23
f 152/11/24 138/11/24 74/11/24
f 74/11/24 138/11/24 165/11/24
f 32/13/23 97/13/23 209/13/23
f 49/13/23 97/13/23 32/13/23
f 152/11/24 262/11/24 67/11/24
f 208/11/24 255/11/24 165/11/24
f 208/11/24 138/11/24 67/11/24
f 119/11/24 92/11/24 255/11/24
f 247/11/24 113/11/24 67/11/24
f 44/11/24 200/11/24 208/11/24
f 113/11/24 208/11/24 67/11/24
f 119/11/24 208/11/24 200/11/24
f 247/11/24 111/11/24 203/11/24
f 113/11/24 203/11/24 65/11/24
f 170/1/1 276/1/1 80/1/1
f 233/2/2 66/2/2 275/2/2
f 233/2/2 249/2/2 102/2/2
f 207/3/3 137/3/3 160/3/3
f 56/4/4 235/4/4 205/4/4
f 42/4/4 235/4/4 28/4/4
f 222/2/2 227/2/2 89/2/2
f 89/2/2 213/2/2 153/2/2
f 153/2/2 87/2/2 275/2/2
f 143/4/4 259/4/4 269/4/4
f 143/4/4 56/4/4 259/4/4
f 235/4/4 56/4/4 134/4/4
f 235/4/4 272/4/4 85/4/4
f 272/4/4 30/4/4 155/4/4
f 213/2/2 254/2/2 87/2/2
f 87/2/2 183/2/2 233/2/2
f 147/5/5 274/5/5 271/5/5
f 143/4/4 269/4/4 148/4/4
f 143/4/4 148/4/4 277/4/4
f 134/4/4 277/4/4 127/4/4
f 272/4/4 134/4/4 263/4/4
f 35/4/4 30/4/4 263/4/4
f 274/5/5 202/5/5 98/5/5
f 187/4/4 148/4/4 224/4/4
f 148/4/4 29/4/4 279/4/4
f 279/4/4 171/4/4 127/4/4
f 25/4/4 8/4/4 263/4/4
f 34/4/4 187/4/4 130/4/4
f 34/4/4 131/4/4 171/4/4
f 171/4/4 256/4/4 25/4/4
f 131/4/4 34/4/4 60/4/4
f 116/6/6 258/6/6 178/6/6
f 22/6/25 109/6/25 106/6/25
f 140/6/6 214/6/6 116/6/6
f 16/3/3 156/3/3 48/3/3
f 16/3/3 48/3/3 129/3/3
f 223/3/3 52/3/3 191/3/3
f 191/3/3 149/3/3 48/3/3
f 207/3/3 48/3/3 137/3/3
f 55/3/3 37/3/3 149/3/3
f 37/3/3 231/3/3 9/3/3
f 225/7/7 158/7/7 40/7/7
f 170/1/9 68/1/9 103/1/9
f 103/1/9 46/1/9 57/1/9
f 158/7/7 175/7/7 159/7/7
f 206/1/9 194/1/9 103/1/9
f 264/8/10 118/8/10 96/8/10
f 122/8/10 125/8/10 50/8/10
f 122/8/10 86/8/10 118/8/10
f 86/8/10 122/8/10 236/8/10
f 158/7/11 58/7/11 175/7/11
f 57/1/1 51/1/1 170/1/1
f 151/9/12 17/9/12 163/9/12
f 151/9/13 212/9/13 17/9/13
f 267/9/13 212/9/13 104/9/13
f 151/9/13 110/9/13 237/9/13
f 212/9/13 237/9/13 73/9/13
f 99/9/13 173/9/13 73/9/13
f 237/9/13 190/9/13 126/9/13
f 237/9/13 126/9/13 228/9/13
f 173/9/13 99/9/13 185/9/13
f 216/1/1 221/1/1 217/1/1
f 94/10/15 81/10/15 240/10/15
f 3/10/15 164/10/15 123/10/15
f 3/10/15 240/10/15 164/10/15
f 240/10/15 150/10/15 94/10/15
f 169/10/15 253/10/15 94/10/15
f 251/10/15 253/10/15 62/10/15
f 123/10/15 268/10/15 3/10/15
f 150/10/15 3/10/15 180/10/15
f 24/10/15 150/10/15 31/10/15
f 169/10/15 24/10/15 145/10/15
f 145/10/15 15/10/15 169/10/15
f 179/10/15 84/10/15 36/10/15
f 84/10/15 6/10/15 180/10/15
f 31/10/15 6/10/15 145/10/15
f 14/5/16 252/5/16 274/5/16
f 274/5/16 147/5/16 14/5/16
f 177/5/16 41/5/16 14/5/16
f 177/5/16 79/5/16 41/5/16
f 33/5/16 189/5/16 147/5/16
f 45/5/16 189/5/16 177/5/16
f 177/5/16 108/5/16 79/5/16
f 203/11/17 111/11/17 154/11/17
f 203/11/17 154/11/17 65/11/17
f 176/12/18 188/12/18 162/12/18
f 188/12/18 12/12/18 273/12/18
f 19/12/18 244/12/18 135/12/18
f 38/12/18 273/12/18 112/12/18
f 135/12/18 167/12/18 270/12/18
f 38/12/18 4/12/18 174/12/18
f 167/12/18 38/12/18 21/12/18
f 167/12/18 21/12/18 53/12/18
f 174/12/18 157/12/18 220/12/18
f 220/12/18 278/12/18 174/12/18
f 21/12/18 278/12/18 186/12/18
f 64/1/19 68/1/19 54/1/19
f 64/1/19 54/1/19 206/1/19
f 257/1/19 248/1/19 206/1/19
f 91/8/20 264/8/20 83/8/20
f 264/8/20 91/8/20 125/8/20
f 11/8/20 43/8/20 26/8/20
f 2/2/21 133/2/21 66/2/21
f 221/1/19 215/1/19 198/1/19
f 80/1/19 221/1/19 54/1/19
f 161/2/21 184/2/21 102/2/21
f 198/1/19 105/1/19 121/1/19
f 198/1/19 121/1/19 54/1/19
f 144/1/19 128/1/19 121/1/19
f 121/1/19 242/1/19 257/1/19
f 181/13/23 219/13/23 5/13/23
f 47/13/23 197/13/23 181/13/23
f 71/8/20 260/8/20 234/8/20
f 71/8/20 234/8/20 83/8/20
f 5/13/23 1/13/23 232/13/23
f 5/13/23 232/13/23 181/13/23
f 47/13/23 181/13/23 226/13/23
f 250/13/23 141/13/23 226/13/23
f 77/8/20 239/8/20 90/8/20
f 166/8/20 77/8/20 139/8/20
f 234/8/20 166/8/20 91/8/20
f 100/13/23 120/13/23 232/13/23
f 232/13/23 229/13/23 76/13/23
f 226/13/23 75/13/23 13/13/23
f 168/8/20 11/8/20 166/8/20
f 229/13/23 120/13/23 210/13/23
f 229/13/23 210/13/23 97/13/23
f 75/13/23 97/13/23 107/13/23
f 138/11/24 152/11/24 67/11/24
f 138/11/24 208/11/24 165/11/24
f 208/11/24 119/11/24 255/11/24
f 262/11/24 247/11/24 67/11/24
f 113/11/24 44/11/24 208/11/24
f 113/11/24 247/11/24 203/11/24
f 44/11/24 113/11/24 65/11/24
