# Blender v2.74 (sub 0) OBJ File: 'explode.blend'
# www.blender.org
mtllib explode_000191.mtl
o Cube_Cube.001
v 0.526075 1.759091 -1.600760
v -1.102220 -2.780535 -0.569105
v 0.575154 -2.742015 -1.236027
v 0.117910 1.896620 -1.746015
v 0.515635 -2.799103 -1.197776
v 0.566146 1.924136 3.674326
v -1.169582 1.275510 -3.094585
v -0.885116 0.535313 -1.681165
v 0.453238 -1.034616 3.596310
v -4.501040 -0.336500 0.025449
v 0.316727 -2.906584 -0.803448
v -0.086043 2.009704 -1.577908
v -0.696492 0.458038 -1.862354
v -4.353459 0.006267 0.481342
v 0.427024 -0.795900 3.800028
v -4.351188 -0.343181 0.380780
v 0.212222 1.905792 -1.490278
v -1.106095 1.340560 -3.096136
v 0.453982 -1.042574 3.686867
v -1.084447 1.177571 -3.717577
v -0.852147 1.600759 -3.102338
v -1.247907 1.089445 -3.447479
v 0.149347 1.899677 -1.660769
v 0.487982 -2.631255 -0.558183
v -0.876471 1.628742 -2.924340
v -1.272231 1.117428 -3.269482
v 0.463200 1.752976 -1.771252
v -0.947991 0.561072 -1.620769
v -0.707749 2.747241 0.901321
v -1.020960 1.242621 -3.719127
v 0.567200 -0.893411 3.607784
v 0.549532 2.019296 3.759164
v 0.277563 -3.027451 -1.044773
v -0.759367 0.483796 -1.801958
v 0.415409 -2.728631 -0.600374
v 0.495625 -0.828739 3.522792
v 0.419332 2.129474 3.902327
v -0.746560 0.765676 -1.635170
v 0.344483 1.768800 3.707737
v -0.855620 0.714647 -1.590106
v -0.906148 1.386712 -3.633229
v 0.505196 2.119402 3.930440
v -0.821898 2.706496 1.001835
v 0.667412 1.728530 -1.457889
v 0.424050 -0.764068 3.437800
v -0.952120 1.577683 -2.833791
v -0.023168 2.015819 -1.407416
v 0.516211 1.748654 3.763964
v 0.502581 -2.839391 -1.278218
v -0.993640 -2.556737 -0.503989
v 0.460768 1.758546 3.936840
v -0.737336 1.744850 -3.016440
v -1.026941 -2.592074 -0.580844
v 0.342251 -1.207654 3.947065
v -0.948884 2.706119 1.021914
v -4.413683 0.017689 0.111560
v 0.448818 -2.752122 -0.799508
v 0.422709 -2.832699 -0.960391
v 0.227545 -1.340901 3.845035
v -1.135522 -2.815873 -0.645960
v 0.289040 1.778692 3.880613
v 0.306533 1.914965 -1.234541
v -1.299232 1.010404 -3.534928
v 0.456212 -1.066449 3.958538
v 0.274837 1.823269 -1.801256
v -1.096609 1.191563 -3.628578
v 0.353962 -0.715313 3.533923
v -1.363395 -2.573977 -0.335845
v -1.118257 1.354551 -3.007137
v -1.506296 -2.429474 -0.340366
v 0.226802 -1.332943 3.754477
v 0.455469 -1.058491 3.867982
v 0.275096 1.911907 -1.319787
v -0.661687 1.795909 -3.106989
v 0.498599 -0.860572 3.885020
v 0.474927 -2.671544 -0.638625
v -4.412548 -0.157035 0.061279
v 0.601263 -2.661438 -1.075144
v -0.039017 1.969971 -1.690774
v -1.035617 -2.709860 -0.415395
v 0.538425 1.929082 3.760764
v -4.414251 0.105051 0.136701
v 0.086891 1.799018 3.623395
v 0.389300 -2.809209 -0.761257
v -4.352324 -0.168457 0.431061
v -0.842661 1.451762 -3.634780
v -4.396214 -0.356455 0.097159
v -1.220906 1.196469 -3.182033
v 0.426280 -0.787942 3.709472
v 0.228198 1.779053 3.478633
v 0.424793 -0.772026 3.528358
v 0.604538 1.722415 -1.628381
v 0.627372 -2.580860 -0.914260
v 0.567943 -0.901369 3.698341
v -4.381584 -0.293789 0.208459
v -1.081770 1.312578 -3.274133
v -0.788863 0.304463 -1.893018
v -0.812985 1.693792 -2.925890
v -0.939958 1.563692 -2.922789
v 0.170056 1.784180 3.364082
v -1.057446 1.284595 -3.452131
v -1.081232 -2.703974 -0.613402
v 0.169821 -1.403546 3.748740
v 0.532917 2.114456 3.844003
v -0.977487 0.381739 -1.711828
v 0.283039 -1.254383 3.669657
v -0.803499 1.544794 -3.458333
v 0.218045 -3.084538 -1.006522
v -0.007579 1.973028 -1.605528
v 0.142334 1.789126 3.450520
v -0.827823 1.572777 -3.280335
v -0.792745 0.688888 -1.650502
v 0.369148 1.832441 -1.545519
v -4.352892 -0.081095 0.456201
v -1.342407 -2.497416 -0.380142
v -1.172258 1.140504 -3.538029
v -0.604121 0.611612 -1.831692
v -0.762695 2.649087 0.963576
v -0.775533 2.689456 0.883139
v -0.897924 0.253434 -1.847953
v -1.056605 -2.786422 -0.371098
v -4.337694 -0.105791 0.542362
v 0.557512 1.762148 -1.515514
v 0.340020 -1.183780 3.675394
v 0.055295 1.979143 -1.435037
v 0.339277 -1.175821 3.584836
v 0.482982 1.938974 3.933640
v -0.979121 1.470660 -3.099236
v 0.355449 -0.731229 3.715037
v -4.427745 -0.132339 -0.024881
v -0.830480 2.591302 0.945394
v 0.431763 1.749918 -1.856497
v 0.306274 1.826327 -1.716010
v 0.396599 -2.913276 -1.121275
v 0.463459 1.841614 -1.289782
v -1.384384 -2.650539 -0.291547
v -1.123209 -2.857097 -0.524808
v -4.426610 -0.307063 -0.075162
v -0.725174 1.730859 -3.105438
v -4.366954 -0.231123 0.319760
v -0.666996 0.637371 -1.771295
v -4.428881 0.042385 0.025400
v 0.582761 1.828976 3.589488
v 0.516303 2.209615 3.928841
v 0.264508 -3.067739 -1.125215
v 0.172755 1.788945 3.651509
v 0.570174 -0.925243 3.970012
v 0.699945 -2.483484 -0.872070
v 0.599376 1.733816 3.504650
v -0.893986 1.372721 -3.722228
v 0.571654 1.738762 3.591088
v -0.851738 0.330222 -1.832621
v 0.534445 -2.614457 -0.676876
v 0.580909 -2.597659 -0.795568
v -0.888634 1.642733 -2.835341
v -4.383287 -0.031703 0.283881
v -1.527285 -2.506036 -0.296069
v 0.031448 1.808910 3.796271
v 0.128419 1.889051 3.822785
v 0.300147 1.868906 3.879013
v -1.023673 0.304951 -1.727160
v 0.117312 1.798837 3.824385
v 0.383545 -2.953565 -1.201716
v -1.588241 -2.395504 -0.320479
v -0.620810 0.714158 -1.755963
v -0.713011 1.716868 -3.194437
v -0.694911 2.706873 0.981757
v 0.303672 -2.946873 -0.883890
v -1.609229 -2.472065 -0.276182
v -4.411412 -0.331759 0.010998
v -0.715688 1.581861 -3.637881
v 0.567854 -2.637947 -0.876010
v -1.040362 0.407497 -1.651432
v -1.199506 -2.641919 -0.375620
v 0.541745 -2.718525 -1.036893
v -1.033122 1.256613 -3.630128
v 0.353219 -0.707355 3.443366
v -4.382152 -0.206427 0.233600
v -1.075584 -2.522766 -0.484102
v 0.341507 -1.199696 3.856508
v 0.170565 -1.411504 3.839298
v 0.432022 1.838556 -1.375028
v 0.196633 1.948583 -1.292166
v 0.510486 1.801881 -1.402648
v 0.255920 1.774107 3.392195
v 0.427648 1.753962 3.448423
v -1.220495 -2.718481 -0.331323
v 0.008269 2.018876 -1.322171
v 0.244154 -3.003960 -0.845639
v 0.086732 1.982201 -1.349791
v -1.548273 -2.582598 -0.251772
v -0.991283 1.484651 -3.010238
v 0.399926 1.758908 3.534861
v -0.791337 1.530803 -3.547332
v 0.228289 -1.348859 3.935591
v -0.911103 2.573885 0.846776
v -1.208744 1.182478 -3.271032
v 0.569430 -0.917285 3.879455
v -0.764336 1.637826 -3.281886
v -4.338830 0.068933 0.592643
v -4.383855 0.055659 0.309021
v 0.541663 1.716300 -1.798872
v -0.740012 1.609844 -3.459883
v -1.184420 1.154495 -3.449029
v -1.178518 -2.565357 -0.419917
v 0.397118 1.949047 3.905526
v -0.930473 1.414695 -3.455232
v -0.954797 1.442677 -3.277234
vt 0.812400 0.500000
vt 0.750800 0.500000
vt 0.781600 0.500000
vt 0.935600 0.500000
vt 0.966400 0.500000
vt 0.904800 0.500000
vt 0.874000 0.500000
vt 0.843200 0.500000
vt 0.997200 0.500000
vn -0.304900 0.054400 0.950800
vn 0.366300 0.388700 0.845400
vn 0.513400 -0.454200 0.728100
vn 0.703100 -0.681400 0.203200
vn 0.651200 -0.631500 -0.420900
vn 0.944500 -0.110800 0.309300
vn 0.944500 -0.110800 0.309200
vn 0.626800 0.776600 0.063100
vn 0.141200 -0.444000 0.884800
vn 0.985900 0.052100 -0.158900
vn 0.985900 0.052100 -0.159000
vn 0.985900 0.052200 -0.159000
vn 0.230900 0.842200 -0.487300
vn 0.368100 0.914400 -0.168500
vn -0.122200 -0.992400 0.017600
vn 0.779100 -0.623800 -0.061200
vn 0.901400 -0.373700 -0.218800
vn 0.006200 -0.961000 -0.276500
vn 0.742100 -0.639700 0.200000
usemtl Explode_Fade
s off
f 206/1/1 160/1/1 61/1/1
f 61/1/1 51/1/1 127/1/1
f 50/2/2 179/2/2 205/2/2
f 50/2/2 174/2/2 80/2/2
f 187/2/2 121/2/2 80/2/2
f 97/3/3 152/3/3 120/3/3
f 152/3/3 105/3/3 161/3/3
f 161/3/3 105/3/3 173/3/3
f 86/4/4 41/4/4 150/4/4
f 176/4/4 30/4/4 150/4/4
f 176/4/4 66/4/4 20/4/4
f 164/2/2 169/2/2 157/2/2
f 68/2/2 115/2/2 70/2/2
f 68/2/2 174/2/2 205/2/2
f 194/4/4 171/4/4 203/4/4
f 41/4/4 86/4/4 194/4/4
f 41/4/4 107/4/4 207/4/4
f 207/4/4 101/4/4 176/4/4
f 116/4/4 66/4/4 176/4/4
f 191/2/2 157/2/2 169/2/2
f 204/4/4 176/4/4 101/4/4
f 22/4/4 63/4/4 116/4/4
f 136/2/2 68/2/2 157/2/2
f 136/2/2 187/2/2 174/2/2
f 203/4/4 199/4/4 111/4/4
f 107/4/4 111/4/4 208/4/4
f 208/4/4 96/4/4 101/4/4
f 101/4/4 96/4/4 197/4/4
f 22/4/4 204/4/4 197/4/4
f 74/4/4 139/4/4 166/4/4
f 199/4/4 166/4/4 139/4/4
f 111/4/4 139/4/4 21/4/4
f 21/4/4 128/4/4 208/4/4
f 128/4/4 18/4/4 96/4/4
f 7/4/4 88/4/4 197/4/4
f 18/4/4 197/4/4 96/4/4
f 26/4/4 197/4/4 88/4/4
f 52/4/4 139/4/4 74/4/4
f 52/4/4 98/4/4 25/4/4
f 139/4/4 25/4/4 21/4/4
f 99/4/4 192/4/4 128/4/4
f 25/4/4 128/4/4 21/4/4
f 192/4/4 69/4/4 18/4/4
f 7/4/4 18/4/4 69/4/4
f 155/4/4 25/4/4 98/4/4
f 25/4/4 155/4/4 46/4/4
f 165/3/3 141/3/3 117/3/3
f 117/3/3 141/3/3 34/3/3
f 34/3/3 152/3/3 97/3/3
f 165/3/3 38/3/3 112/3/3
f 112/3/3 8/3/3 34/3/3
f 34/3/3 8/3/3 105/3/3
f 40/3/3 112/3/3 38/3/3
f 28/3/3 8/3/3 112/3/3
f 173/3/3 105/3/3 8/3/3
f 119/5/5 29/5/5 167/5/5
f 48/1/6 81/1/6 127/1/6
f 81/1/7 32/1/7 104/1/7
f 81/1/6 42/1/6 127/1/6
f 144/1/6 42/1/6 104/1/6
f 131/5/5 196/5/5 119/5/5
f 151/1/6 143/1/6 6/1/6
f 151/1/6 81/1/6 48/1/6
f 32/1/6 81/1/6 6/1/6
f 143/1/6 151/1/6 149/1/6
f 147/6/8 198/6/8 75/6/8
f 15/6/8 75/6/8 198/6/8
f 89/6/8 198/6/8 94/6/8
f 15/6/8 89/6/8 129/6/8
f 31/6/8 36/6/8 91/6/8
f 94/6/8 91/6/8 89/6/8
f 129/6/8 89/6/8 91/6/8
f 45/6/8 91/6/8 36/6/8
f 45/6/8 177/6/8 67/6/8
f 43/5/9 118/5/9 167/5/9
f 43/5/9 55/5/9 131/5/9
f 37/1/1 42/1/1 144/1/1
f 37/1/1 206/1/1 127/1/1
f 14/7/10 200/7/10 122/7/10
f 156/7/11 201/7/11 14/7/11
f 56/7/11 82/7/11 201/7/11
f 82/7/12 56/7/12 142/7/12
f 85/7/12 114/7/12 122/7/12
f 85/7/12 140/7/12 178/7/12
f 114/7/12 178/7/12 156/7/12
f 178/7/12 77/7/12 56/7/12
f 142/7/12 56/7/12 77/7/12
f 179/2/13 50/2/13 53/2/13
f 140/7/11 16/7/11 95/7/11
f 178/7/12 95/7/12 87/7/12
f 178/7/12 170/7/12 77/7/12
f 77/7/11 170/7/11 138/7/11
f 158/1/1 162/1/1 159/1/1
f 61/1/1 160/1/1 159/1/1
f 184/8/14 182/8/14 135/8/14
f 135/8/14 182/8/14 73/8/14
f 62/8/14 73/8/14 183/8/14
f 123/8/14 44/8/14 92/8/14
f 123/8/14 1/8/14 182/8/14
f 182/8/14 1/8/14 113/8/14
f 182/8/14 113/8/14 17/8/14
f 125/8/14 190/8/14 183/8/14
f 125/8/14 73/8/14 17/8/14
f 125/8/14 47/8/14 188/8/14
f 1/8/14 92/8/14 202/8/14
f 27/8/14 133/8/14 113/8/14
f 133/8/14 23/8/14 17/8/14
f 23/8/14 109/8/14 125/8/14
f 12/8/14 47/8/14 125/8/14
f 132/8/14 27/8/14 202/8/14
f 65/8/14 133/8/14 27/8/14
f 4/8/14 23/8/14 133/8/14
f 4/8/14 79/8/14 109/8/14
f 12/8/14 109/8/14 79/8/14
f 51/1/15 61/1/15 39/1/15
f 193/1/15 151/1/15 48/1/15
f 186/1/15 149/1/15 151/1/15
f 72/6/16 198/6/16 147/6/16
f 19/6/16 94/6/16 198/6/16
f 9/6/16 31/6/16 94/6/16
f 102/2/17 53/2/17 50/2/17
f 2/2/17 50/2/17 80/2/17
f 102/2/17 2/2/17 60/2/17
f 10/7/18 170/7/18 87/7/18
f 138/7/18 170/7/18 10/7/18
f 83/1/15 146/1/15 162/1/15
f 162/1/15 146/1/15 39/1/15
f 121/2/17 137/2/17 2/2/17
f 60/2/17 2/2/17 137/2/17
f 83/1/15 110/1/15 90/1/15
f 146/1/15 90/1/15 193/1/15
f 100/1/15 185/1/15 90/1/15
f 185/1/15 186/1/15 193/1/15
f 3/9/19 5/9/19 49/9/19
f 163/9/19 49/9/19 5/9/19
f 163/9/19 134/9/19 33/9/19
f 145/9/19 33/9/19 108/9/19
f 181/6/16 59/6/16 195/6/16
f 195/6/16 59/6/16 180/6/16
f 72/6/16 64/6/16 54/6/16
f 78/9/19 175/9/19 5/9/19
f 175/9/19 58/9/19 134/9/19
f 58/9/19 168/9/19 33/9/19
f 189/9/19 108/9/19 33/9/19
f 181/6/16 103/6/16 71/6/16
f 59/6/16 71/6/16 106/6/16
f 59/6/16 124/6/16 180/6/16
f 180/6/16 124/6/16 19/6/16
f 78/9/19 93/9/19 172/9/19
f 175/9/19 172/9/19 57/9/19
f 57/9/19 84/9/19 11/9/19
f 57/9/19 168/9/19 58/9/19
f 189/9/19 168/9/19 11/9/19
f 126/6/16 124/6/16 106/6/16
f 126/6/16 9/6/16 19/6/16
f 93/9/19 148/9/19 154/9/19
f 154/9/19 153/9/19 76/9/19
f 172/9/19 76/9/19 57/9/19
f 76/9/19 35/9/19 84/9/19
f 24/9/19 76/9/19 153/9/19
f 35/9/19 76/9/19 24/9/19
f 127/1/1 206/1/1 61/1/1
f 174/2/2 50/2/2 205/2/2
f 174/2/2 187/2/2 80/2/2
f 120/3/3 152/3/3 161/3/3
f 41/4/4 176/4/4 150/4/4
f 30/4/4 176/4/4 20/4/4
f 70/2/2 164/2/2 157/2/2
f 157/2/2 68/2/2 70/2/2
f 115/2/2 68/2/2 205/2/2
f 107/4/4 194/4/4 203/4/4
f 107/4/4 41/4/4 194/4/4
f 41/4/4 207/4/4 176/4/4
f 204/4/4 116/4/4 176/4/4
f 204/4/4 22/4/4 116/4/4
f 191/2/2 136/2/2 157/2/2
f 68/2/2 136/2/2 174/2/2
f 107/4/4 203/4/4 111/4/4
f 207/4/4 107/4/4 208/4/4
f 207/4/4 208/4/4 101/4/4
f 204/4/4 101/4/4 197/4/4
f 26/4/4 22/4/4 197/4/4
f 111/4/4 199/4/4 139/4/4
f 111/4/4 21/4/4 208/4/4
f 208/4/4 128/4/4 96/4/4
f 18/4/4 7/4/4 197/4/4
f 139/4/4 52/4/4 25/4/4
f 25/4/4 99/4/4 128/4/4
f 128/4/4 192/4/4 18/4/4
f 99/4/4 25/4/4 46/4/4
f 13/3/3 117/3/3 34/3/3
f 13/3/3 34/3/3 97/3/3
f 141/3/3 165/3/3 112/3/3
f 141/3/3 112/3/3 34/3/3
f 152/3/3 34/3/3 105/3/3
f 40/3/3 28/3/3 112/3/3
f 28/3/3 173/3/3 8/3/3
f 118/5/5 119/5/5 167/5/5
f 51/1/6 48/1/6 127/1/6
f 42/1/7 81/1/7 104/1/7
f 118/5/5 131/5/5 119/5/5
f 81/1/6 151/1/6 6/1/6
f 89/6/8 15/6/8 198/6/8
f 94/6/8 31/6/8 91/6/8
f 67/6/8 129/6/8 91/6/8
f 91/6/8 45/6/8 67/6/8
f 118/5/9 43/5/9 131/5/9
f 42/1/1 37/1/1 127/1/1
f 114/7/11 14/7/11 122/7/11
f 114/7/11 156/7/11 14/7/11
f 156/7/12 56/7/12 201/7/12
f 114/7/11 85/7/11 178/7/11
f 156/7/11 178/7/11 56/7/11
f 130/7/11 142/7/11 77/7/11
f 178/7/12 140/7/12 95/7/12
f 170/7/11 178/7/11 87/7/11
f 130/7/12 77/7/12 138/7/12
f 162/1/1 61/1/1 159/1/1
f 62/8/14 135/8/14 73/8/14
f 1/8/14 123/8/14 92/8/14
f 184/8/14 123/8/14 182/8/14
f 73/8/14 182/8/14 17/8/14
f 73/8/14 125/8/14 183/8/14
f 190/8/14 125/8/14 188/8/14
f 27/8/14 1/8/14 202/8/14
f 1/8/14 27/8/14 113/8/14
f 113/8/14 133/8/14 17/8/14
f 17/8/14 23/8/14 125/8/14
f 109/8/14 12/8/14 125/8/14
f 132/8/14 65/8/14 27/8/14
f 65/8/14 4/8/14 133/8/14
f 23/8/14 4/8/14 109/8/14
f 48/1/15 51/1/15 39/1/15
f 39/1/15 193/1/15 48/1/15
f 193/1/15 186/1/15 151/1/15
f 64/6/16 72/6/16 147/6/16
f 72/6/16 19/6/16 198/6/16
f 19/6/16 9/6/16 94/6/16
f 2/2/17 102/2/17 50/2/17
f 158/1/15 83/1/15 162/1/15
f 61/1/15 162/1/15 39/1/15
f 80/2/17 121/2/17 2/2/17
f 146/1/15 83/1/15 90/1/15
f 39/1/15 146/1/15 193/1/15
f 110/1/15 100/1/15 90/1/15
f 90/1/15 185/1/15 193/1/15
f 134/9/19 163/9/19 5/9/19
f 145/9/19 163/9/19 33/9/19
f 54/6/16 195/6/16 180/6/16
f 180/6/16 72/6/16 54/6/16
f 3/9/19 78/9/19 5/9/19
f 5/9/19 175/9/19 134/9/19
f 134/9/19 58/9/19 33/9/19
f 168/9/19 189/9/19 33/9/19
f 59/6/16 181/6/16 71/6/16
f 124/6/16 59/6/16 106/6/16
f 72/6/16 180/6/16 19/6/16
f 175/9/19 78/9/19 172/9/19
f 58/9/19 175/9/19 57/9/19
f 168/9/19 57/9/19 11/9/19
f 124/6/16 126/6/16 19/6/16
f 172/9/19 93/9/19 154/9/19
f 172/9/19 154/9/19 76/9/19
f 57/9/19 76/9/19 84/9/19
