# Blender v2.74 (sub 0) OBJ File: 'explode.blend'
# www.blender.org
mtllib explode_000202.mtl
o Cube_Cube.001
v -1.268067 -3.636554 -0.550703
v -1.672143 -3.285492 -0.321964
v -1.733099 -3.174960 -0.346374
v -1.693131 -3.362054 -0.277667
v -1.247078 -3.559992 -0.595000
v -1.323376 -3.344813 -0.445812
v -1.651155 -3.208930 -0.366261
v -1.754087 -3.251521 -0.302077
v -1.280380 -3.595330 -0.671855
v -1.529242 -3.429996 -0.317442
v -1.365353 -3.497937 -0.357218
v -1.487265 -3.276872 -0.406037
v -1.508254 -3.353434 -0.361739
v -1.180475 -3.489317 -0.441290
v -1.201463 -3.565878 -0.396993
v -1.220442 -3.302222 -0.509997
v -1.138498 -3.336194 -0.529884
v -1.171800 -3.371531 -0.606739
v -1.226090 -3.483430 -0.639298
v -1.344364 -3.421375 -0.401515
vt 0.970800 0.500000
vn 0.366300 0.388700 0.845400
vn 0.230900 0.842200 -0.487300
vn 0.901400 -0.373700 -0.218800
usemtl Explode_Fade
s off
f 17/1/1 16/1/1 6/1/1
f 17/1/1 20/1/1 14/1/1
f 11/1/1 15/1/1 14/1/1
f 8/1/1 2/1/1 7/1/1
f 2/1/1 13/1/1 12/1/1
f 20/1/1 6/1/1 12/1/1
f 4/1/1 2/1/1 8/1/1
f 10/1/1 13/1/1 2/1/1
f 11/1/1 20/1/1 13/1/1
f 16/1/2 17/1/2 18/1/2
f 5/1/3 19/1/3 18/1/3
f 5/1/3 17/1/3 14/1/3
f 19/1/3 5/1/3 9/1/3
f 15/1/3 1/1/3 5/1/3
f 5/1/3 1/1/3 9/1/3
f 20/1/1 17/1/1 6/1/1
f 20/1/1 11/1/1 14/1/1
f 3/1/1 8/1/1 7/1/1
f 7/1/1 2/1/1 12/1/1
f 13/1/1 20/1/1 12/1/1
f 4/1/1 10/1/1 2/1/1
f 10/1/1 11/1/1 13/1/1
f 17/1/3 5/1/3 18/1/3
f 14/1/3 15/1/3 5/1/3
