# Blender v2.74 (sub 0) OBJ File: 'explode.blend'
# www.blender.org
mtllib explode_000203.mtl
o Cube_Cube.001
v -1.281236 -3.707413 -0.553057
v -1.685312 -3.356352 -0.324318
v -1.746268 -3.245819 -0.348728
v -1.706300 -3.432914 -0.280021
v -1.260247 -3.630852 -0.597354
v -1.336545 -3.415673 -0.448166
v -1.664323 -3.279790 -0.368615
v -1.767257 -3.322381 -0.304431
v -1.293549 -3.666189 -0.674209
v -1.542411 -3.500855 -0.319796
v -1.378522 -3.568797 -0.359572
v -1.500434 -3.347732 -0.408391
v -1.521423 -3.424294 -0.364094
v -1.193644 -3.560177 -0.443644
v -1.214632 -3.636738 -0.399347
v -1.233612 -3.373082 -0.512351
v -1.151667 -3.407053 -0.532238
v -1.184968 -3.442390 -0.609093
v -1.239259 -3.554290 -0.641652
v -1.357533 -3.492235 -0.403869
vt 0.990800 0.500000
vn 0.366300 0.388700 0.845400
vn 0.230900 0.842200 -0.487300
vn 0.901400 -0.373700 -0.218800
usemtl Explode_Fade
s off
f 17/1/1 16/1/1 6/1/1
f 17/1/1 20/1/1 14/1/1
f 15/1/1 14/1/1 20/1/1
f 3/1/1 8/1/1 2/1/1
f 13/1/1 12/1/1 7/1/1
f 13/1/1 20/1/1 6/1/1
f 4/1/1 2/1/1 8/1/1
f 10/1/1 13/1/1 2/1/1
f 10/1/1 11/1/1 20/1/1
f 16/1/2 17/1/2 18/1/2
f 19/1/3 18/1/3 17/1/3
f 5/1/3 17/1/3 14/1/3
f 19/1/3 5/1/3 9/1/3
f 1/1/3 5/1/3 14/1/3
f 5/1/3 1/1/3 9/1/3
f 20/1/1 17/1/1 6/1/1
f 11/1/1 15/1/1 20/1/1
f 7/1/1 3/1/1 2/1/1
f 2/1/1 13/1/1 7/1/1
f 12/1/1 13/1/1 6/1/1
f 4/1/1 10/1/1 2/1/1
f 13/1/1 10/1/1 20/1/1
f 5/1/3 19/1/3 17/1/3
f 15/1/3 1/1/3 14/1/3
