# Blender v2.74 (sub 0) OBJ File: 'explode.blend'
# www.blender.org
mtllib explode_000186.mtl
o Cube_Cube.001
v 0.562631 -2.458674 -1.148389
v -1.036376 -2.426237 -0.557335
v 0.493305 1.752218 -1.457387
v 2.799049 -0.704608 -0.670829
v 0.503113 -2.515761 -1.110138
v 0.085140 1.889747 -1.602641
v 0.418930 1.753693 3.370995
v -1.097421 1.171637 -2.843373
v -0.725380 0.478945 -1.565081
v -4.108074 -0.304492 0.034096
v 0.418518 -0.884013 3.325674
v 3.014455 -0.833695 -0.222054
v 0.304204 -2.623243 -0.715810
v -2.457215 4.858552 -1.947868
v -0.118813 2.002831 -1.434534
v -0.536756 0.401670 -1.746270
v -3.960494 0.038275 0.489989
v 0.392304 -0.645297 3.529392
v 2.858653 -0.669515 -0.100045
v 2.631222 -0.515518 -0.462221
v 2.553321 -0.433427 -0.401217
v -3.958222 -0.311172 0.389428
v 0.179451 1.898919 -1.346904
v -1.033934 1.236686 -2.844923
v 0.419261 -0.891971 3.416231
v 2.601420 -0.533064 -0.747613
v -1.012286 1.073698 -3.466364
v -0.779986 1.496886 -2.851125
v -1.175746 0.985572 -3.196267
v 0.116577 1.892804 -1.517396
v 0.475459 -2.347914 -0.470546
v -2.342150 4.556147 -1.895435
v -0.804311 1.524868 -2.673128
v -1.200070 1.013554 -3.018270
v 0.430430 1.746103 -1.627878
v -0.788255 0.504704 -1.504685
v 2.787024 -0.679699 -0.584230
v 2.906753 -0.769152 -0.446441
v -0.704286 2.693579 0.884023
v -2.409423 4.869864 -2.145124
v -0.948799 1.138748 -3.467915
v 0.532480 -0.742808 3.337147
v -2.375787 4.713006 -2.020280
v 0.402315 1.848853 3.455833
v 0.265040 -2.744109 -0.957135
v -0.599631 0.427428 -1.685874
v 0.402886 -2.445290 -0.512736
v 0.460905 -0.678136 3.252156
v 0.272115 1.959031 3.598995
v -0.586824 0.709307 -1.519086
v 2.750950 -0.604971 -0.324433
v 0.197267 1.598357 3.404405
v -0.695884 0.658278 -1.474021
v -0.833987 1.282838 -3.382017
v 0.357979 1.948958 3.627109
v -0.818435 2.652834 0.984538
v 0.634642 1.721657 -1.314516
v 0.389330 -0.613465 3.167164
v -0.879959 1.473809 -2.582578
v -0.055938 2.008945 -1.264043
v 0.490058 -2.556049 -1.190580
v 0.368995 1.578211 3.460633
v -0.927795 -2.202438 -0.492219
v 0.313552 1.588103 3.633508
v -0.665175 1.640976 -2.765228
v -0.961097 -2.237776 -0.569074
v 0.307530 -1.057050 3.676429
v -0.945421 2.652457 1.004616
v -4.020717 0.049697 0.120208
v 0.436295 -2.468780 -0.711870
v 0.410186 -2.549357 -0.872754
v 0.192825 -1.190298 3.574398
v -1.069677 -2.461575 -0.634190
v -2.365170 4.839135 -2.261856
v 0.141824 1.608249 3.577281
v 0.273763 1.908092 -1.091168
v -1.227071 0.906531 -3.283715
v 0.421492 -0.915845 3.687902
v 0.242066 1.816396 -1.657882
v -1.024448 1.087689 -3.377366
v 0.319242 -0.564710 3.263287
v -1.297551 -2.219679 -0.324074
v -1.046096 1.250678 -2.755925
v -1.440452 -2.075176 -0.328596
v 0.192082 -1.182340 3.483841
v 0.420748 -0.907887 3.597345
v -2.453676 4.900595 -2.028393
v 0.242326 1.905034 -1.176413
v -0.589526 1.692035 -2.855777
v 0.463878 -0.709968 3.614384
v 0.462405 -2.388203 -0.550987
v -2.545498 4.739812 -1.808479
v -4.019581 -0.125027 0.069927
v 0.588740 -2.378096 -0.987506
v -0.071787 1.963098 -1.547400
v -0.969772 -2.355562 -0.403625
v 0.391209 1.758639 3.457433
v -4.021285 0.137059 0.145348
v -0.060325 1.628575 3.320064
v 0.376777 -2.525867 -0.673620
v -2.327994 4.724319 -2.217536
v -3.959358 -0.136449 0.439708
v 2.852901 -0.736880 -0.558635
v -0.770501 1.347888 -3.383568
v -4.003248 -0.324447 0.105806
v -1.148745 1.092595 -2.930821
v 0.391560 -0.637339 3.438835
v 0.614850 -2.297519 -0.826623
v 0.080982 1.608610 3.175302
v 0.390073 -0.621423 3.257721
v 0.571768 1.715542 -1.485007
v 0.533223 -0.750765 3.427705
v -3.988618 -0.261781 0.217107
v -1.009609 1.208704 -3.022921
v 0.022839 1.613737 3.060750
v -0.629127 0.248095 -1.776933
v -0.740824 1.589918 -2.674678
v -0.867797 1.459818 -2.671577
v 0.135101 -1.252943 3.478105
v -1.015387 -2.349675 -0.601632
v -0.985285 1.180721 -3.200919
v 2.870678 -0.694424 -0.186644
v 0.385701 1.944013 3.540670
v -0.817751 0.325370 -1.595744
v 0.248319 -1.103779 3.399021
v 0.205522 -2.801196 -0.918885
v -0.731338 1.440921 -3.207121
v -0.004882 1.618683 3.147188
v -0.040349 1.966155 -1.462155
v 2.960603 -0.801424 -0.334247
v -2.382864 4.628921 -1.859229
v -0.755662 1.468903 -3.029123
v -0.633009 0.632520 -1.534418
v 0.336378 1.825569 -1.402145
v -3.959925 -0.049087 0.464849
v -1.276562 -2.143117 -0.368371
v -1.100097 1.036630 -3.286817
v -0.444385 0.555244 -1.715607
v 2.667296 -0.590245 -0.722018
v -0.759232 2.595426 0.946278
v -0.772070 2.635794 0.865842
v -0.738187 0.197066 -1.731869
v -0.990761 -2.432124 -0.359328
v 3.056282 -0.841058 -0.023261
v -3.944727 -0.073783 0.551009
v 0.524742 1.755275 -1.372141
v 0.305300 -1.033176 3.404757
v 2.762975 -0.629880 -0.411032
v 0.304556 -1.025218 3.314200
v 0.022525 1.972270 -1.291663
v 0.335766 1.768531 3.630308
v -0.906960 1.366786 -2.848024
v 0.320729 -0.580626 3.444401
v -4.034780 -0.100331 -0.016234
v 2.655272 -0.565336 -0.635419
v -0.827017 2.537640 0.928097
v 3.068307 -0.865967 -0.109860
v -2.368709 4.797091 -2.181331
v 0.398993 1.743045 -1.713124
v 0.273504 1.819454 -1.572637
v 0.384076 -2.629935 -1.033637
v 0.430689 1.834741 -1.146409
v -1.318539 -2.296241 -0.279777
v -1.057364 -2.502799 -0.513038
v -4.033644 -0.275055 -0.066514
v -0.653013 1.626985 -2.854226
v 3.002431 -0.808786 -0.135455
v -2.335072 4.640233 -2.056485
v -3.973988 -0.199114 0.328408
v 2.619197 -0.490609 -0.375622
v -0.507260 0.581003 -1.655211
v -2.586213 4.812585 -1.772273
v -4.035914 0.074393 0.034047
v 0.435545 1.658533 3.286157
v 0.369086 2.039172 3.625509
v 0.251986 -2.784398 -1.037577
v 0.025539 1.618502 3.348178
v 0.535453 -0.774640 3.699376
v 0.687422 -2.200143 -0.784432
v -2.505007 4.847240 -1.750611
v 0.452159 1.563373 3.201319
v -0.821825 1.268847 -3.471016
v 0.424438 1.568319 3.287757
v -0.692002 0.273853 -1.716537
v 0.521923 -2.331116 -0.589238
v 0.568386 -2.314317 -0.707930
v -0.816473 1.538860 -2.584129
v -3.990321 0.000305 0.292528
v -1.461440 -2.151737 -0.284299
v -0.115768 1.638467 3.492940
v -0.018797 1.718608 3.519454
v 0.152931 1.698462 3.575681
v -0.863937 0.248583 -1.611076
v 0.371022 -2.670224 -1.114079
v -0.029904 1.628394 3.521054
v 2.589395 -0.508155 -0.661014
v -1.522396 -2.041205 -0.308708
v -0.461074 0.657790 -1.639879
v -0.640850 1.612994 -2.943225
v -0.691448 2.653211 0.964460
v 0.291150 -2.663532 -0.796252
v -1.543385 -2.117767 -0.264411
v -4.018445 -0.299751 0.019646
v 0.555332 -2.354606 -0.788372
v -0.643527 1.477988 -3.386669
v -0.880626 0.351129 -1.535348
v 0.529222 -2.435184 -0.949255
v -1.133661 -2.287621 -0.363849
v 0.306787 -1.049093 3.585872
v -0.960961 1.152739 -3.378916
v 0.318498 -0.556751 3.172730
v -3.989186 -0.174419 0.242247
v -1.009740 -2.168468 -0.472331
v 0.135844 -1.260901 3.568661
v 0.399252 1.831684 -1.231654
v 0.163862 1.941709 -1.148793
v 0.108703 1.603664 3.088864
v 0.477715 1.795008 -1.259275
v 2.990406 -0.783877 -0.048856
v -2.402345 4.953950 -2.306175
v -2.283741 4.693588 -2.334268
v 0.280431 1.583519 3.145091
v -1.154650 -2.364183 -0.319552
v 0.231631 -2.720618 -0.758001
v -0.024501 2.012003 -1.178797
v -2.497929 4.931325 -1.911662
v 0.053962 1.975327 -1.206418
v -1.482429 -2.228299 -0.240002
v -0.919122 1.380777 -2.759026
v 0.252710 1.588465 3.231529
v -0.719176 1.426929 -3.296120
v 0.193569 -1.198256 3.664955
v -0.907640 2.520223 0.829478
v -1.136583 1.078604 -3.019820
v 0.534710 -0.766681 3.608819
v -0.692175 1.533953 -3.030674
v -3.945863 0.100941 0.601290
v -3.990889 0.087667 0.317669
v 0.508893 1.709427 -1.655498
v -0.667851 1.505970 -3.208671
v -2.464070 4.594266 -1.880891
v -1.112259 1.050622 -3.197817
v 2.894727 -0.744242 -0.359842
v 2.804802 -0.637243 -0.212239
v -2.464293 4.774467 -1.786817
v -1.112673 -2.211059 -0.408146
v 0.249902 1.778604 3.602195
v -0.858312 1.310821 -3.204020
v 2.565346 -0.458337 -0.487816
v -0.882636 1.338803 -3.026022
vt 0.712400 0.500000
vt 0.650800 0.500000
vt 0.681600 0.500000
vt 0.835600 0.500000
vt 0.958800 0.500000
vt 0.866400 0.500000
vt 0.804800 0.500000
vt 0.774000 0.500000
vt 0.743200 0.500000
vt 0.928001 0.500000
vt 0.897200 0.500000
vn -0.304900 0.054400 0.950800
vn 0.366300 0.388700 0.845400
vn 0.513400 -0.454200 0.728100
vn 0.703100 -0.681400 0.203200
vn -0.038900 -0.462500 0.885800
vn 0.651200 -0.631500 -0.420900
vn 0.944500 -0.110800 0.309300
vn 0.944500 -0.110800 0.309200
vn 0.626800 0.776600 0.063100
vn 0.141200 -0.444000 0.884800
vn 0.985900 0.052200 -0.159000
vn 0.985900 0.052100 -0.159000
vn 0.230900 0.842200 -0.487300
vn 0.368100 0.914400 -0.168500
vn 0.893300 0.381200 0.238300
vn 0.676300 0.727500 -0.115400
vn 0.676300 0.727500 -0.115300
vn -0.122200 -0.992400 0.017600
vn 0.779100 -0.623800 -0.061200
vn 0.901400 -0.373700 -0.218800
vn 0.006200 -0.961000 -0.276500
vn 0.742100 -0.639700 0.200000
vn 0.779100 -0.623900 -0.061200
usemtl Explode_Fade
s off
f 151/1/1 247/1/1 192/1/1
f 75/1/1 64/1/1 151/1/1
f 63/2/2 213/2/2 246/2/2
f 63/2/2 208/2/2 96/2/2
f 143/2/2 96/2/2 208/2/2
f 116/3/3 184/3/3 142/3/3
f 184/3/3 124/3/3 193/3/3
f 193/3/3 124/3/3 206/3/3
f 104/4/4 54/4/4 182/4/4
f 210/4/4 41/4/4 182/4/4
f 210/4/4 80/4/4 27/4/4
f 197/2/2 202/2/2 189/2/2
f 82/2/2 136/2/2 84/2/2
f 82/2/2 208/2/2 246/2/2
f 32/5/5 131/5/5 241/5/5
f 231/4/4 205/4/4 240/4/4
f 54/4/4 104/4/4 231/4/4
f 54/4/4 127/4/4 248/4/4
f 248/4/4 121/4/4 210/4/4
f 242/4/4 137/4/4 80/4/4
f 228/2/2 189/2/2 202/2/2
f 242/4/4 210/4/4 121/4/4
f 29/4/4 77/4/4 137/4/4
f 228/2/2 163/2/2 82/2/2
f 223/2/2 208/2/2 82/2/2
f 131/5/5 245/5/5 92/5/5
f 240/4/4 236/4/4 132/4/4
f 132/4/4 250/4/4 248/4/4
f 250/4/4 114/4/4 121/4/4
f 121/4/4 114/4/4 234/4/4
f 34/4/4 29/4/4 242/4/4
f 180/5/5 172/5/5 92/5/5
f 89/4/4 166/4/4 199/4/4
f 236/4/4 199/4/4 166/4/4
f 132/4/4 166/4/4 28/4/4
f 28/4/4 152/4/4 250/4/4
f 152/4/4 24/4/4 114/4/4
f 8/4/4 106/4/4 234/4/4
f 24/4/4 234/4/4 114/4/4
f 34/4/4 234/4/4 106/4/4
f 65/4/4 166/4/4 89/4/4
f 65/4/4 117/4/4 33/4/4
f 166/4/4 33/4/4 28/4/4
f 33/4/4 118/4/4 229/4/4
f 33/4/4 152/4/4 28/4/4
f 83/4/4 24/4/4 152/4/4
f 8/4/4 24/4/4 83/4/4
f 187/4/4 33/4/4 117/4/4
f 33/4/4 187/4/4 59/4/4
f 198/3/3 171/3/3 138/3/3
f 16/3/3 138/3/3 171/3/3
f 46/3/3 184/3/3 116/3/3
f 198/3/3 50/3/3 133/3/3
f 133/3/3 9/3/3 46/3/3
f 46/3/3 9/3/3 124/3/3
f 53/3/3 133/3/3 50/3/3
f 53/3/3 36/3/3 9/3/3
f 206/3/3 124/3/3 9/3/3
f 141/6/6 39/6/6 200/6/6
f 62/1/7 97/1/7 151/1/7
f 44/1/7 123/1/7 55/1/7
f 97/1/7 55/1/7 151/1/7
f 175/1/7 55/1/7 123/1/7
f 156/6/6 233/6/6 141/6/6
f 174/1/7 7/1/7 97/1/7
f 183/1/7 97/1/7 62/1/7
f 44/1/8 97/1/8 7/1/8
f 174/1/8 183/1/8 181/1/8
f 178/7/9 235/7/9 90/7/9
f 18/7/9 90/7/9 235/7/9
f 107/7/9 235/7/9 112/7/9
f 18/7/9 107/7/9 153/7/9
f 42/7/9 48/7/9 110/7/9
f 112/7/9 110/7/9 107/7/9
f 153/7/9 107/7/9 110/7/9
f 58/7/9 110/7/9 48/7/9
f 110/7/9 58/7/9 211/7/9
f 56/6/10 140/6/10 200/6/10
f 56/6/10 68/6/10 156/6/10
f 49/1/1 55/1/1 175/1/1
f 247/1/1 151/1/1 55/1/1
f 17/8/11 237/8/11 145/8/11
f 188/8/12 238/8/12 17/8/12
f 69/8/12 98/8/12 238/8/12
f 98/8/11 69/8/11 173/8/11
f 102/8/12 135/8/12 145/8/12
f 135/8/11 102/8/11 169/8/11
f 135/8/11 212/8/11 188/8/11
f 188/8/11 212/8/11 93/8/11
f 173/8/12 69/8/12 93/8/12
f 213/2/13 63/2/13 66/2/13
f 169/8/11 22/8/11 113/8/11
f 113/8/12 105/8/12 203/8/12
f 212/8/11 203/8/11 93/8/11
f 203/8/11 165/8/11 154/8/11
f 190/1/1 195/1/1 191/1/1
f 195/1/1 75/1/1 192/1/1
f 218/9/14 215/9/14 162/9/14
f 162/9/14 215/9/14 88/9/14
f 76/9/14 88/9/14 216/9/14
f 146/9/14 57/9/14 111/9/14
f 215/9/14 218/9/14 146/9/14
f 215/9/14 3/9/14 134/9/14
f 134/9/14 23/9/14 88/9/14
f 227/9/14 216/9/14 88/9/14
f 150/9/14 88/9/14 23/9/14
f 150/9/14 60/9/14 225/9/14
f 239/9/14 35/9/14 3/9/14
f 3/9/14 35/9/14 160/9/14
f 160/9/14 30/9/14 23/9/14
f 23/9/14 30/9/14 129/9/14
f 15/9/14 60/9/14 150/9/14
f 159/9/14 35/9/14 239/9/14
f 79/9/14 160/9/14 35/9/14
f 6/9/14 30/9/14 160/9/14
f 6/9/14 95/9/14 129/9/14
f 15/9/14 129/9/14 95/9/14
f 226/5/15 180/5/15 245/5/15
f 226/5/15 14/5/15 87/5/15
f 245/5/15 131/5/15 43/5/15
f 40/5/15 87/5/15 14/5/15
f 158/5/15 14/5/15 43/5/15
f 74/5/15 220/5/15 40/5/15
f 32/5/15 168/5/15 43/5/15
f 101/5/15 158/5/15 43/5/15
f 101/5/15 221/5/15 74/5/15
f 12/10/16 167/10/16 157/10/16
f 157/10/16 167/10/16 219/10/16
f 38/10/17 243/10/17 130/10/17
f 12/10/16 130/10/16 243/10/16
f 167/10/16 243/10/16 122/10/16
f 219/10/16 167/10/16 122/10/16
f 4/10/16 37/10/16 103/10/16
f 243/10/16 38/10/16 103/10/16
f 243/10/16 37/10/16 148/10/16
f 51/10/16 244/10/16 122/10/16
f 148/10/16 122/10/16 243/10/16
f 19/10/16 122/10/16 244/10/16
f 4/10/16 139/10/16 155/10/16
f 155/10/16 20/10/16 148/10/16
f 148/10/16 20/10/16 170/10/16
f 139/10/16 26/10/16 196/10/16
f 196/10/16 249/10/16 20/10/16
f 20/10/16 249/10/16 21/10/16
f 64/1/18 75/1/18 52/1/18
f 52/1/18 230/1/18 183/1/18
f 181/1/18 183/1/18 230/1/18
f 86/7/19 235/7/19 178/7/19
f 86/7/19 25/7/19 112/7/19
f 42/7/19 112/7/19 25/7/19
f 2/2/20 120/2/20 66/2/20
f 2/2/20 63/2/20 96/2/20
f 120/2/20 2/2/20 73/2/20
f 10/8/21 203/8/21 105/8/21
f 165/8/21 203/8/21 10/8/21
f 190/1/18 99/1/18 177/1/18
f 177/1/18 52/1/18 75/1/18
f 143/2/20 164/2/20 2/2/20
f 73/2/20 2/2/20 164/2/20
f 99/1/18 128/1/18 109/1/18
f 177/1/18 109/1/18 230/1/18
f 115/1/18 217/1/18 109/1/18
f 217/1/18 222/1/18 230/1/18
f 1/11/22 5/11/22 61/11/22
f 194/11/22 61/11/22 5/11/22
f 176/11/22 194/11/22 161/11/22
f 176/11/22 45/11/22 126/11/22
f 214/7/19 72/7/19 232/7/19
f 232/7/19 72/7/19 209/7/19
f 86/7/19 78/7/19 67/7/19
f 1/11/22 94/11/22 207/11/22
f 207/11/22 71/11/22 161/11/22
f 71/11/22 201/11/22 45/11/22
f 224/11/22 126/11/22 45/11/22
f 119/7/19 85/7/19 72/7/19
f 72/7/19 85/7/19 125/7/19
f 72/7/19 147/7/19 209/7/19
f 209/7/19 147/7/19 25/7/19
f 94/11/22 108/11/22 204/11/22
f 207/11/22 204/11/22 70/11/22
f 100/11/22 13/11/22 201/11/22
f 70/11/22 201/11/22 71/11/22
f 224/11/22 201/11/22 13/11/22
f 149/7/19 147/7/19 125/7/19
f 11/7/19 25/7/19 147/7/19
f 108/11/22 179/11/22 186/11/22
f 186/11/22 185/11/22 91/11/22
f 204/11/22 91/11/22 70/11/22
f 70/11/22 91/11/22 47/11/22
f 31/11/22 91/11/22 185/11/22
f 47/11/22 91/11/22 31/11/22
f 75/1/1 151/1/1 192/1/1
f 208/2/2 63/2/2 246/2/2
f 223/2/2 143/2/2 208/2/2
f 142/3/3 184/3/3 193/3/3
f 54/4/4 210/4/4 182/4/4
f 41/4/4 210/4/4 27/4/4
f 84/2/2 197/2/2 189/2/2
f 189/2/2 82/2/2 84/2/2
f 136/2/2 82/2/2 246/2/2
f 127/4/4 231/4/4 240/4/4
f 127/4/4 54/4/4 231/4/4
f 54/4/4 248/4/4 210/4/4
f 210/4/4 242/4/4 80/4/4
f 242/4/4 29/4/4 137/4/4
f 189/2/2 228/2/2 82/2/2
f 163/2/2 223/2/2 82/2/2
f 241/5/5 131/5/5 92/5/5
f 127/4/4 240/4/4 132/4/4
f 127/4/4 132/4/4 248/4/4
f 248/4/4 250/4/4 121/4/4
f 242/4/4 121/4/4 234/4/4
f 234/4/4 34/4/4 242/4/4
f 245/5/5 180/5/5 92/5/5
f 132/4/4 236/4/4 166/4/4
f 132/4/4 28/4/4 250/4/4
f 250/4/4 152/4/4 114/4/4
f 24/4/4 8/4/4 234/4/4
f 166/4/4 65/4/4 33/4/4
f 152/4/4 33/4/4 229/4/4
f 229/4/4 83/4/4 152/4/4
f 118/4/4 33/4/4 59/4/4
f 46/3/3 16/3/3 171/3/3
f 16/3/3 46/3/3 116/3/3
f 171/3/3 198/3/3 133/3/3
f 171/3/3 133/3/3 46/3/3
f 184/3/3 46/3/3 124/3/3
f 133/3/3 53/3/3 9/3/3
f 36/3/3 206/3/3 9/3/3
f 140/6/6 141/6/6 200/6/6
f 64/1/7 62/1/7 151/1/7
f 97/1/7 44/1/7 55/1/7
f 140/6/6 156/6/6 141/6/6
f 183/1/7 174/1/7 97/1/7
f 107/7/9 18/7/9 235/7/9
f 112/7/9 42/7/9 110/7/9
f 81/7/9 153/7/9 110/7/9
f 81/7/9 110/7/9 211/7/9
f 140/6/10 56/6/10 156/6/10
f 49/1/1 247/1/1 55/1/1
f 135/8/11 17/8/11 145/8/11
f 135/8/11 188/8/11 17/8/11
f 188/8/11 69/8/11 238/8/11
f 212/8/11 135/8/11 169/8/11
f 69/8/11 188/8/11 93/8/11
f 154/8/12 173/8/12 93/8/12
f 212/8/11 169/8/11 113/8/11
f 212/8/11 113/8/11 203/8/11
f 93/8/11 203/8/11 154/8/11
f 191/1/1 195/1/1 192/1/1
f 76/9/14 162/9/14 88/9/14
f 3/9/14 146/9/14 111/9/14
f 3/9/14 215/9/14 146/9/14
f 215/9/14 134/9/14 88/9/14
f 150/9/14 227/9/14 88/9/14
f 227/9/14 150/9/14 225/9/14
f 111/9/14 239/9/14 3/9/14
f 134/9/14 3/9/14 160/9/14
f 134/9/14 160/9/14 23/9/14
f 150/9/14 23/9/14 129/9/14
f 129/9/14 15/9/14 150/9/14
f 159/9/14 79/9/14 35/9/14
f 79/9/14 6/9/14 160/9/14
f 30/9/14 6/9/14 129/9/14
f 14/5/15 226/5/15 245/5/15
f 14/5/15 245/5/15 43/5/15
f 158/5/15 40/5/15 14/5/15
f 158/5/15 74/5/15 40/5/15
f 131/5/15 32/5/15 43/5/15
f 168/5/15 101/5/15 43/5/15
f 158/5/15 101/5/15 74/5/15
f 144/10/16 157/10/16 219/10/16
f 167/10/16 12/10/16 243/10/16
f 19/10/16 219/10/16 122/10/16
f 37/10/16 243/10/16 103/10/16
f 148/10/16 51/10/16 122/10/16
f 37/10/16 4/10/16 155/10/16
f 37/10/16 155/10/16 148/10/16
f 51/10/16 148/10/16 170/10/16
f 155/10/16 139/10/16 196/10/16
f 155/10/16 196/10/16 20/10/16
f 170/10/16 20/10/16 21/10/16
f 62/1/18 64/1/18 52/1/18
f 62/1/18 52/1/18 183/1/18
f 222/1/18 181/1/18 230/1/18
f 78/7/19 86/7/19 178/7/19
f 235/7/19 86/7/19 112/7/19
f 11/7/19 42/7/19 25/7/19
f 63/2/20 2/2/20 66/2/20
f 195/1/18 190/1/18 177/1/18
f 195/1/18 177/1/18 75/1/18
f 96/2/20 143/2/20 2/2/20
f 177/1/18 99/1/18 109/1/18
f 52/1/18 177/1/18 230/1/18
f 128/1/18 115/1/18 109/1/18
f 109/1/18 217/1/18 230/1/18
f 161/11/22 194/11/22 5/11/22
f 45/11/22 176/11/22 161/11/22
f 67/7/19 232/7/19 209/7/19
f 209/7/19 86/7/19 67/7/19
f 5/11/22 1/11/22 207/11/22
f 5/11/22 207/11/22 161/11/22
f 161/11/22 71/11/22 45/11/22
f 201/11/22 224/11/22 45/11/22
f 214/7/19 119/7/19 72/7/19
f 147/7/23 72/7/23 125/7/23
f 86/7/19 209/7/19 25/7/19
f 207/11/22 94/11/22 204/11/22
f 71/11/22 207/11/22 70/11/22
f 70/11/22 100/11/22 201/11/22
f 149/7/19 11/7/19 147/7/19
f 204/11/22 108/11/22 186/11/22
f 204/11/22 186/11/22 91/11/22
f 100/11/22 70/11/22 47/11/22
