# Blender v2.74 (sub 0) OBJ File: 'explode.blend'
# www.blender.org
mtllib explode_000194.mtl
o Cube_Cube.001
v -0.998093 1.505001 -3.427961
v 0.515977 1.856228 3.630421
v 0.169009 1.903801 -1.746794
v 0.377370 1.880958 4.062612
v -1.587780 -2.795177 -0.258834
v 0.447856 -0.886262 3.962410
v -4.647192 -0.350964 0.005810
v -0.871120 1.635101 -3.431063
v -1.119514 0.338772 -1.796811
v 0.588032 -0.983773 3.770165
v 0.388477 1.971171 4.061012
v -1.073329 0.415560 -1.781479
v -1.127743 1.239896 -3.868304
v -1.043833 0.594893 -1.690419
v 0.258385 1.886446 3.546081
v -0.003506 2.019942 -1.493441
v -4.662390 -0.326268 -0.080350
v -0.983255 1.626016 -3.073516
v 0.325936 1.830450 -1.802035
v 0.482862 1.757100 -1.857276
v -0.699963 0.645434 -1.901342
v 0.247634 -1.423305 3.916859
v 0.519431 -0.950934 4.047402
v -1.136204 0.441318 -1.721082
v -0.783309 1.672168 -3.610610
v -0.947580 0.364043 -1.902272
v 0.294499 1.827393 -1.887280
v -0.756308 1.779192 -3.345165
v -1.141727 -2.993115 -0.576167
v -0.704983 1.858233 -3.257717
v 0.604633 2.311881 4.110839
v -0.888587 0.722709 -1.720152
v -1.342528 1.072729 -3.685655
v -4.602734 -0.250328 0.314572
v -0.980958 0.569134 -1.750816
v -1.175029 -3.028452 -0.653023
v 0.216749 1.991317 4.004785
v 0.106394 1.986324 -1.435815
v -1.291203 1.151770 -3.598206
v 0.593526 2.221668 4.112439
v -1.064256 1.304946 -3.869854
v 0.451425 1.754042 -1.942521
v -4.631994 -0.375660 0.091970
v 0.604541 1.850920 3.945963
v 0.248378 -1.431263 4.007416
v -4.663525 -0.151544 -0.030070
v -4.589240 -0.012938 0.476153
v 0.659984 1.841028 3.773087
v -0.993765 0.287255 -1.917603
v -4.619067 -0.050908 0.278692
v -4.664661 0.023180 0.020211
v -0.856281 1.756116 -3.076618
v -0.716652 0.747980 -1.825614
v -0.842402 0.799497 -1.704821
v -1.212878 1.337835 -3.245312
v -1.315528 1.179752 -3.420209
v 0.344249 1.876373 3.574194
v 0.561326 1.720424 -1.884896
v -1.260001 -2.931059 -0.338385
v -0.834633 1.593127 -3.698059
v -4.650031 0.085845 0.131512
v -4.649463 -0.001516 0.106372
v 0.216295 1.952707 -1.378190
v 0.376281 -0.821591 3.877418
v -4.588672 -0.100300 0.451013
v -0.758984 1.644186 -3.788609
v -4.617364 -0.312994 0.203271
v -4.573474 -0.124996 0.537173
v 0.362339 -1.290058 4.018889
v -1.215554 1.202828 -3.688756
v -0.937283 1.435045 -3.872955
v 0.476301 -1.148852 4.030363
v 0.326195 1.919089 -1.320565
v -4.619635 0.036454 0.303833
v 0.447113 -0.878304 3.871853
v 0.621247 2.216722 4.026001
v 0.119778 1.911176 3.978271
v -0.995417 1.640007 -2.984518
v -0.949445 1.449036 -3.783957
v 0.444882 -0.854430 3.600182
v -1.264203 1.258793 -3.332761
v 0.230664 1.891392 3.632519
v -1.162715 -3.069676 -0.531870
v -4.586968 -0.362386 0.375592
v -1.627748 -2.608082 -0.327541
v 0.175221 1.901284 3.805394
v 0.388810 1.836566 -1.631543
v 0.545737 1.763214 -1.686784
v -0.951462 0.748468 -1.659756
v -1.161553 1.416875 -3.157864
v 0.591006 -1.015605 4.132393
v 0.626755 2.031348 3.942763
v -1.022418 1.532984 -3.249964
v 0.190653 -1.493908 3.911122
v -4.736819 -0.355705 0.020260
v 0.687074 1.732654 -1.543914
v 0.654476 2.026402 3.856325
v -0.931930 1.705057 -2.986068
v 0.477044 -1.156810 4.120920
v -0.895444 1.663084 -3.253065
v -0.885958 1.514086 -3.785507
v -1.149391 1.402884 -3.246863
v -1.066448 -2.804654 -0.587907
v 0.624200 1.726539 -1.714405
v -1.075123 -2.922440 -0.422457
v 0.360852 -1.274142 3.837775
v -1.115091 -2.735345 -0.491164
v -1.648736 -2.684644 -0.283244
v 0.474814 -1.132936 3.849249
v 0.360109 -1.266183 3.747218
v -4.574610 0.049728 0.587454
v 0.671091 1.931242 3.771487
v 0.637862 2.121562 3.941163
v 0.363083 -1.298016 4.109447
v -4.617932 -0.225632 0.228411
v 0.294758 1.916031 -1.405811
v 0.588776 -0.991731 3.860723
v 0.191397 -1.501866 4.001679
v -1.120739 -2.916553 -0.620465
v 0.577174 1.766272 -1.601539
v -0.807633 1.700150 -3.432613
v 0.374794 -0.805675 3.696305
v -0.780632 1.807174 -3.167167
v 0.432813 1.871065 3.889736
v -1.033146 -2.769316 -0.511052
v -1.034580 1.546975 -3.160965
v -1.227716 1.216820 -3.599757
v -0.792334 0.491859 -1.932005
v -1.566791 -2.718615 -0.303131
v -0.973769 1.477019 -3.605959
v 0.590262 -1.007647 4.041836
v -1.423891 -2.863118 -0.298610
v 0.485448 2.051312 4.087525
v -1.252041 1.244802 -3.421759
v 0.488256 1.861174 3.716859
v 0.012083 1.977152 -1.691553
v -4.648328 -0.176240 0.056091
v 0.507662 2.231740 4.084325
v -1.096112 -2.999001 -0.378160
v 0.687705 1.836082 3.686649
v 0.549098 1.860812 4.118839
v 0.261085 1.891211 3.833508
v 0.451684 1.842680 -1.461052
v -1.139905 1.253887 -3.779305
v -0.846795 1.607118 -3.609060
v 0.445626 -0.862388 3.690739
v -1.125067 1.374902 -3.424860
v -1.100743 1.346919 -3.602858
v 0.316528 1.881319 3.660632
v -0.066381 2.013828 -1.663932
v -1.218024 -2.777936 -0.426979
v -0.768470 1.793183 -3.256166
v -1.402902 -2.786556 -0.342907
v 0.074957 1.983267 -1.521061
v 0.231884 1.909916 -1.576302
v -0.919768 1.691066 -3.075067
v -1.381914 -2.709994 -0.387204
v 0.249121 -1.439221 4.097973
v 0.137572 1.900744 -1.832039
v -0.884705 0.338284 -1.962668
v -1.239013 -2.854498 -0.382682
v -0.762838 0.671192 -1.840945
v 0.571312 2.041240 4.115639
v -0.855208 0.517618 -1.871608
v -4.588104 -0.187662 0.425872
v 0.483121 1.845738 -1.375806
v 0.530148 1.806005 -1.488672
v 0.374051 -0.797717 3.605748
v 0.516457 -0.919101 3.685174
v 0.303872 -1.344744 3.832039
v 0.474070 -1.124978 3.758692
v -0.019354 1.974095 -1.776798
v 0.027931 2.023000 -1.408195
v 0.205642 1.901103 4.006384
v -1.076419 1.318936 -3.780856
v -1.545803 -2.642053 -0.347429
vt 0.872400 0.500000
vt 0.810800 0.500000
vt 0.841600 0.500000
vt 0.995600 0.500000
vt 0.964800 0.500000
vt 0.934000 0.500000
vt 0.903200 0.500000
vn -0.304900 0.054400 0.950800
vn 0.366300 0.388700 0.845400
vn 0.513400 -0.454200 0.728100
vn 0.703100 -0.681400 0.203200
vn 0.944500 -0.110800 0.309300
vn 0.944500 -0.110800 0.309200
vn 0.626800 0.776600 0.063100
vn 0.985900 0.052200 -0.159000
vn 0.985900 0.052100 -0.159000
vn 0.230900 0.842200 -0.487300
vn 0.368100 0.914400 -0.168500
vn -0.122200 -0.992400 0.017600
vn 0.779100 -0.623800 -0.061200
vn 0.901400 -0.373700 -0.218800
vn 0.006200 -0.961000 -0.276500
usemtl Explode_Fade
s off
f 163/1/1 133/1/1 11/1/1
f 4/1/1 141/1/1 163/1/1
f 107/2/2 151/2/2 161/2/2
f 125/2/2 161/2/2 105/2/2
f 139/2/2 105/2/2 161/2/2
f 160/3/3 26/3/3 49/3/3
f 26/3/3 12/3/3 9/3/3
f 9/3/3 12/3/3 24/3/3
f 101/4/4 79/4/4 71/4/4
f 175/4/4 41/4/4 71/4/4
f 175/4/4 144/4/4 13/4/4
f 85/2/2 108/2/2 129/2/2
f 129/2/2 153/2/2 157/2/2
f 153/2/2 161/2/2 151/2/2
f 60/4/4 66/4/4 25/4/4
f 101/4/4 60/4/4 145/4/4
f 79/4/4 145/4/4 130/4/4
f 79/4/4 130/4/4 148/4/4
f 127/4/4 70/4/4 144/4/4
f 5/2/2 129/2/2 108/2/2
f 127/4/4 175/4/4 148/4/4
f 39/4/4 33/4/4 70/4/4
f 132/2/2 153/2/2 129/2/2
f 59/2/2 161/2/2 153/2/2
f 25/4/4 121/4/4 8/4/4
f 130/4/4 145/4/4 8/4/4
f 130/4/4 1/4/4 147/4/4
f 147/4/4 134/4/4 127/4/4
f 39/4/4 127/4/4 134/4/4
f 30/4/4 152/4/4 28/4/4
f 8/4/4 121/4/4 28/4/4
f 8/4/4 152/4/4 100/4/4
f 1/4/4 8/4/4 100/4/4
f 1/4/4 93/4/4 102/4/4
f 102/4/4 55/4/4 81/4/4
f 102/4/4 134/4/4 147/4/4
f 56/4/4 134/4/4 81/4/4
f 123/4/4 152/4/4 30/4/4
f 152/4/4 123/4/4 52/4/4
f 152/4/4 156/4/4 100/4/4
f 156/4/4 18/4/4 126/4/4
f 156/4/4 93/4/4 100/4/4
f 90/4/4 102/4/4 93/4/4
f 55/4/4 102/4/4 90/4/4
f 98/4/4 156/4/4 52/4/4
f 98/4/4 78/4/4 18/4/4
f 53/3/3 162/3/3 21/3/3
f 21/3/3 162/3/3 164/3/3
f 164/3/3 26/3/3 160/3/3
f 53/3/3 54/3/3 32/3/3
f 162/3/3 32/3/3 35/3/3
f 35/3/3 12/3/3 26/3/3
f 89/3/3 32/3/3 54/3/3
f 14/3/3 35/3/3 32/3/3
f 24/3/3 12/3/3 35/3/3
f 44/1/5 92/1/5 163/1/5
f 92/1/6 113/1/6 76/1/6
f 92/1/5 40/1/5 163/1/5
f 31/1/5 40/1/5 76/1/5
f 112/1/6 97/1/6 92/1/6
f 48/1/6 92/1/6 44/1/6
f 113/1/5 92/1/5 97/1/5
f 112/1/5 48/1/5 140/1/5
f 91/5/7 131/5/7 23/5/7
f 6/5/7 23/5/7 131/5/7
f 75/5/7 131/5/7 117/5/7
f 6/5/7 75/5/7 64/5/7
f 117/5/7 10/5/7 169/5/7
f 117/5/7 146/5/7 75/5/7
f 64/5/7 75/5/7 146/5/7
f 80/5/7 146/5/7 169/5/7
f 80/5/7 168/5/7 122/5/7
f 138/1/1 40/1/1 31/1/1
f 138/1/1 133/1/1 163/1/1
f 47/6/8 111/6/8 68/6/8
f 50/6/8 74/6/8 47/6/8
f 50/6/8 62/6/8 61/6/8
f 61/6/9 62/6/9 51/6/9
f 165/6/8 65/6/8 68/6/8
f 165/6/9 34/6/9 115/6/9
f 65/6/9 115/6/9 50/6/9
f 115/6/9 137/6/9 62/6/9
f 46/6/8 51/6/8 62/6/8
f 107/2/10 125/2/10 103/2/10
f 34/6/8 84/6/8 67/6/8
f 115/6/8 67/6/8 43/6/8
f 115/6/8 7/6/8 137/6/8
f 137/6/8 7/6/8 17/6/8
f 77/1/1 174/1/1 37/1/1
f 4/1/1 11/1/1 37/1/1
f 167/7/11 143/7/11 166/7/11
f 166/7/11 143/7/11 116/7/11
f 73/7/11 116/7/11 63/7/11
f 120/7/11 96/7/11 104/7/11
f 143/7/11 167/7/11 120/7/11
f 143/7/11 88/7/11 87/7/11
f 143/7/11 87/7/11 155/7/11
f 38/7/11 63/7/11 116/7/11
f 154/7/11 116/7/11 155/7/11
f 154/7/11 16/7/11 173/7/11
f 58/7/11 20/7/11 88/7/11
f 88/7/11 20/7/11 19/7/11
f 87/7/11 19/7/11 3/7/11
f 155/7/11 3/7/11 136/7/11
f 150/7/11 16/7/11 154/7/11
f 42/7/11 20/7/11 58/7/11
f 42/7/11 27/7/11 19/7/11
f 27/7/11 159/7/11 3/7/11
f 172/7/11 136/7/11 3/7/11
f 150/7/11 136/7/11 172/7/11
f 141/1/12 4/1/12 124/1/12
f 124/1/12 135/1/12 48/1/12
f 2/1/12 140/1/12 48/1/12
f 72/5/13 131/5/13 91/5/13
f 109/5/13 117/5/13 131/5/13
f 171/5/13 10/5/13 117/5/13
f 119/2/14 103/2/14 125/2/14
f 29/2/14 125/2/14 105/2/14
f 119/2/14 29/2/14 36/2/14
f 95/6/15 7/6/15 43/6/15
f 17/6/15 7/6/15 95/6/15
f 86/1/12 142/1/12 174/1/12
f 174/1/12 142/1/12 124/1/12
f 83/2/14 29/2/14 105/2/14
f 36/2/14 29/2/14 83/2/14
f 82/1/12 149/1/12 142/1/12
f 142/1/12 149/1/12 135/1/12
f 15/1/12 57/1/12 149/1/12
f 57/1/12 2/1/12 135/1/12
f 118/5/13 45/5/13 158/5/13
f 158/5/13 45/5/13 69/5/13
f 69/5/13 72/5/13 99/5/13
f 94/5/13 22/5/13 45/5/13
f 45/5/13 22/5/13 170/5/13
f 45/5/13 106/5/13 69/5/13
f 69/5/13 106/5/13 109/5/13
f 110/5/13 106/5/13 170/5/13
f 110/5/13 171/5/13 109/5/13
f 4/1/1 163/1/1 11/1/1
f 125/2/2 107/2/2 161/2/2
f 59/2/2 139/2/2 161/2/2
f 49/3/3 26/3/3 9/3/3
f 79/4/4 175/4/4 71/4/4
f 41/4/4 175/4/4 13/4/4
f 176/2/2 85/2/2 129/2/2
f 176/2/2 129/2/2 157/2/2
f 157/2/2 153/2/2 151/2/2
f 145/4/4 60/4/4 25/4/4
f 79/4/4 101/4/4 145/4/4
f 175/4/4 79/4/4 148/4/4
f 175/4/4 127/4/4 144/4/4
f 127/4/4 39/4/4 70/4/4
f 5/2/2 132/2/2 129/2/2
f 132/2/2 59/2/2 153/2/2
f 145/4/4 25/4/4 8/4/4
f 1/4/4 130/4/4 8/4/4
f 148/4/4 130/4/4 147/4/4
f 148/4/4 147/4/4 127/4/4
f 56/4/4 39/4/4 134/4/4
f 152/4/4 8/4/4 28/4/4
f 93/4/4 1/4/4 100/4/4
f 147/4/4 1/4/4 102/4/4
f 134/4/4 102/4/4 81/4/4
f 156/4/4 152/4/4 52/4/4
f 93/4/4 156/4/4 126/4/4
f 126/4/4 90/4/4 93/4/4
f 156/4/4 98/4/4 18/4/4
f 128/3/3 21/3/3 164/3/3
f 128/3/3 164/3/3 160/3/3
f 162/3/3 53/3/3 32/3/3
f 164/3/3 162/3/3 35/3/3
f 164/3/3 35/3/3 26/3/3
f 89/3/3 14/3/3 32/3/3
f 14/3/3 24/3/3 35/3/3
f 141/1/5 44/1/5 163/1/5
f 40/1/6 92/1/6 76/1/6
f 48/1/5 112/1/5 92/1/5
f 75/5/7 6/5/7 131/5/7
f 146/5/7 117/5/7 169/5/7
f 122/5/7 64/5/7 146/5/7
f 146/5/7 80/5/7 122/5/7
f 40/1/1 138/1/1 163/1/1
f 65/6/8 47/6/8 68/6/8
f 65/6/8 50/6/8 47/6/8
f 74/6/8 50/6/8 61/6/8
f 65/6/8 165/6/8 115/6/8
f 50/6/9 115/6/9 62/6/9
f 137/6/9 46/6/9 62/6/9
f 115/6/9 34/6/9 67/6/9
f 7/6/8 115/6/8 43/6/8
f 46/6/8 137/6/8 17/6/8
f 174/1/1 4/1/1 37/1/1
f 73/7/11 166/7/11 116/7/11
f 88/7/11 120/7/11 104/7/11
f 88/7/11 143/7/11 120/7/11
f 116/7/11 143/7/11 155/7/11
f 154/7/11 38/7/11 116/7/11
f 38/7/11 154/7/11 173/7/11
f 104/7/11 58/7/11 88/7/11
f 87/7/11 88/7/11 19/7/11
f 155/7/11 87/7/11 3/7/11
f 154/7/11 155/7/11 136/7/11
f 136/7/11 150/7/11 154/7/11
f 20/7/11 42/7/11 19/7/11
f 19/7/11 27/7/11 3/7/11
f 159/7/11 172/7/11 3/7/11
f 44/1/12 141/1/12 124/1/12
f 44/1/12 124/1/12 48/1/12
f 135/1/12 2/1/12 48/1/12
f 99/5/13 72/5/13 91/5/13
f 72/5/13 109/5/13 131/5/13
f 109/5/13 171/5/13 117/5/13
f 29/2/14 119/2/14 125/2/14
f 77/1/12 86/1/12 174/1/12
f 4/1/12 174/1/12 124/1/12
f 139/2/14 83/2/14 105/2/14
f 86/1/12 82/1/12 142/1/12
f 124/1/12 142/1/12 135/1/12
f 82/1/12 15/1/12 149/1/12
f 149/1/12 57/1/12 135/1/12
f 114/5/13 158/5/13 69/5/13
f 114/5/13 69/5/13 99/5/13
f 118/5/13 94/5/13 45/5/13
f 106/5/13 45/5/13 170/5/13
f 72/5/13 69/5/13 109/5/13
f 106/5/13 110/5/13 109/5/13
