# Blender v2.74 (sub 0) OBJ File: 'explode.blend'
# www.blender.org
mtllib explode_000200.mtl
o Cube_Cube.001
v 0.725758 2.065343 4.482839
v -1.034084 0.867139 -1.844122
v -1.185448 0.354897 -2.056904
v -1.624817 -3.067211 -0.361553
v -1.481916 -3.211715 -0.357031
v -0.908335 0.815622 -1.964915
v 0.609473 2.075597 4.253735
v 0.836643 2.045560 4.137086
v 0.864365 2.040614 4.050649
v -1.175126 -3.424160 -0.392284
v 0.435045 2.090977 3.910080
v 0.781292 2.516413 4.474839
v -1.254042 -3.453610 -0.667147
v 0.684321 2.436272 4.448324
v 0.662107 2.255844 4.451525
v 0.814521 2.326093 4.305162
v -0.954520 0.738834 -1.980246
v 0.351881 2.105815 4.169394
v -1.235515 0.662535 -1.829720
v 0.407324 2.095923 3.996518
v -1.502904 -3.288276 -0.312734
v -1.311198 0.406414 -1.936112
v -1.327887 0.508960 -1.860384
v -1.154137 -3.347598 -0.436582
v -1.199752 -3.341711 -0.634589
v 0.437745 2.095743 4.197507
v 0.770185 2.426199 4.476438
v -1.318026 -3.279656 -0.396806
v 0.847750 2.135774 4.135487
v -1.145462 -3.229812 -0.602031
v -1.046891 0.585260 -2.010910
v 0.747971 2.245771 4.479639
v -1.220741 -3.418272 -0.590292
v -1.080270 0.790351 -1.859454
v 0.692637 2.060759 3.994421
v -1.076388 0.405926 -2.101969
v 0.664915 2.065705 4.080859
v -1.645805 -3.143773 -0.317256
v 0.797907 2.421253 4.390001
v -1.297038 -3.203094 -0.441104
v -0.984017 0.559501 -2.071306
v 0.382302 2.105635 4.370383
v -1.172641 0.636777 -1.890117
v -1.139262 0.431685 -2.041573
v 0.803414 2.235879 4.306762
v -1.727750 -3.109802 -0.297368
v 0.493187 2.085851 4.024632
v -1.194105 -3.160503 -0.505288
v -1.706761 -3.033240 -0.341666
v 0.520909 2.080905 3.938194
v 0.296438 2.115708 4.342270
v -1.143144 0.816110 -1.799057
v -1.666793 -3.220335 -0.272959
v 0.393409 2.195848 4.368783
v -1.265012 0.483202 -1.920780
v 0.781201 2.055451 4.309962
v -1.241729 -3.494834 -0.545995
v -1.339015 -3.356218 -0.352509
v -1.460927 -3.135153 -0.401328
v 0.554030 2.085489 4.426611
v 0.565136 2.175703 4.425011
v -1.112160 -3.194474 -0.525176
v 0.831136 2.230934 4.220325
v -0.891646 0.713076 -2.040643
vt 0.992400 0.500000
vt 0.930800 0.500000
vt 0.961600 0.500000
vn -0.304900 0.054400 0.950800
vn 0.366300 0.388700 0.845400
vn 0.513400 -0.454200 0.728100
vn 0.944500 -0.110800 0.309300
vn 0.944500 -0.110800 0.309200
vn 0.230900 0.842200 -0.487300
vn -0.122200 -0.992400 0.017600
vn 0.901400 -0.373700 -0.218800
usemtl Explode_Fade
s off
f 15/1/1 61/1/1 60/1/1
f 60/1/1 1/1/1 32/1/1
f 48/2/2 40/2/2 28/2/2
f 62/2/2 28/2/2 24/2/2
f 10/2/2 24/2/2 28/2/2
f 36/3/3 44/3/3 3/3/3
f 55/3/3 22/3/3 3/3/3
f 22/3/3 55/3/3 23/3/3
f 49/2/2 46/2/2 38/2/2
f 38/2/2 5/2/2 59/2/2
f 5/2/2 28/2/2 40/2/2
f 53/2/2 38/2/2 46/2/2
f 53/2/2 21/2/2 5/2/2
f 21/2/2 58/2/2 28/2/2
f 6/3/3 17/3/3 64/3/3
f 64/3/3 17/3/3 31/3/3
f 31/3/3 44/3/3 36/3/3
f 2/3/3 34/3/3 17/3/3
f 34/3/3 43/3/3 31/3/3
f 43/3/3 55/3/3 44/3/3
f 52/3/3 34/3/3 2/3/3
f 19/3/3 43/3/3 34/3/3
f 23/3/3 55/3/3 43/3/3
f 56/1/4 45/1/4 32/1/4
f 45/1/4 16/1/4 39/1/4
f 45/1/4 27/1/4 32/1/4
f 12/1/4 27/1/4 39/1/4
f 29/1/4 63/1/4 45/1/4
f 8/1/4 45/1/4 56/1/4
f 16/1/5 45/1/5 63/1/5
f 29/1/4 8/1/4 9/1/4
f 14/1/1 27/1/1 12/1/1
f 15/1/1 32/1/1 27/1/1
f 48/2/6 62/2/6 30/2/6
f 51/1/1 42/1/1 54/1/1
f 42/1/1 60/1/1 61/1/1
f 1/1/7 60/1/7 7/1/7
f 37/1/7 8/1/7 56/1/7
f 35/1/7 9/1/7 8/1/7
f 33/2/8 25/2/8 30/2/8
f 33/2/8 62/2/8 24/2/8
f 25/2/8 33/2/8 13/2/8
f 18/1/7 26/1/7 42/1/7
f 42/1/7 26/1/7 7/1/7
f 57/2/8 33/2/8 24/2/8
f 13/2/8 33/2/8 57/2/8
f 20/1/7 47/1/7 26/1/7
f 26/1/7 47/1/7 37/1/7
f 11/1/7 50/1/7 47/1/7
f 35/1/7 37/1/7 47/1/7
f 32/1/1 15/1/1 60/1/1
f 62/2/2 48/2/2 28/2/2
f 58/2/2 10/2/2 28/2/2
f 44/3/3 55/3/3 3/3/3
f 4/2/2 49/2/2 38/2/2
f 4/2/2 38/2/2 59/2/2
f 59/2/2 5/2/2 40/2/2
f 38/2/2 53/2/2 5/2/2
f 5/2/2 21/2/2 28/2/2
f 41/3/3 64/3/3 31/3/3
f 41/3/3 31/3/3 36/3/3
f 6/3/3 2/3/3 17/3/3
f 17/3/3 34/3/3 31/3/3
f 31/3/3 43/3/3 44/3/3
f 52/3/3 19/3/3 34/3/3
f 19/3/3 23/3/3 43/3/3
f 1/1/4 56/1/4 32/1/4
f 27/1/4 45/1/4 39/1/4
f 8/1/4 29/1/4 45/1/4
f 14/1/1 15/1/1 27/1/1
f 54/1/1 42/1/1 61/1/1
f 56/1/7 1/1/7 7/1/7
f 7/1/7 37/1/7 56/1/7
f 37/1/7 35/1/7 8/1/7
f 62/2/8 33/2/8 30/2/8
f 51/1/7 18/1/7 42/1/7
f 60/1/7 42/1/7 7/1/7
f 10/2/8 57/2/8 24/2/8
f 18/1/7 20/1/7 26/1/7
f 7/1/7 26/1/7 37/1/7
f 20/1/7 11/1/7 47/1/7
f 50/1/7 35/1/7 47/1/7
