# Blender v2.74 (sub 0) OBJ File: 'explode.blend'
# www.blender.org
mtllib explode_000201.mtl
o Cube_Cube.001
v -1.267211 -3.524470 -0.669501
v -1.679963 -3.291194 -0.275313
v -1.359834 0.520234 -1.883600
v -0.986468 0.750108 -2.003463
v -1.310207 -3.273954 -0.443458
v -1.719930 -3.104100 -0.344020
v -1.188294 -3.495019 -0.394639
v -1.167306 -3.418457 -0.438936
v -1.207274 -3.231363 -0.507643
v -0.923593 0.724349 -2.063860
v -1.217395 0.366171 -2.080121
v -1.112217 0.801625 -1.882670
v -1.078839 0.596533 -2.034127
v -1.158631 -3.300671 -0.604385
v -1.343144 0.417688 -1.959328
v -1.171210 0.442959 -2.064790
v -0.940282 0.826895 -1.988132
v -1.204588 0.648050 -1.913334
v -1.658974 -3.214633 -0.319610
v -1.495085 -3.282574 -0.359385
v -1.474096 -3.206012 -0.403682
v -1.175092 0.827384 -1.822274
v -1.254898 -3.565694 -0.548349
v -1.267462 0.673809 -1.852937
v -1.015964 0.570775 -2.094523
v -1.296959 0.494476 -1.943997
v -1.066032 0.878412 -1.867339
v -1.233909 -3.489132 -0.592646
v -1.331195 -3.350515 -0.399161
v -1.125329 -3.265334 -0.527530
v -1.740919 -3.180662 -0.299722
v -1.212921 -3.412571 -0.636943
v -1.352184 -3.427078 -0.354864
v -1.516073 -3.359136 -0.315088
v -1.108335 0.417200 -2.125186
v -1.637985 -3.138071 -0.363907
vt 0.950800 0.500000
vt 0.981600 0.500000
vn 0.366300 0.388700 0.845400
vn 0.513400 -0.454200 0.728100
vn 0.230900 0.842200 -0.487300
vn 0.901400 -0.373700 -0.218800
usemtl Explode_Fade
s off
f 30/1/1 9/1/1 5/1/1
f 30/1/1 29/1/1 8/1/1
f 33/1/1 7/1/1 8/1/1
f 35/2/2 16/2/2 11/2/2
f 16/2/2 26/2/2 15/2/2
f 15/2/2 26/2/2 3/2/2
f 6/1/1 31/1/1 19/1/1
f 20/1/1 21/1/1 36/1/1
f 29/1/1 5/1/1 21/1/1
f 2/1/1 19/1/1 31/1/1
f 2/1/1 34/1/1 20/1/1
f 33/1/1 29/1/1 20/1/1
f 17/2/2 4/2/2 10/2/2
f 10/2/2 4/2/2 13/2/2
f 13/2/2 16/2/2 35/2/2
f 17/2/2 27/2/2 12/2/2
f 4/2/2 12/2/2 18/2/2
f 18/2/2 26/2/2 16/2/2
f 22/2/2 12/2/2 27/2/2
f 24/2/2 18/2/2 12/2/2
f 3/2/2 26/2/2 18/2/2
f 9/1/3 30/1/3 14/1/3
f 32/1/4 14/1/4 30/1/4
f 28/1/4 30/1/4 8/1/4
f 28/1/4 1/1/4 32/1/4
f 7/1/4 23/1/4 28/1/4
f 1/1/4 28/1/4 23/1/4
f 29/1/1 30/1/1 5/1/1
f 29/1/1 33/1/1 8/1/1
f 11/2/2 16/2/2 15/2/2
f 36/1/1 6/1/1 19/1/1
f 19/1/1 20/1/1 36/1/1
f 20/1/1 29/1/1 21/1/1
f 19/1/1 2/1/1 20/1/1
f 34/1/1 33/1/1 20/1/1
f 25/2/2 10/2/2 13/2/2
f 25/2/2 13/2/2 35/2/2
f 4/2/2 17/2/2 12/2/2
f 13/2/2 4/2/2 18/2/2
f 13/2/2 18/2/2 16/2/2
f 22/2/2 24/2/2 12/2/2
f 24/2/2 3/2/2 18/2/2
f 28/1/4 32/1/4 30/1/4
f 8/1/4 7/1/4 28/1/4
